BowlbyOneSC.ufo
<glyph name="exclam" format="1">
  <advance width="792"/>
  <unicode hex="0021"/>
  <outline>
    <contour>
      <point x="92" y="1462" type="curve" smooth="yes"/>
      <point x="92" y="1502"/>
      <point x="268" y="1496"/>
      <point x="260" y="1496" type="curve" smooth="yes"/>
      <point x="380" y="1500" type="line" smooth="no"/>
      <point x="454" y="1506"/>
      <point x="530" y="1508"/>
      <point x="616" y="1508" type="curve" smooth="yes"/>
      <point x="664" y="1508"/>
      <point x="706" y="1500"/>
      <point x="706" y="1468" type="curve" smooth="no"/>
      <point x="670" y="1012" type="line" smooth="yes"/>
      <point x="658" y="860"/>
      <point x="640" y="708"/>
      <point x="626" y="558" type="curve" smooth="yes"/>
      <point x="624" y="528"/>
      <point x="574" y="522"/>
      <point x="516" y="522" type="curve" smooth="yes"/>
      <point x="490" y="522"/>
      <point x="464" y="524"/>
      <point x="438" y="524" type="curve" smooth="yes"/>
      <point x="384" y="524"/>
      <point x="334" y="520"/>
      <point x="280" y="520" type="curve" smooth="yes"/>
      <point x="194" y="520" type="line" smooth="no"/>
      <point x="148" y="536"/>
      <point x="144" y="606"/>
      <point x="144" y="666" type="curve" smooth="yes"/>
      <point x="144" y="712" type="line" smooth="yes"/>
      <point x="112" y="1154" type="line" smooth="yes"/>
      <point x="104" y="1252"/>
      <point x="94" y="1360"/>
    </contour>
    <contour>
      <point x="112" y="12" type="line" smooth="no"/>
      <point x="116" y="152" type="line" smooth="no"/>
      <point x="116" y="252"/>
      <point x="126" y="356"/>
      <point x="148" y="356" type="curve" smooth="yes"/>
      <point x="344" y="356" type="line" smooth="yes"/>
      <point x="622" y="356"/>
      <point x="658" y="346"/>
      <point x="658" y="320" type="curve" smooth="yes"/>
      <point x="658" y="314"/>
      <point x="656" y="302"/>
      <point x="656" y="292" type="curve" smooth="yes"/>
      <point x="656" y="168" type="line" smooth="no"/>
      <point x="656" y="84" type="line" smooth="yes"/>
      <point x="656" y="58"/>
      <point x="658" y="30"/>
      <point x="660" y="4" type="curve" smooth="no"/>
      <point x="650" y="-44"/>
      <point x="208" y="-32"/>
      <point x="146" y="-32" type="curve" smooth="no"/>
      <point x="132" y="-16" type="line" smooth="yes"/>
      <point x="126" y="-10"/>
      <point x="122" y="-6"/>
      <point x="120" y="0" type="curve" smooth="yes"/>
    </contour>
  </outline>
</glyph>
<glyph name="quotedbl" format="1">
  <advance width="1284"/>
  <unicode hex="0022"/>
  <outline>
    <contour>
      <point x="180" y="872" type="line" smooth="no"/>
      <point x="180" y="1012" type="line" smooth="no"/>
      <point x="188" y="1254" type="line" smooth="yes"/>
      <point x="188" y="1300"/>
      <point x="192" y="1346"/>
      <point x="192" y="1388" type="curve" smooth="yes"/>
      <point x="192" y="1440" type="line" smooth="yes"/>
      <point x="192" y="1472"/>
      <point x="196" y="1504"/>
      <point x="214" y="1510" type="curve" smooth="no"/>
      <point x="270" y="1510"/>
      <point x="326" y="1508"/>
      <point x="380" y="1508" type="curve" smooth="no"/>
      <point x="400" y="1510" type="line" smooth="yes"/>
      <point x="416" y="1512"/>
      <point x="434" y="1512"/>
      <point x="452" y="1512" type="curve" smooth="yes"/>
      <point x="516" y="1512"/>
      <point x="600" y="1504"/>
      <point x="600" y="1476" type="curve" smooth="yes"/>
      <point x="600" y="1466" type="line" smooth="no"/>
      <point x="606" y="1282"/>
      <point x="612" y="1086"/>
      <point x="612" y="900" type="curve" smooth="yes"/>
      <point x="612" y="846"/>
      <point x="594" y="840"/>
      <point x="536" y="840" type="curve" smooth="yes"/>
      <point x="520" y="840"/>
      <point x="502" y="842"/>
      <point x="478" y="842" type="curve" smooth="yes"/>
      <point x="346" y="840" type="line" smooth="yes"/>
      <point x="302" y="840"/>
      <point x="258" y="838"/>
      <point x="214" y="836" type="curve" smooth="no"/>
      <point x="196" y="854" type="line" smooth="no"/>
    </contour>
    <contour>
      <point x="700" y="922" type="curve" smooth="yes"/>
      <point x="700" y="1004" type="line" smooth="no"/>
      <point x="710" y="1264" type="line" smooth="yes"/>
      <point x="712" y="1312"/>
      <point x="712" y="1360"/>
      <point x="712" y="1406" type="curve" smooth="yes"/>
      <point x="712" y="1444" type="line" smooth="yes"/>
      <point x="712" y="1476"/>
      <point x="714" y="1512"/>
      <point x="734" y="1512" type="curve" smooth="yes"/>
      <point x="854" y="1512" type="line" smooth="yes"/>
      <point x="876" y="1512"/>
      <point x="900" y="1512"/>
      <point x="924" y="1510" type="curve" smooth="yes"/>
      <point x="994" y="1508" type="line" smooth="yes"/>
      <point x="1064" y="1506"/>
      <point x="1116" y="1502"/>
      <point x="1116" y="1492" type="curve" smooth="yes"/>
      <point x="1116" y="1480" type="line" smooth="no"/>
      <point x="1126" y="1282"/>
      <point x="1128" y="1098"/>
      <point x="1128" y="896" type="curve" smooth="yes"/>
      <point x="1128" y="870"/>
      <point x="1126" y="848"/>
      <point x="1104" y="848" type="curve" smooth="no"/>
      <point x="1100" y="850" type="line" smooth="no"/>
      <point x="988" y="846" type="line" smooth="no"/>
      <point x="902" y="846"/>
      <point x="818" y="840"/>
      <point x="732" y="838" type="curve" smooth="no"/>
      <point x="720" y="856" type="line" smooth="yes"/>
      <point x="708" y="874"/>
      <point x="700" y="888"/>
    </contour>
  </outline>
</glyph>
<glyph name="numbersign" format="1">
  <advance width="1548"/>
  <unicode hex="0023"/>
  <outline>
    <contour>
      <point x="224" y="440" type="curve" smooth="yes"/>
      <point x="224" y="490"/>
      <point x="226" y="562"/>
      <point x="226" y="632" type="curve" smooth="yes"/>
      <point x="226" y="664"/>
      <point x="258" y="668"/>
      <point x="296" y="668" type="curve" smooth="yes"/>
      <point x="412" y="668" type="line" smooth="no"/>
      <point x="432" y="812" type="line" smooth="no"/>
      <point x="408" y="812" type="line" smooth="yes"/>
      <point x="352" y="812"/>
      <point x="288" y="812"/>
      <point x="288" y="848" type="curve" smooth="yes"/>
      <point x="288" y="922"/>
      <point x="292" y="1000"/>
      <point x="292" y="1078" type="curve" smooth="yes"/>
      <point x="292" y="1110"/>
      <point x="352" y="1114"/>
      <point x="406" y="1114" type="curve" smooth="yes"/>
      <point x="436" y="1114"/>
      <point x="462" y="1112"/>
      <point x="470" y="1112" type="curve" smooth="yes"/>
      <point x="472" y="1112"/>
      <point x="478" y="1152"/>
      <point x="488" y="1202" type="curve" smooth="no"/>
      <point x="512" y="1376" type="line" smooth="no"/>
      <point x="524" y="1448" type="line" smooth="no"/>
      <point x="530" y="1510"/>
      <point x="558" y="1510"/>
      <point x="680" y="1510" type="curve" smooth="yes"/>
      <point x="748" y="1510" type="line" smooth="yes"/>
      <point x="790" y="1510"/>
      <point x="818" y="1506"/>
      <point x="826" y="1480" type="curve" smooth="no"/>
      <point x="804" y="1354"/>
      <point x="794" y="1228"/>
      <point x="772" y="1102" type="curve" smooth="no"/>
      <point x="870" y="1102" type="line" smooth="no"/>
      <point x="884" y="1252" type="line" smooth="yes"/>
      <point x="894" y="1362"/>
      <point x="912" y="1480"/>
      <point x="936" y="1504" type="curve" smooth="no"/>
      <point x="950" y="1502"/>
      <point x="962" y="1502"/>
      <point x="976" y="1502" type="curve" smooth="yes"/>
      <point x="1072" y="1502" type="line" smooth="no"/>
      <point x="1176" y="1502" type="line" smooth="yes"/>
      <point x="1198" y="1502"/>
      <point x="1210" y="1502"/>
      <point x="1210" y="1478" type="curve" smooth="no"/>
      <point x="1162" y="1104" type="line" smooth="no"/>
      <point x="1200" y="1104" type="line" smooth="no"/>
      <point x="1284" y="1104" type="line" smooth="no"/>
      <point x="1306" y="1102"/>
      <point x="1308" y="1066"/>
      <point x="1308" y="1032" type="curve" smooth="yes"/>
      <point x="1308" y="928" type="line" smooth="yes"/>
      <point x="1308" y="904"/>
      <point x="1310" y="882"/>
      <point x="1310" y="860" type="curve" smooth="yes"/>
      <point x="1310" y="826"/>
      <point x="1248" y="818"/>
      <point x="1196" y="818" type="curve" smooth="yes"/>
      <point x="1162" y="818"/>
      <point x="1132" y="822"/>
      <point x="1126" y="822" type="curve" smooth="no"/>
      <point x="1118" y="768"/>
      <point x="1114" y="718"/>
      <point x="1106" y="664" type="curve" smooth="no"/>
      <point x="1208" y="664" type="line" smooth="no"/>
      <point x="1216" y="664" type="line" smooth="yes"/>
      <point x="1218" y="664"/>
      <point x="1222" y="664"/>
      <point x="1226" y="666" type="curve" smooth="no"/>
      <point x="1240" y="662"/>
      <point x="1250" y="654"/>
      <point x="1254" y="644" type="curve" smooth="no"/>
      <point x="1254" y="496" type="line" smooth="yes"/>
      <point x="1254" y="464"/>
      <point x="1256" y="432"/>
      <point x="1256" y="400" type="curve" smooth="no"/>
      <point x="1254" y="386"/>
      <point x="1246" y="378"/>
      <point x="1232" y="378" type="curve" smooth="yes"/>
      <point x="1180" y="378"/>
      <point x="1130" y="382"/>
      <point x="1074" y="382" type="curve" smooth="no"/>
      <point x="1052" y="200" type="line" smooth="yes"/>
      <point x="1044" y="134"/>
      <point x="1076" y="-28"/>
      <point x="932" y="-28" type="curve" smooth="yes"/>
      <point x="916" y="-28"/>
      <point x="886" y="-30"/>
      <point x="848" y="-30" type="curve" smooth="yes"/>
      <point x="786" y="-30"/>
      <point x="724" y="-24"/>
      <point x="718" y="8" type="curve" smooth="no"/>
      <point x="734" y="122"/>
      <point x="744" y="240"/>
      <point x="764" y="368" type="curve" smooth="no"/>
      <point x="750" y="366"/>
      <point x="738" y="366"/>
      <point x="724" y="366" type="curve" smooth="no"/>
      <point x="684" y="360" type="line" smooth="no"/>
      <point x="652" y="84" type="line" smooth="no"/>
      <point x="642" y="28"/>
      <point x="648" y="-34"/>
      <point x="572" y="-34" type="curve" smooth="yes"/>
      <point x="498" y="-34"/>
      <point x="422" y="-32"/>
      <point x="350" y="-30" type="curve" smooth="no"/>
      <point x="320" y="16" type="line" smooth="no"/>
      <point x="368" y="364" type="line" smooth="no"/>
      <point x="344" y="364" type="line" smooth="yes"/>
      <point x="238" y="364"/>
      <point x="224" y="364"/>
    </contour>
    <contour>
      <point x="668" y="648" type="line" smooth="no"/>
      <point x="668" y="632"/>
      <point x="672" y="620"/>
      <point x="688" y="620" type="curve" smooth="yes"/>
      <point x="712" y="620" type="line" smooth="no"/>
      <point x="826" y="626" type="line" smooth="yes"/>
      <point x="830" y="626" type="line" smooth="yes"/>
      <point x="838" y="626"/>
      <point x="842" y="632"/>
      <point x="844" y="640" type="curve" smooth="yes"/>
      <point x="880" y="840" type="line" smooth="no"/>
      <point x="878" y="858"/>
      <point x="868" y="868"/>
      <point x="852" y="868" type="curve" smooth="yes"/>
      <point x="804" y="868" type="line" smooth="no"/>
      <point x="788" y="870"/>
      <point x="774" y="872"/>
      <point x="760" y="872" type="curve" smooth="yes"/>
      <point x="716" y="872" type="line" smooth="no"/>
      <point x="702" y="846" type="line" smooth="no"/>
      <point x="684" y="746" type="line" smooth="no"/>
    </contour>
  </outline>
</glyph>
<glyph name="percent" format="1">
  <advance width="2152"/>
  <unicode hex="0025"/>
  <outline>
    <contour>
      <point x="18" y="1020" type="curve" smooth="yes"/>
      <point x="18" y="1144"/>
      <point x="56" y="1314"/>
      <point x="152" y="1410" type="curve" smooth="no"/>
      <point x="248" y="1490"/>
      <point x="352" y="1532"/>
      <point x="480" y="1532" type="curve" smooth="yes"/>
      <point x="824" y="1532"/>
      <point x="912" y="1282"/>
      <point x="912" y="1056" type="curve" smooth="yes"/>
      <point x="912" y="776"/>
      <point x="804" y="520"/>
      <point x="452" y="520" type="curve" smooth="yes"/>
      <point x="94" y="520"/>
      <point x="18" y="780"/>
    </contour>
    <contour>
      <point x="366" y="1020" type="curve" smooth="yes"/>
      <point x="366" y="946"/>
      <point x="362" y="752"/>
      <point x="474" y="752" type="curve" smooth="yes"/>
      <point x="564" y="752"/>
      <point x="564" y="884"/>
      <point x="564" y="944" type="curve" smooth="yes"/>
      <point x="564" y="1108" type="line" smooth="yes"/>
      <point x="564" y="1192"/>
      <point x="558" y="1296"/>
      <point x="472" y="1296" type="curve" smooth="no"/>
      <point x="364" y="1290"/>
      <point x="366" y="1106"/>
    </contour>
    <contour>
      <point x="528" y="-14" type="line" smooth="no"/>
      <point x="1168" y="1154" type="line" smooth="no"/>
      <point x="1330" y="1448" type="line" smooth="no"/>
      <point x="1376" y="1530" type="line" smooth="no"/>
      <point x="1382" y="1536"/>
      <point x="1386" y="1542"/>
      <point x="1392" y="1544" type="curve" smooth="no"/>
      <point x="1456" y="1544" type="line" smooth="yes"/>
      <point x="1534" y="1544"/>
      <point x="1620" y="1538"/>
      <point x="1620" y="1536" type="curve" smooth="yes"/>
      <point x="1526" y="1354" type="line" smooth="no"/>
      <point x="1344" y="996" type="line" smooth="no"/>
      <point x="1220" y="766" type="line" smooth="yes"/>
      <point x="1180" y="690"/>
      <point x="1136" y="616"/>
      <point x="1104" y="536" type="curve" smooth="no"/>
      <point x="808" y="-60" type="line" smooth="yes"/>
      <point x="798" y="-82"/>
      <point x="744" y="-88"/>
      <point x="680" y="-88" type="curve" smooth="yes"/>
      <point x="632" y="-88"/>
      <point x="588" y="-84"/>
      <point x="556" y="-84" type="curve" smooth="no"/>
    </contour>
    <contour>
      <point x="1236" y="434" type="curve" smooth="yes"/>
      <point x="1236" y="460" type="line" smooth="no"/>
      <point x="1246" y="590"/>
      <point x="1268" y="750"/>
      <point x="1372" y="836" type="curve" smooth="yes"/>
      <point x="1468" y="916"/>
      <point x="1564" y="958"/>
      <point x="1688" y="958" type="curve" smooth="yes"/>
      <point x="1896" y="958"/>
      <point x="2136" y="846"/>
      <point x="2136" y="456" type="curve" smooth="yes"/>
      <point x="2136" y="112"/>
      <point x="1932" y="-60"/>
      <point x="1670" y="-60" type="curve" smooth="yes"/>
      <point x="1306" y="-60"/>
      <point x="1236" y="212"/>
    </contour>
    <contour>
      <point x="1582" y="412" type="line" smooth="yes"/>
      <point x="1582" y="324"/>
      <point x="1590" y="174"/>
      <point x="1692" y="174" type="curve" smooth="yes"/>
      <point x="1774" y="174"/>
      <point x="1786" y="280"/>
      <point x="1786" y="356" type="curve" smooth="yes"/>
      <point x="1786" y="394"/>
      <point x="1784" y="434"/>
      <point x="1784" y="472" type="curve" smooth="yes"/>
      <point x="1784" y="498" type="line" smooth="no"/>
      <point x="1786" y="508"/>
      <point x="1786" y="518"/>
      <point x="1786" y="532" type="curve" smooth="yes"/>
      <point x="1786" y="608"/>
      <point x="1770" y="716"/>
      <point x="1686" y="716" type="curve" smooth="yes"/>
      <point x="1684" y="716" type="line" smooth="yes"/>
      <point x="1580" y="716"/>
      <point x="1582" y="524"/>
      <point x="1582" y="446" type="curve" smooth="yes"/>
    </contour>
  </outline>
</glyph>
<glyph name="ampersand" format="1">
  <advance width="1814"/>
  <unicode hex="0026"/>
  <outline>
    <contour>
      <point x="16" y="376" type="curve" smooth="yes"/>
      <point x="16" y="596"/>
      <point x="172" y="728"/>
      <point x="376" y="804" type="curve" smooth="no"/>
      <point x="260" y="878"/>
      <point x="164" y="1010"/>
      <point x="164" y="1148" type="curve" smooth="yes"/>
      <point x="164" y="1236"/>
      <point x="204" y="1330"/>
      <point x="268" y="1388" type="curve" smooth="yes"/>
      <point x="340" y="1454"/>
      <point x="528" y="1532"/>
      <point x="748" y="1532" type="curve" smooth="yes"/>
      <point x="1042" y="1532"/>
      <point x="1372" y="1444"/>
      <point x="1372" y="1164" type="curve" smooth="yes"/>
      <point x="1372" y="1002"/>
      <point x="1258" y="880"/>
      <point x="1088" y="764" type="curve" smooth="no"/>
      <point x="1152" y="706" type="line" smooth="no"/>
      <point x="1240" y="624" type="line" smooth="no"/>
      <point x="1256" y="646"/>
      <point x="1268" y="670"/>
      <point x="1274" y="694" type="curve" smooth="yes"/>
      <point x="1286" y="740"/>
      <point x="1264" y="800"/>
      <point x="1362" y="800" type="curve" smooth="yes"/>
      <point x="1480" y="800" type="line" smooth="yes"/>
      <point x="1530" y="800"/>
      <point x="1582" y="798"/>
      <point x="1636" y="798" type="curve" smooth="yes"/>
      <point x="1682" y="798" type="line" smooth="no"/>
      <point x="1696" y="800"/>
      <point x="1712" y="800"/>
      <point x="1726" y="800" type="curve" smooth="no"/>
      <point x="1748" y="796"/>
      <point x="1756" y="788"/>
      <point x="1760" y="764" type="curve" smooth="no"/>
      <point x="1756" y="724" type="line" smooth="yes"/>
      <point x="1742" y="580"/>
      <point x="1682" y="428"/>
      <point x="1568" y="312" type="curve" smooth="no"/>
      <point x="1684" y="196" type="line" smooth="no"/>
      <point x="1718" y="156"/>
      <point x="1756" y="116"/>
      <point x="1790" y="78" type="curve" smooth="yes"/>
      <point x="1808" y="56"/>
      <point x="1848" y="28"/>
      <point x="1848" y="0" type="curve" smooth="yes"/>
      <point x="1848" y="-18"/>
      <point x="1836" y="-30"/>
      <point x="1810" y="-32" type="curve" smooth="no"/>
      <point x="1476" y="-32" type="line" smooth="yes"/>
      <point x="1404" y="-32"/>
      <point x="1338" y="-30"/>
      <point x="1266" y="-28" type="curve" smooth="no"/>
      <point x="1232" y="-12"/>
      <point x="1204" y="18"/>
      <point x="1172" y="40" type="curve" smooth="no"/>
      <point x="1132" y="22" type="line" smooth="yes"/>
      <point x="1026" y="-26"/>
      <point x="906" y="-58"/>
      <point x="784" y="-68" type="curve" smooth="no"/>
      <point x="696" y="-70" type="line" smooth="no"/>
      <point x="296" y="-70"/>
      <point x="16" y="122"/>
    </contour>
    <contour>
      <point x="520" y="400" type="curve" smooth="yes"/>
      <point x="520" y="284"/>
      <point x="646" y="232"/>
      <point x="740" y="232" type="curve" smooth="yes"/>
      <point x="820" y="232"/>
      <point x="890" y="258"/>
      <point x="960" y="296" type="curve" smooth="no"/>
      <point x="940" y="318"/>
      <point x="920" y="338"/>
      <point x="900" y="356" type="curve" smooth="yes"/>
      <point x="790" y="458" type="line" smooth="no"/>
      <point x="740" y="506" type="line" smooth="no"/>
      <point x="686" y="556" type="line" smooth="yes"/>
      <point x="668" y="572"/>
      <point x="650" y="588"/>
      <point x="644" y="588" type="curve" smooth="no"/>
      <point x="584" y="560"/>
      <point x="520" y="476"/>
    </contour>
    <contour>
      <point x="610" y="1144" type="curve" smooth="no"/>
      <point x="620" y="1074"/>
      <point x="698" y="1006"/>
      <point x="760" y="976" type="curve" smooth="no"/>
      <point x="776" y="970" type="line" smooth="no"/>
      <point x="782" y="970"/>
      <point x="782" y="972"/>
      <point x="788" y="972" type="curve" smooth="no"/>
      <point x="836" y="1010" type="line" smooth="yes"/>
      <point x="882" y="1046"/>
      <point x="928" y="1102"/>
      <point x="928" y="1156" type="curve" smooth="yes"/>
      <point x="928" y="1246"/>
      <point x="826" y="1276"/>
      <point x="760" y="1276" type="curve" smooth="yes"/>
      <point x="686" y="1276"/>
      <point x="610" y="1228"/>
    </contour>
  </outline>
</glyph>
<glyph name="quotesingle" format="1">
  <advance width="802"/>
  <unicode hex="0027"/>
  <outline>
    <contour>
      <point x="178" y="872" type="curve" smooth="no"/>
      <point x="194" y="1388" type="line" smooth="yes"/>
      <point x="194" y="1394"/>
      <point x="194" y="1402"/>
      <point x="192" y="1412" type="curve" smooth="no"/>
      <point x="192" y="1440" type="line" smooth="yes"/>
      <point x="192" y="1468"/>
      <point x="194" y="1504"/>
      <point x="216" y="1508" type="curve" smooth="no"/>
      <point x="282" y="1508" type="line" smooth="yes"/>
      <point x="380" y="1508"/>
      <point x="480" y="1508"/>
      <point x="582" y="1506" type="curve" smooth="yes"/>
      <point x="598" y="1504"/>
      <point x="604" y="1498"/>
      <point x="604" y="1476" type="curve" smooth="yes"/>
      <point x="606" y="1292"/>
      <point x="612" y="1092"/>
      <point x="612" y="902" type="curve" smooth="yes"/>
      <point x="612" y="844"/>
      <point x="512" y="836"/>
      <point x="388" y="836" type="curve" smooth="yes"/>
      <point x="244" y="836" type="line" smooth="no"/>
      <point x="216" y="836" type="line" smooth="no"/>
      <point x="200" y="846"/>
      <point x="188" y="858"/>
    </contour>
  </outline>
</glyph>
<glyph name="parenleft" format="1">
  <advance width="832"/>
  <unicode hex="0028"/>
  <outline>
    <contour>
      <point x="124" y="614" type="curve" smooth="no"/>
      <point x="144" y="886"/>
      <point x="324" y="1500"/>
      <point x="380" y="1500" type="curve" smooth="no"/>
      <point x="382" y="1502"/>
      <point x="386" y="1504"/>
      <point x="392" y="1504" type="curve" smooth="yes"/>
      <point x="518" y="1510"/>
      <point x="640" y="1510"/>
      <point x="766" y="1512" type="curve" smooth="no"/>
      <point x="784" y="1510"/>
      <point x="790" y="1502"/>
      <point x="796" y="1480" type="curve" smooth="no"/>
      <point x="742" y="1276" type="line" smooth="no"/>
      <point x="674" y="1048"/>
      <point x="620" y="812"/>
      <point x="620" y="602" type="curve" smooth="no"/>
      <point x="628" y="386"/>
      <point x="676" y="156"/>
      <point x="748" y="-76" type="curve" smooth="no"/>
      <point x="804" y="-276" type="line" smooth="no"/>
      <point x="796" y="-290" type="line" smooth="yes"/>
      <point x="794" y="-294"/>
      <point x="790" y="-298"/>
      <point x="786" y="-300" type="curve" smooth="no"/>
      <point x="770" y="-324" type="line" smooth="no"/>
      <point x="712" y="-324" type="line" smooth="yes"/>
      <point x="600" y="-324"/>
      <point x="496" y="-316"/>
      <point x="384" y="-316" type="curve" smooth="no"/>
      <point x="362" y="-308"/>
      <point x="332" y="-240"/>
      <point x="304" y="-166" type="curve" smooth="no"/>
      <point x="258" y="-22" type="line" smooth="no"/>
      <point x="242" y="28" type="line" smooth="no"/>
      <point x="172" y="214"/>
      <point x="130" y="398"/>
    </contour>
  </outline>
</glyph>
<glyph name="parenright" format="1">
  <advance width="834"/>
  <unicode hex="0029"/>
  <outline>
    <contour>
      <point x="24" y="1484" type="line" smooth="no"/>
      <point x="40" y="1504" type="line" smooth="yes"/>
      <point x="46" y="1512"/>
      <point x="52" y="1518"/>
      <point x="60" y="1524" type="curve" smooth="no"/>
      <point x="432" y="1524" type="line" smooth="yes"/>
      <point x="450" y="1524"/>
      <point x="464" y="1514"/>
      <point x="476" y="1492" type="curve" smooth="no"/>
      <point x="554" y="1278" type="line" smooth="no"/>
      <point x="638" y="1060"/>
      <point x="710" y="828"/>
      <point x="710" y="592" type="curve" smooth="yes"/>
      <point x="710" y="486"/>
      <point x="688" y="374"/>
      <point x="660" y="268" type="curve" smooth="no"/>
      <point x="600" y="76" type="line" smooth="no"/>
      <point x="558" y="-54" type="line" smooth="no"/>
      <point x="512" y="-182"/>
      <point x="466" y="-300"/>
      <point x="448" y="-304" type="curve" smooth="no"/>
      <point x="444" y="-304" type="line" smooth="no"/>
      <point x="388" y="-306"/>
      <point x="336" y="-308"/>
      <point x="280" y="-308" type="curve" smooth="yes"/>
      <point x="112" y="-308" type="line" smooth="yes"/>
      <point x="94" y="-308"/>
      <point x="76" y="-308"/>
      <point x="60" y="-310" type="curve" smooth="no"/>
      <point x="50" y="-306"/>
      <point x="44" y="-302"/>
      <point x="44" y="-296" type="curve" smooth="yes"/>
      <point x="44" y="-282"/>
      <point x="54" y="-262"/>
      <point x="60" y="-248" type="curve" smooth="yes"/>
      <point x="124" y="-30"/>
      <point x="210" y="302"/>
      <point x="210" y="590" type="curve" smooth="no"/>
      <point x="212" y="746"/>
      <point x="174" y="936"/>
      <point x="132" y="1096" type="curve" smooth="yes"/>
      <point x="88" y="1260" type="line" smooth="no"/>
    </contour>
  </outline>
</glyph>
<glyph name="comma" format="1">
  <advance width="734"/>
  <unicode hex="002c"/>
  <outline>
    <contour>
      <point x="-8" y="-206" type="line" smooth="no"/>
      <point x="-2" y="-184"/>
      <point x="4" y="-154"/>
      <point x="12" y="-114" type="curve" smooth="yes"/>
      <point x="72" y="164" type="line" smooth="yes"/>
      <point x="102" y="306"/>
      <point x="144" y="440"/>
      <point x="164" y="440" type="curve" smooth="yes"/>
      <point x="186" y="442"/>
      <point x="206" y="444"/>
      <point x="226" y="444" type="curve" smooth="yes"/>
      <point x="376" y="444" type="line" smooth="yes"/>
      <point x="408" y="444"/>
      <point x="464" y="446"/>
      <point x="520" y="446" type="curve" smooth="yes"/>
      <point x="596" y="446"/>
      <point x="672" y="440"/>
      <point x="672" y="416" type="curve" smooth="yes"/>
      <point x="672" y="414"/>
      <point x="670" y="410"/>
      <point x="670" y="404" type="curve" smooth="yes"/>
      <point x="646" y="334"/>
      <point x="622" y="264"/>
      <point x="600" y="190" type="curve" smooth="yes"/>
      <point x="532" y="-32" type="line" smooth="no"/>
      <point x="468" y="-214" type="line" smooth="no"/>
      <point x="458" y="-236"/>
      <point x="352" y="-240"/>
      <point x="254" y="-240" type="curve" smooth="yes"/>
      <point x="96" y="-240" type="line" smooth="no"/>
      <point x="44" y="-240" type="line" smooth="yes"/>
      <point x="38" y="-240"/>
      <point x="30" y="-238"/>
      <point x="24" y="-236" type="curve" smooth="no"/>
    </contour>
  </outline>
</glyph>
<glyph name="zero" format="1">
  <advance width="1462"/>
  <unicode hex="0030"/>
  <outline>
    <contour>
      <point x="20" y="736" type="curve" smooth="no"/>
      <point x="20" y="1302"/>
      <point x="314" y="1518"/>
      <point x="720" y="1550" type="curve" smooth="no"/>
      <point x="736" y="1550" type="line" smooth="yes"/>
      <point x="1318" y="1550"/>
      <point x="1418" y="1080"/>
      <point x="1418" y="720" type="curve" smooth="yes"/>
      <point x="1418" y="202"/>
      <point x="1108" y="-56"/>
      <point x="708" y="-56" type="curve" smooth="yes"/>
      <point x="280" y="-56"/>
      <point x="90" y="204"/>
      <point x="42" y="500" type="curve" smooth="yes"/>
      <point x="26" y="590"/>
      <point x="24" y="678"/>
    </contour>
    <contour>
      <point x="556" y="696" type="curve" smooth="yes"/>
      <point x="556" y="548"/>
      <point x="564" y="300"/>
      <point x="712" y="300" type="curve" smooth="yes"/>
      <point x="886" y="300"/>
      <point x="880" y="562"/>
      <point x="880" y="700" type="curve" smooth="no"/>
      <point x="884" y="734"/>
      <point x="884" y="770"/>
      <point x="884" y="806" type="curve" smooth="yes"/>
      <point x="884" y="892"/>
      <point x="908" y="1188"/>
      <point x="732" y="1188" type="curve" smooth="yes"/>
      <point x="550" y="1188"/>
      <point x="556" y="896"/>
    </contour>
  </outline>
</glyph>
<glyph name="two" format="1">
  <advance width="1458"/>
  <unicode hex="0032"/>
  <outline>
    <contour>
      <point x="60" y="1018" type="curve" smooth="no"/>
      <point x="66" y="1076"/>
      <point x="68" y="1134"/>
      <point x="84" y="1192" type="curve" smooth="yes"/>
      <point x="158" y="1456"/>
      <point x="460" y="1544"/>
      <point x="734" y="1544" type="curve" smooth="yes"/>
      <point x="1074" y="1544"/>
      <point x="1400" y="1408"/>
      <point x="1400" y="1076" type="curve" smooth="yes"/>
      <point x="1400" y="778"/>
      <point x="1152" y="592"/>
      <point x="908" y="432" type="curve" smooth="no"/>
      <point x="898" y="422"/>
      <point x="884" y="414"/>
      <point x="874" y="404" type="curve" smooth="no"/>
      <point x="1012" y="404"/>
      <point x="1152" y="412"/>
      <point x="1296" y="412" type="curve" smooth="yes"/>
      <point x="1396" y="412"/>
      <point x="1414" y="334"/>
      <point x="1414" y="232" type="curve" smooth="yes"/>
      <point x="1414" y="176"/>
      <point x="1408" y="108"/>
      <point x="1408" y="42" type="curve" smooth="yes"/>
      <point x="1408" y="24" type="line" smooth="yes"/>
      <point x="1408" y="-2"/>
      <point x="1406" y="-18"/>
      <point x="1368" y="-24" type="curve" smooth="no"/>
      <point x="1296" y="-22" type="line" smooth="yes"/>
      <point x="1174" y="-18"/>
      <point x="1062" y="-18"/>
      <point x="972" y="-16" type="curve" smooth="no"/>
      <point x="678" y="-16"/>
      <point x="394" y="-22"/>
      <point x="98" y="-32" type="curve" smooth="no"/>
      <point x="84" y="-12" type="line" smooth="no"/>
      <point x="64" y="0"/>
      <point x="60" y="40"/>
      <point x="60" y="84" type="curve" smooth="yes"/>
      <point x="60" y="124"/>
      <point x="64" y="166"/>
      <point x="64" y="196" type="curve" smooth="yes"/>
      <point x="64" y="376" type="line" smooth="yes"/>
      <point x="64" y="392"/>
      <point x="84" y="412"/>
      <point x="132" y="444" type="curve" smooth="yes"/>
      <point x="368" y="604" type="line" smooth="no"/>
      <point x="526" y="714" type="line" smooth="no"/>
      <point x="588" y="762" type="line" smooth="yes"/>
      <point x="624" y="790"/>
      <point x="804" y="926"/>
      <point x="804" y="1062" type="curve" smooth="yes"/>
      <point x="804" y="1118"/>
      <point x="768" y="1152"/>
      <point x="714" y="1152" type="curve" smooth="yes"/>
      <point x="590" y="1152"/>
      <point x="642" y="1004"/>
      <point x="580" y="988" type="curve" smooth="no"/>
      <point x="490" y="988" type="line" smooth="no"/>
      <point x="154" y="988" type="line" smooth="no"/>
      <point x="116" y="988" type="line" smooth="yes"/>
      <point x="86" y="988"/>
      <point x="60" y="992"/>
    </contour>
  </outline>
</glyph>
<glyph name="three" format="1">
  <advance width="1454"/>
  <unicode hex="0033"/>
  <outline>
    <contour>
      <point x="16" y="448" type="curve" smooth="yes"/>
      <point x="16" y="466"/>
      <point x="26" y="480"/>
      <point x="48" y="480" type="curve" smooth="yes"/>
      <point x="524" y="488" type="line" smooth="yes"/>
      <point x="546" y="488"/>
      <point x="558" y="478"/>
      <point x="560" y="458" type="curve" smooth="no"/>
      <point x="560" y="456" type="line" smooth="no"/>
      <point x="570" y="378"/>
      <point x="598" y="324"/>
      <point x="682" y="324" type="curve" smooth="yes"/>
      <point x="684" y="324" type="line" smooth="yes"/>
      <point x="756" y="324"/>
      <point x="796" y="372"/>
      <point x="796" y="436" type="curve" smooth="yes"/>
      <point x="796" y="574"/>
      <point x="680" y="584"/>
      <point x="590" y="584" type="curve" smooth="yes"/>
      <point x="546" y="584" type="line" smooth="yes"/>
      <point x="492" y="584"/>
      <point x="478" y="618"/>
      <point x="478" y="678" type="curve" smooth="yes"/>
      <point x="478" y="742" type="line" smooth="yes"/>
      <point x="478" y="842"/>
      <point x="486" y="904"/>
      <point x="532" y="904" type="curve" smooth="yes"/>
      <point x="612" y="904" type="line" smooth="yes"/>
      <point x="704" y="904"/>
      <point x="780" y="928"/>
      <point x="780" y="1060" type="curve" smooth="yes"/>
      <point x="780" y="1116"/>
      <point x="746" y="1162"/>
      <point x="688" y="1162" type="curve" smooth="yes"/>
      <point x="622" y="1162"/>
      <point x="600" y="1126"/>
      <point x="592" y="1088" type="curve" smooth="yes"/>
      <point x="584" y="1048" type="line" smooth="yes"/>
      <point x="578" y="1022"/>
      <point x="572" y="1002"/>
      <point x="548" y="992" type="curve" smooth="no"/>
      <point x="422" y="992"/>
      <point x="296" y="994"/>
      <point x="170" y="1000" type="curve" smooth="yes"/>
      <point x="154" y="1000"/>
      <point x="136" y="998"/>
      <point x="118" y="998" type="curve" smooth="yes"/>
      <point x="76" y="998"/>
      <point x="40" y="1004"/>
      <point x="40" y="1036" type="curve" smooth="no"/>
      <point x="46" y="1092"/>
      <point x="50" y="1148"/>
      <point x="66" y="1206" type="curve" smooth="yes"/>
      <point x="78" y="1246"/>
      <point x="122" y="1374"/>
      <point x="248" y="1448" type="curve" smooth="yes"/>
      <point x="400" y="1538"/>
      <point x="604" y="1544"/>
      <point x="776" y="1544" type="curve" smooth="yes"/>
      <point x="1018" y="1544"/>
      <point x="1354" y="1410"/>
      <point x="1354" y="1112" type="curve" smooth="yes"/>
      <point x="1354" y="898"/>
      <point x="1228" y="828"/>
      <point x="1100" y="788" type="curve" smooth="no"/>
      <point x="1314" y="722"/>
      <point x="1388" y="606"/>
      <point x="1388" y="440" type="curve" smooth="yes"/>
      <point x="1388" y="-6"/>
      <point x="926" y="-58"/>
      <point x="692" y="-58" type="curve" smooth="yes"/>
      <point x="464" y="-58"/>
      <point x="264" y="-20"/>
      <point x="128" y="122" type="curve" smooth="no"/>
      <point x="48" y="192"/>
      <point x="22" y="322"/>
    </contour>
  </outline>
</glyph>
<glyph name="four" format="1">
  <advance width="1432"/>
  <unicode hex="0034"/>
  <outline>
    <contour>
      <point x="-8" y="248" type="curve" smooth="no"/>
      <point x="-8" y="444" type="line" smooth="no"/>
      <point x="-6" y="524" type="line" smooth="yes"/>
      <point x="-6" y="532"/>
      <point x="-8" y="540"/>
      <point x="-8" y="548" type="curve" smooth="yes"/>
      <point x="-8" y="658"/>
      <point x="78" y="788"/>
      <point x="128" y="874" type="curve" smooth="no"/>
      <point x="290" y="1132" type="line" smooth="no"/>
      <point x="508" y="1476" type="line" smooth="yes"/>
      <point x="522" y="1496"/>
      <point x="600" y="1494"/>
      <point x="638" y="1496" type="curve" smooth="yes"/>
      <point x="886" y="1502" type="line" smooth="yes"/>
      <point x="940" y="1504"/>
      <point x="992" y="1504"/>
      <point x="1046" y="1504" type="curve" smooth="yes"/>
      <point x="1228" y="1504" type="line" smooth="no"/>
      <point x="1242" y="1502"/>
      <point x="1250" y="1498"/>
      <point x="1260" y="1492" type="curve" smooth="no"/>
      <point x="1260" y="1432" type="line" smooth="yes"/>
      <point x="1260" y="1246"/>
      <point x="1252" y="1064"/>
      <point x="1252" y="878" type="curve" smooth="yes"/>
      <point x="1252" y="832" type="line" smooth="yes"/>
      <point x="1252" y="816"/>
      <point x="1252" y="800"/>
      <point x="1254" y="784" type="curve" smooth="no"/>
      <point x="1254" y="776" type="line" smooth="yes"/>
      <point x="1254" y="766"/>
      <point x="1254" y="754"/>
      <point x="1252" y="744" type="curve" smooth="no"/>
      <point x="1252" y="708" type="line" smooth="yes"/>
      <point x="1252" y="672"/>
      <point x="1258" y="634"/>
      <point x="1296" y="634" type="curve" smooth="yes"/>
      <point x="1322" y="634"/>
      <point x="1354" y="636"/>
      <point x="1380" y="636" type="curve" smooth="yes"/>
      <point x="1422" y="636"/>
      <point x="1432" y="630"/>
      <point x="1432" y="576" type="curve" smooth="yes"/>
      <point x="1432" y="574"/>
      <point x="1430" y="572"/>
      <point x="1428" y="572" type="curve" smooth="no"/>
      <point x="1428" y="554"/>
      <point x="1434" y="442"/>
      <point x="1434" y="336" type="curve" smooth="yes"/>
      <point x="1434" y="248"/>
      <point x="1430" y="212"/>
      <point x="1400" y="212" type="curve" smooth="yes"/>
      <point x="1260" y="212" type="line" smooth="no"/>
      <point x="1262" y="150"/>
      <point x="1264" y="90"/>
      <point x="1264" y="32" type="curve" smooth="yes"/>
      <point x="1264" y="-4"/>
      <point x="1264" y="-24"/>
      <point x="1224" y="-28" type="curve" smooth="no"/>
      <point x="1030" y="-28" type="line" smooth="yes"/>
      <point x="922" y="-28"/>
      <point x="818" y="-26"/>
      <point x="706" y="-34" type="curve" smooth="no"/>
      <point x="672" y="8" type="line" smooth="no"/>
      <point x="672" y="224" type="line" smooth="yes"/>
      <point x="672" y="240"/>
      <point x="654" y="244"/>
      <point x="628" y="244" type="curve" smooth="yes"/>
      <point x="594" y="244"/>
      <point x="546" y="238"/>
      <point x="508" y="226" type="curve" smooth="yes"/>
      <point x="476" y="216" type="line" smooth="no"/>
      <point x="156" y="216" type="line" smooth="no"/>
      <point x="88" y="212" type="line" smooth="yes"/>
      <point x="56" y="212" type="line" smooth="yes"/>
      <point x="28" y="212"/>
      <point x="8" y="216"/>
    </contour>
    <contour>
      <point x="406" y="628" type="line" smooth="no"/>
      <point x="418" y="602" type="line" smooth="no"/>
      <point x="420" y="592"/>
      <point x="424" y="584"/>
      <point x="430" y="576" type="curve" smooth="no"/>
      <point x="448" y="576" type="line" smooth="yes"/>
      <point x="538" y="576"/>
      <point x="626" y="582"/>
      <point x="714" y="582" type="curve" smooth="no"/>
      <point x="732" y="590"/>
      <point x="738" y="600"/>
      <point x="744" y="618" type="curve" smooth="no"/>
      <point x="744" y="656" type="line" smooth="no"/>
      <point x="742" y="666"/>
      <point x="742" y="678"/>
      <point x="742" y="692" type="curve" smooth="yes"/>
      <point x="742" y="698"/>
      <point x="744" y="770"/>
      <point x="744" y="854" type="curve" smooth="yes"/>
      <point x="744" y="978"/>
      <point x="738" y="1140"/>
      <point x="704" y="1140" type="curve" smooth="no"/>
      <point x="684" y="1124" type="line" smooth="no"/>
      <point x="544" y="876" type="line" smooth="no"/>
    </contour>
  </outline>
</glyph>
<glyph name="six" format="1">
  <advance width="1456"/>
  <unicode hex="0036"/>
  <outline>
    <contour>
      <point x="44" y="752" type="curve" smooth="yes"/>
      <point x="44" y="1226"/>
      <point x="318" y="1550"/>
      <point x="772" y="1556" type="curve" smooth="no"/>
      <point x="1240" y="1556"/>
      <point x="1332" y="1336"/>
      <point x="1348" y="1118" type="curve" smooth="yes"/>
      <point x="1348" y="1104"/>
      <point x="1348" y="1102"/>
      <point x="1332" y="1096" type="curve" smooth="yes"/>
      <point x="1276" y="1080"/>
      <point x="870" y="1076"/>
      <point x="862" y="1076" type="curve" smooth="yes"/>
      <point x="844" y="1076"/>
      <point x="822" y="1080"/>
      <point x="822" y="1092" type="curve" smooth="yes"/>
      <point x="820" y="1144" type="line" smooth="no"/>
      <point x="814" y="1156"/>
      <point x="798" y="1162"/>
      <point x="774" y="1162" type="curve" smooth="yes"/>
      <point x="638" y="1162"/>
      <point x="612" y="1018"/>
      <point x="612" y="900" type="curve" smooth="yes"/>
      <point x="612" y="884" type="line" smooth="no"/>
      <point x="682" y="966"/>
      <point x="800" y="990"/>
      <point x="900" y="990" type="curve" smooth="yes"/>
      <point x="1194" y="990"/>
      <point x="1412" y="790"/>
      <point x="1412" y="512" type="curve" smooth="yes"/>
      <point x="1412" y="104"/>
      <point x="1078" y="-40"/>
      <point x="788" y="-52" type="curve" smooth="no"/>
      <point x="644" y="-52"/>
      <point x="424" y="-40"/>
      <point x="296" y="76" type="curve" smooth="no"/>
      <point x="172" y="196"/>
      <point x="108" y="290"/>
      <point x="76" y="448" type="curve" smooth="yes"/>
      <point x="54" y="550"/>
      <point x="44" y="664"/>
    </contour>
    <contour>
      <point x="596" y="466" type="curve" smooth="yes"/>
      <point x="596" y="406"/>
      <point x="614" y="322"/>
      <point x="668" y="292" type="curve" smooth="no"/>
      <point x="680" y="288" type="line" smooth="yes"/>
      <point x="698" y="280"/>
      <point x="742" y="264"/>
      <point x="756" y="264" type="curve" smooth="yes"/>
      <point x="896" y="264"/>
      <point x="928" y="390"/>
      <point x="928" y="490" type="curve" smooth="no"/>
      <point x="922" y="610"/>
      <point x="886" y="692"/>
      <point x="764" y="692" type="curve" smooth="yes"/>
      <point x="624" y="692"/>
      <point x="596" y="584"/>
    </contour>
  </outline>
</glyph>
<glyph name="semicolon" format="1">
  <advance width="732"/>
  <unicode hex="003b"/>
  <outline>
    <contour>
      <point x="-8" y="-180" type="curve" smooth="no"/>
      <point x="8" y="-96" type="line" smooth="yes"/>
      <point x="20" y="-30"/>
      <point x="26" y="12"/>
      <point x="60" y="138" type="curve" smooth="no"/>
      <point x="80" y="224" type="line" smooth="yes"/>
      <point x="108" y="344"/>
      <point x="144" y="460"/>
      <point x="164" y="460" type="curve" smooth="yes"/>
      <point x="340" y="460" type="line" smooth="no"/>
      <point x="392" y="460" type="line" smooth="yes"/>
      <point x="430" y="460"/>
      <point x="468" y="462"/>
      <point x="524" y="462" type="curve" smooth="yes"/>
      <point x="606" y="462"/>
      <point x="670" y="452"/>
      <point x="670" y="432" type="curve" smooth="yes"/>
      <point x="670" y="420" type="line" smooth="no"/>
      <point x="532" y="0" type="line" smooth="no"/>
      <point x="518" y="-48" type="line" smooth="no"/>
      <point x="462" y="-184" type="line" smooth="yes"/>
      <point x="452" y="-206"/>
      <point x="342" y="-212"/>
      <point x="234" y="-212" type="curve" smooth="yes"/>
      <point x="164" y="-212"/>
      <point x="96" y="-208"/>
      <point x="48" y="-208" type="curve" smooth="yes"/>
      <point x="26" y="-208" type="line" smooth="no"/>
      <point x="14" y="-200"/>
      <point x="2" y="-190"/>
    </contour>
    <contour>
      <point x="126" y="664" type="curve" smooth="yes"/>
      <point x="126" y="666"/>
      <point x="126" y="670"/>
      <point x="128" y="672" type="curve" smooth="yes"/>
      <point x="130" y="772" type="line" smooth="yes"/>
      <point x="130" y="794"/>
      <point x="128" y="1056"/>
      <point x="160" y="1056" type="curve" smooth="yes"/>
      <point x="202" y="1056" type="line" smooth="yes"/>
      <point x="298" y="1056"/>
      <point x="390" y="1060"/>
      <point x="492" y="1060" type="curve" smooth="yes"/>
      <point x="574" y="1060"/>
      <point x="666" y="1056"/>
      <point x="666" y="1036" type="curve" smooth="yes"/>
      <point x="672" y="900"/>
      <point x="672" y="778"/>
      <point x="672" y="644" type="curve" smooth="yes"/>
      <point x="672" y="620"/>
      <point x="672" y="596"/>
      <point x="658" y="592" type="curve" smooth="yes"/>
      <point x="648" y="590" type="line" smooth="no"/>
      <point x="568" y="588"/>
      <point x="488" y="582"/>
      <point x="408" y="580" type="curve" smooth="yes"/>
      <point x="164" y="572" type="line" smooth="no"/>
      <point x="130" y="614" type="line" smooth="no"/>
      <point x="128" y="630"/>
      <point x="126" y="646"/>
    </contour>
  </outline>
</glyph>
<glyph name="less" format="1">
  <advance width="1270"/>
  <unicode hex="003c"/>
  <outline>
    <contour>
      <point x="78" y="454" type="curve" smooth="yes"/>
      <point x="78" y="480"/>
      <point x="80" y="506"/>
      <point x="80" y="532" type="curve" smooth="yes"/>
      <point x="80" y="550"/>
      <point x="78" y="572"/>
      <point x="78" y="590" type="curve" smooth="yes"/>
      <point x="78" y="632"/>
      <point x="84" y="668"/>
      <point x="116" y="700" type="curve" smooth="no"/>
      <point x="1074" y="1064" type="line" smooth="no"/>
      <point x="1146" y="1088" type="line" smooth="no"/>
      <point x="1176" y="1088"/>
      <point x="1180" y="1050"/>
      <point x="1180" y="1000" type="curve" smooth="yes"/>
      <point x="1180" y="928"/>
      <point x="1186" y="798"/>
      <point x="1160" y="780" type="curve" smooth="no"/>
      <point x="512" y="524" type="line" smooth="no"/>
      <point x="816" y="406" type="line" smooth="no"/>
      <point x="1124" y="292" type="line" smooth="yes"/>
      <point x="1174" y="274"/>
      <point x="1184" y="266"/>
      <point x="1184" y="148" type="curve" smooth="yes"/>
      <point x="1184" y="52"/>
      <point x="1186" y="-36"/>
      <point x="1146" y="-36" type="curve" smooth="yes"/>
      <point x="1142" y="-36"/>
      <point x="1138" y="-36"/>
      <point x="1132" y="-34" type="curve" smooth="yes"/>
      <point x="680" y="146" type="line" smooth="no"/>
      <point x="220" y="324" type="line" smooth="no"/>
      <point x="158" y="344"/>
      <point x="78" y="358"/>
    </contour>
  </outline>
</glyph>
<glyph name="equal" format="1">
  <advance width="1272"/>
  <unicode hex="003d"/>
  <outline>
    <contour>
      <point x="82" y="238" type="curve" smooth="yes"/>
      <point x="82" y="260"/>
      <point x="84" y="286"/>
      <point x="84" y="308" type="curve" smooth="yes"/>
      <point x="84" y="360" type="line" smooth="yes"/>
      <point x="84" y="394"/>
      <point x="88" y="430"/>
      <point x="106" y="456" type="curve" smooth="no"/>
      <point x="238" y="456"/>
      <point x="374" y="442"/>
      <point x="506" y="436" type="curve" smooth="yes"/>
      <point x="624" y="432"/>
      <point x="746" y="426"/>
      <point x="868" y="428" type="curve" smooth="no"/>
      <point x="904" y="428" type="line" smooth="yes"/>
      <point x="990" y="428"/>
      <point x="1068" y="432"/>
      <point x="1148" y="436" type="curve" smooth="yes"/>
      <point x="1172" y="436"/>
      <point x="1172" y="354"/>
      <point x="1172" y="286" type="curve" smooth="yes"/>
      <point x="1172" y="220" type="line" smooth="yes"/>
      <point x="1172" y="206"/>
      <point x="1174" y="190"/>
      <point x="1174" y="174" type="curve" smooth="yes"/>
      <point x="1174" y="148"/>
      <point x="1168" y="120"/>
      <point x="1142" y="120" type="curve" smooth="yes"/>
      <point x="118" y="100" type="line" smooth="no"/>
      <point x="84" y="136" type="line" smooth="no"/>
      <point x="82" y="158"/>
      <point x="80" y="182"/>
      <point x="80" y="206" type="curve" smooth="yes"/>
      <point x="80" y="216"/>
      <point x="82" y="228"/>
    </contour>
    <contour>
      <point x="84" y="704" type="line" smooth="no"/>
      <point x="84" y="812" type="line" smooth="no"/>
      <point x="84" y="860" type="line" smooth="yes"/>
      <point x="84" y="904"/>
      <point x="88" y="936"/>
      <point x="116" y="936" type="curve" smooth="yes"/>
      <point x="212" y="936" type="line" smooth="yes"/>
      <point x="526" y="936"/>
      <point x="834" y="932"/>
      <point x="1148" y="932" type="curve" smooth="yes"/>
      <point x="1168" y="932"/>
      <point x="1172" y="842"/>
      <point x="1172" y="776" type="curve" smooth="yes"/>
      <point x="1172" y="668" type="line" smooth="yes"/>
      <point x="1172" y="644"/>
      <point x="1168" y="624"/>
      <point x="1158" y="624" type="curve" smooth="yes"/>
      <point x="1154" y="624"/>
      <point x="1148" y="628"/>
      <point x="1142" y="636" type="curve" smooth="no"/>
      <point x="116" y="600" type="line" smooth="no"/>
      <point x="84" y="636" type="line" smooth="no"/>
    </contour>
  </outline>
</glyph>
<glyph name="greater" format="1">
  <advance width="1268"/>
  <unicode hex="003e"/>
  <outline>
    <contour>
      <point x="78" y="4" type="line" smooth="no"/>
      <point x="78" y="46"/>
      <point x="78" y="88"/>
      <point x="80" y="128" type="curve" smooth="yes"/>
      <point x="88" y="252" type="line" smooth="yes"/>
      <point x="90" y="278"/>
      <point x="216" y="338"/>
      <point x="362" y="392" type="curve" smooth="yes"/>
      <point x="638" y="496" type="line" smooth="yes"/>
      <point x="680" y="512"/>
      <point x="710" y="520"/>
      <point x="732" y="532" type="curve" smooth="no"/>
      <point x="420" y="660" type="line" smooth="no"/>
      <point x="264" y="724" type="line" smooth="yes"/>
      <point x="210" y="746"/>
      <point x="158" y="766"/>
      <point x="104" y="784" type="curve" smooth="no"/>
      <point x="94" y="790"/>
      <point x="92" y="810"/>
      <point x="92" y="832" type="curve" smooth="yes"/>
      <point x="92" y="860" type="line" smooth="yes"/>
      <point x="92" y="876"/>
      <point x="90" y="914"/>
      <point x="90" y="956" type="curve" smooth="yes"/>
      <point x="90" y="1020"/>
      <point x="94" y="1082"/>
      <point x="110" y="1082" type="curve" smooth="yes"/>
      <point x="114" y="1082"/>
      <point x="118" y="1078"/>
      <point x="122" y="1078" type="curve" smooth="yes"/>
      <point x="1044" y="724" type="line" smooth="no"/>
      <point x="1162" y="674" type="line" smooth="yes"/>
      <point x="1186" y="664"/>
      <point x="1184" y="530"/>
      <point x="1184" y="456" type="curve" smooth="yes"/>
      <point x="1184" y="424"/>
      <point x="1182" y="402"/>
      <point x="1176" y="394" type="curve" smooth="no"/>
      <point x="1162" y="382" type="line" smooth="yes"/>
      <point x="1158" y="378"/>
      <point x="1156" y="376"/>
      <point x="1154" y="376" type="curve" smooth="yes"/>
      <point x="364" y="52" type="line" smooth="no"/>
      <point x="244" y="2" type="line" smooth="yes"/>
      <point x="204" y="-14"/>
      <point x="164" y="-28"/>
      <point x="122" y="-42" type="curve" smooth="no"/>
    </contour>
  </outline>
</glyph>
<glyph name="A" format="1">
  <advance width="1638"/>
  <unicode hex="0041"/>
  <outline>
    <contour>
      <point x="-48" y="0" type="curve" smooth="no"/>
      <point x="-14" y="126"/>
      <point x="24" y="250"/>
      <point x="64" y="374" type="curve" smooth="yes"/>
      <point x="306" y="1112" type="line" smooth="no"/>
      <point x="428" y="1484" type="line" smooth="no"/>
      <point x="434" y="1494"/>
      <point x="438" y="1502"/>
      <point x="444" y="1508" type="curve" smooth="no"/>
      <point x="612" y="1508" type="line" smooth="yes"/>
      <point x="730" y="1508"/>
      <point x="842" y="1512"/>
      <point x="960" y="1512" type="curve" smooth="no"/>
      <point x="1052" y="1508" type="line" smooth="yes"/>
      <point x="1068" y="1508"/>
      <point x="1096" y="1512"/>
      <point x="1128" y="1512" type="curve" smooth="yes"/>
      <point x="1168" y="1512"/>
      <point x="1206" y="1506"/>
      <point x="1206" y="1468" type="curve" smooth="no"/>
      <point x="1288" y="1240"/>
      <point x="1364" y="1014"/>
      <point x="1436" y="788" type="curve" smooth="yes"/>
      <point x="1664" y="66" type="line" smooth="yes"/>
      <point x="1670" y="46"/>
      <point x="1676" y="28"/>
      <point x="1684" y="12" type="curve" smooth="no"/>
      <point x="1684" y="-14"/>
      <point x="1666" y="-24"/>
      <point x="1612" y="-24" type="curve" smooth="yes"/>
      <point x="1520" y="-24" type="line" smooth="yes"/>
      <point x="1440" y="-24"/>
      <point x="1362" y="-26"/>
      <point x="1282" y="-26" type="curve" smooth="yes"/>
      <point x="1212" y="-26"/>
      <point x="1062" y="-42"/>
      <point x="1044" y="8" type="curve" smooth="no"/>
      <point x="1030" y="74" type="line" smooth="yes"/>
      <point x="1018" y="134"/>
      <point x="996" y="208"/>
      <point x="956" y="208" type="curve" smooth="yes"/>
      <point x="612" y="204" type="line" smooth="no"/>
      <point x="560" y="-4" type="line" smooth="no"/>
      <point x="550" y="-26"/>
      <point x="502" y="-28"/>
      <point x="448" y="-28" type="curve" smooth="yes"/>
      <point x="368" y="-28" type="line" smooth="yes"/>
      <point x="282" y="-28"/>
      <point x="198" y="-34"/>
      <point x="112" y="-34" type="curve" smooth="yes"/>
      <point x="84" y="-34" type="line" smooth="yes"/>
      <point x="50" y="-34"/>
      <point x="18" y="-36"/>
      <point x="-20" y="-36" type="curve" smooth="no"/>
      <point x="-30" y="-26"/>
      <point x="-38" y="-14"/>
    </contour>
    <contour>
      <point x="644" y="608" type="line" smooth="no"/>
      <point x="674" y="560" type="line" smooth="no"/>
      <point x="740" y="560" type="line" smooth="yes"/>
      <point x="822" y="560"/>
      <point x="952" y="568"/>
      <point x="952" y="600" type="curve" smooth="yes"/>
      <point x="952" y="646"/>
      <point x="930" y="700"/>
      <point x="920" y="748" type="curve" smooth="yes"/>
      <point x="834" y="1132" type="line" smooth="no"/>
      <point x="826" y="1154" type="line" smooth="yes"/>
      <point x="824" y="1160"/>
      <point x="818" y="1166"/>
      <point x="808" y="1172" type="curve" smooth="no"/>
      <point x="784" y="1172"/>
      <point x="752" y="1070"/>
      <point x="726" y="954" type="curve" smooth="yes"/>
      <point x="670" y="710" type="line" smooth="no"/>
    </contour>
  </outline>
</glyph>
<glyph name="B" format="1">
  <advance width="1570"/>
  <unicode hex="0042"/>
  <outline>
    <contour>
      <point x="92" y="476" type="curve" smooth="yes"/>
      <point x="92" y="728" type="line" smooth="no"/>
      <point x="88" y="854"/>
      <point x="96" y="978"/>
      <point x="96" y="1106" type="curve" smooth="yes"/>
      <point x="96" y="1186" type="line" smooth="yes"/>
      <point x="96" y="1282"/>
      <point x="100" y="1374"/>
      <point x="100" y="1472" type="curve" smooth="yes"/>
      <point x="100" y="1488"/>
      <point x="106" y="1496"/>
      <point x="118" y="1496" type="curve" smooth="yes"/>
      <point x="314" y="1508" type="line" smooth="yes"/>
      <point x="366" y="1510"/>
      <point x="420" y="1514"/>
      <point x="474" y="1514" type="curve" smooth="no"/>
      <point x="484" y="1512"/>
      <point x="492" y="1512"/>
      <point x="502" y="1512" type="curve" smooth="yes"/>
      <point x="956" y="1512" type="line" smooth="yes"/>
      <point x="1202" y="1512"/>
      <point x="1484" y="1436"/>
      <point x="1484" y="1112" type="curve" smooth="yes"/>
      <point x="1484" y="936"/>
      <point x="1400" y="846"/>
      <point x="1264" y="772" type="curve" smooth="no"/>
      <point x="1434" y="724"/>
      <point x="1528" y="606"/>
      <point x="1528" y="424" type="curve" smooth="yes"/>
      <point x="1528" y="78"/>
      <point x="1188" y="-28"/>
      <point x="928" y="-28" type="curve" smooth="yes"/>
      <point x="832" y="-28"/>
      <point x="736" y="-24"/>
      <point x="638" y="-24" type="curve" smooth="yes"/>
      <point x="468" y="-24"/>
      <point x="302" y="-26"/>
      <point x="128" y="-32" type="curve" smooth="no"/>
      <point x="102" y="10"/>
      <point x="100" y="64"/>
      <point x="98" y="136" type="curve" smooth="yes"/>
      <point x="94" y="306" type="line" smooth="yes"/>
      <point x="92" y="364"/>
      <point x="92" y="420"/>
    </contour>
    <contour>
      <point x="666" y="1148" type="curve" smooth="yes"/>
      <point x="666" y="1058"/>
      <point x="672" y="970"/>
      <point x="672" y="880" type="curve" smooth="yes"/>
      <point x="672" y="866"/>
      <point x="680" y="860"/>
      <point x="696" y="858" type="curve" smooth="no"/>
      <point x="788" y="874"/>
      <point x="932" y="860"/>
      <point x="932" y="1032" type="curve" smooth="yes"/>
      <point x="932" y="1160"/>
      <point x="818" y="1184"/>
      <point x="722" y="1184" type="curve" smooth="no"/>
      <point x="684" y="1178"/>
      <point x="666" y="1178"/>
    </contour>
    <contour>
      <point x="684" y="386" type="line" smooth="yes"/>
      <point x="684" y="352"/>
      <point x="688" y="312"/>
      <point x="692" y="312" type="curve" smooth="yes"/>
      <point x="724" y="312" type="line" smooth="yes"/>
      <point x="836" y="312"/>
      <point x="954" y="326"/>
      <point x="954" y="480" type="curve" smooth="yes"/>
      <point x="954" y="636"/>
      <point x="802" y="628"/>
      <point x="704" y="634" type="curve" smooth="no"/>
      <point x="692" y="596" type="line" smooth="no"/>
      <point x="686" y="538"/>
      <point x="684" y="484"/>
      <point x="684" y="422" type="curve" smooth="yes"/>
    </contour>
  </outline>
</glyph>
<glyph name="D" format="1">
  <advance width="1648"/>
  <unicode hex="0044"/>
  <outline>
    <contour>
      <point x="104" y="258" type="line" smooth="yes"/>
      <point x="104" y="354"/>
      <point x="106" y="448"/>
      <point x="106" y="544" type="curve" smooth="yes"/>
      <point x="106" y="830" type="line" smooth="yes"/>
      <point x="106" y="892"/>
      <point x="104" y="948"/>
      <point x="104" y="1012" type="curve" smooth="yes"/>
      <point x="104" y="1196" type="line" smooth="no"/>
      <point x="104" y="1468" type="line" smooth="yes"/>
      <point x="104" y="1494"/>
      <point x="108" y="1496"/>
      <point x="132" y="1498" type="curve" smooth="yes"/>
      <point x="220" y="1506"/>
      <point x="310" y="1512"/>
      <point x="400" y="1512" type="curve" smooth="yes"/>
      <point x="512" y="1512" type="line" smooth="yes"/>
      <point x="576" y="1512"/>
      <point x="634" y="1516"/>
      <point x="692" y="1516" type="curve" smooth="yes"/>
      <point x="922" y="1516"/>
      <point x="1204" y="1488"/>
      <point x="1374" y="1352" type="curve" smooth="no"/>
      <point x="1410" y="1320" type="line" smooth="yes"/>
      <point x="1454" y="1280"/>
      <point x="1612" y="1094"/>
      <point x="1612" y="760" type="curve" smooth="yes"/>
      <point x="1612" y="262"/>
      <point x="1258" y="-28"/>
      <point x="872" y="-28" type="curve" smooth="yes"/>
      <point x="840" y="-28" type="line" smooth="yes"/>
      <point x="754" y="-28"/>
      <point x="670" y="-24"/>
      <point x="584" y="-24" type="curve" smooth="yes"/>
      <point x="430" y="-24"/>
      <point x="282" y="-26"/>
      <point x="130" y="-32" type="curve" smooth="no"/>
      <point x="110" y="8"/>
      <point x="104" y="22"/>
      <point x="104" y="56" type="curve" smooth="yes"/>
    </contour>
    <contour>
      <point x="658" y="1076" type="line" smooth="yes"/>
      <point x="658" y="828"/>
      <point x="666" y="586"/>
      <point x="672" y="340" type="curve" smooth="yes"/>
      <point x="674" y="328"/>
      <point x="682" y="322"/>
      <point x="694" y="320" type="curve" smooth="no"/>
      <point x="748" y="320"/>
      <point x="802" y="326"/>
      <point x="852" y="336" type="curve" smooth="no"/>
      <point x="1002" y="386"/>
      <point x="1018" y="640"/>
      <point x="1018" y="758" type="curve" smooth="yes"/>
      <point x="1018" y="820" type="line" smooth="yes"/>
      <point x="1018" y="932"/>
      <point x="1002" y="1078"/>
      <point x="906" y="1146" type="curve" smooth="yes"/>
      <point x="846" y="1188"/>
      <point x="760" y="1182"/>
      <point x="690" y="1184" type="curve" smooth="no"/>
      <point x="680" y="1162"/>
      <point x="668" y="1146"/>
      <point x="658" y="1124" type="curve" smooth="no"/>
    </contour>
  </outline>
</glyph>
<glyph name="I" format="1">
  <advance width="842"/>
  <unicode hex="0049"/>
  <outline>
    <contour>
      <point x="82" y="-8" type="curve" smooth="no"/>
      <point x="84" y="130"/>
      <point x="86" y="262"/>
      <point x="96" y="400" type="curve" smooth="no"/>
      <point x="96" y="680"/>
      <point x="100" y="964"/>
      <point x="108" y="1252" type="curve" smooth="no"/>
      <point x="106" y="1294"/>
      <point x="104" y="1336"/>
      <point x="104" y="1376" type="curve" smooth="yes"/>
      <point x="104" y="1406" type="line" smooth="no"/>
      <point x="102" y="1428"/>
      <point x="100" y="1454"/>
      <point x="100" y="1478" type="curve" smooth="yes"/>
      <point x="100" y="1492"/>
      <point x="106" y="1502"/>
      <point x="118" y="1512" type="curve" smooth="no"/>
      <point x="282" y="1500"/>
      <point x="442" y="1500"/>
      <point x="618" y="1500" type="curve" smooth="yes"/>
      <point x="650" y="1500"/>
      <point x="680" y="1500"/>
      <point x="710" y="1504" type="curve" smooth="no"/>
      <point x="726" y="1502"/>
      <point x="728" y="1494"/>
      <point x="728" y="1456" type="curve" smooth="yes"/>
      <point x="722" y="1172" type="line" smooth="no"/>
      <point x="722" y="1116" type="line" smooth="yes"/>
      <point x="722" y="876"/>
      <point x="728" y="650"/>
      <point x="728" y="412" type="curve" smooth="yes"/>
      <point x="728" y="324" type="line" smooth="yes"/>
      <point x="728" y="314"/>
      <point x="736" y="304"/>
      <point x="736" y="294" type="curve" smooth="yes"/>
      <point x="744" y="6" type="line" smooth="no"/>
      <point x="738" y="-16"/>
      <point x="724" y="-24"/>
      <point x="708" y="-26" type="curve" smooth="yes"/>
      <point x="396" y="-32" type="line" smooth="yes"/>
      <point x="308" y="-34"/>
      <point x="218" y="-36"/>
      <point x="124" y="-36" type="curve" smooth="no"/>
      <point x="108" y="-30"/>
      <point x="92" y="-18"/>
    </contour>
  </outline>
</glyph>
<glyph name="J" format="1">
  <advance width="1382"/>
  <unicode hex="004a"/>
  <outline>
    <contour>
      <point x="-24" y="470" type="curve" smooth="yes"/>
      <point x="-24" y="500"/>
      <point x="-18" y="528"/>
      <point x="8" y="528" type="curve" smooth="yes"/>
      <point x="50" y="528"/>
      <point x="94" y="524"/>
      <point x="136" y="524" type="curve" smooth="yes"/>
      <point x="216" y="524" type="line" smooth="yes"/>
      <point x="226" y="524"/>
      <point x="242" y="522"/>
      <point x="252" y="522" type="curve" smooth="yes"/>
      <point x="268" y="522"/>
      <point x="282" y="524"/>
      <point x="298" y="524" type="curve" smooth="yes"/>
      <point x="464" y="520" type="line" smooth="no"/>
      <point x="576" y="520"/>
      <point x="490" y="376"/>
      <point x="588" y="376" type="curve" smooth="yes"/>
      <point x="658" y="376"/>
      <point x="660" y="466"/>
      <point x="660" y="528" type="curve" smooth="yes"/>
      <point x="660" y="540" type="line" smooth="no"/>
      <point x="660" y="536" type="line" smooth="no"/>
      <point x="656" y="536" type="line" smooth="no"/>
      <point x="654" y="728"/>
      <point x="648" y="930"/>
      <point x="648" y="1136" type="curve" smooth="yes"/>
      <point x="648" y="1192"/>
      <point x="648" y="1246"/>
      <point x="650" y="1300" type="curve" smooth="yes"/>
      <point x="654" y="1468" type="line" smooth="no"/>
      <point x="652" y="1470"/>
      <point x="652" y="1472"/>
      <point x="652" y="1476" type="curve" smooth="yes"/>
      <point x="652" y="1490"/>
      <point x="660" y="1502"/>
      <point x="676" y="1508" type="curve" smooth="no"/>
      <point x="692" y="1510" type="line" smooth="no"/>
      <point x="756" y="1510"/>
      <point x="820" y="1508"/>
      <point x="884" y="1508" type="curve" smooth="yes"/>
      <point x="980" y="1508"/>
      <point x="1072" y="1510"/>
      <point x="1168" y="1510" type="curve" smooth="yes"/>
      <point x="1262" y="1510" type="line" smooth="yes"/>
      <point x="1276" y="1510"/>
      <point x="1288" y="1500"/>
      <point x="1294" y="1482" type="curve" smooth="no"/>
      <point x="1290" y="1450"/>
      <point x="1294" y="1416"/>
      <point x="1292" y="1384" type="curve" smooth="yes"/>
      <point x="1288" y="1334" type="line" smooth="no"/>
      <point x="1282" y="1150"/>
      <point x="1282" y="976"/>
      <point x="1282" y="786" type="curve" smooth="yes"/>
      <point x="1282" y="574" type="line" smooth="no"/>
      <point x="1280" y="540"/>
      <point x="1280" y="506"/>
      <point x="1280" y="472" type="curve" smooth="yes"/>
      <point x="1280" y="46"/>
      <point x="864" y="-56"/>
      <point x="624" y="-56" type="curve" smooth="yes"/>
      <point x="528" y="-56"/>
      <point x="432" y="-52"/>
      <point x="340" y="-24" type="curve" smooth="yes"/>
      <point x="170" y="26"/>
      <point x="-24" y="160"/>
    </contour>
  </outline>
</glyph>
<glyph name="K" format="1">
  <advance width="1646"/>
  <unicode hex="004b"/>
  <outline>
    <contour>
      <point x="100" y="6" type="line" smooth="no"/>
      <point x="100" y="864" type="line" smooth="no"/>
      <point x="104" y="1344" type="line" smooth="yes"/>
      <point x="104" y="1368"/>
      <point x="100" y="1396"/>
      <point x="100" y="1428" type="curve" smooth="yes"/>
      <point x="100" y="1486"/>
      <point x="100" y="1516"/>
      <point x="162" y="1516" type="curve" smooth="yes"/>
      <point x="278" y="1516" type="line" smooth="no"/>
      <point x="304" y="1518"/>
      <point x="332" y="1514"/>
      <point x="358" y="1514" type="curve" smooth="yes"/>
      <point x="488" y="1512" type="line" smooth="yes"/>
      <point x="490" y="1512"/>
      <point x="530" y="1516"/>
      <point x="572" y="1516" type="curve" smooth="yes"/>
      <point x="634" y="1516"/>
      <point x="716" y="1508"/>
      <point x="716" y="1480" type="curve" smooth="yes"/>
      <point x="716" y="1478" type="line" smooth="no"/>
      <point x="714" y="1292"/>
      <point x="712" y="1110"/>
      <point x="712" y="924" type="curve" smooth="no"/>
      <point x="880" y="1274" type="line" smooth="no"/>
      <point x="932" y="1396" type="line" smooth="yes"/>
      <point x="950" y="1438"/>
      <point x="972" y="1482"/>
      <point x="996" y="1508" type="curve" smooth="no"/>
      <point x="1200" y="1508" type="line" smooth="yes"/>
      <point x="1288" y="1508"/>
      <point x="1624" y="1510"/>
      <point x="1624" y="1488" type="curve" smooth="yes"/>
      <point x="1624" y="1486"/>
      <point x="1622" y="1484"/>
      <point x="1620" y="1484" type="curve" smooth="yes"/>
      <point x="1426" y="1136" type="line" smooth="no"/>
      <point x="1226" y="788" type="line" smooth="no"/>
      <point x="1242" y="760" type="line" smooth="no"/>
      <point x="1264" y="732" type="line" smooth="yes"/>
      <point x="1272" y="724"/>
      <point x="1278" y="714"/>
      <point x="1284" y="704" type="curve" smooth="yes"/>
      <point x="1610" y="144" type="line" smooth="no"/>
      <point x="1652" y="76" type="line" smooth="yes"/>
      <point x="1668" y="50"/>
      <point x="1680" y="26"/>
      <point x="1680" y="12" type="curve" smooth="yes"/>
      <point x="1680" y="2"/>
      <point x="1674" y="-10"/>
      <point x="1662" y="-20" type="curve" smooth="no"/>
      <point x="1472" y="-20" type="line" smooth="no"/>
      <point x="1024" y="-20" type="line" smooth="no"/>
      <point x="1020" y="-20" type="line" smooth="yes"/>
      <point x="734" y="538" type="line" smooth="no"/>
      <point x="724" y="442"/>
      <point x="726" y="342"/>
      <point x="720" y="240" type="curve" smooth="no"/>
      <point x="720" y="4" type="line" smooth="no"/>
      <point x="714" y="-26"/>
      <point x="662" y="-32"/>
      <point x="600" y="-32" type="curve" smooth="yes"/>
      <point x="160" y="-32" type="line" smooth="yes"/>
      <point x="128" y="-32"/>
      <point x="116" y="-28"/>
      <point x="108" y="-12" type="curve" smooth="yes"/>
    </contour>
  </outline>
</glyph>
<glyph name="L" format="1">
  <advance width="1264"/>
  <unicode hex="004c"/>
  <outline>
    <contour>
      <point x="102" y="1336" type="curve" smooth="yes"/>
      <point x="102" y="1422"/>
      <point x="108" y="1502"/>
      <point x="136" y="1518" type="curve" smooth="no"/>
      <point x="146" y="1516"/>
      <point x="154" y="1516"/>
      <point x="164" y="1516" type="curve" smooth="yes"/>
      <point x="196" y="1516" type="line" smooth="yes"/>
      <point x="260" y="1516"/>
      <point x="334" y="1520"/>
      <point x="406" y="1520" type="curve" smooth="yes"/>
      <point x="566" y="1520"/>
      <point x="718" y="1512"/>
      <point x="734" y="1466" type="curve" smooth="no"/>
      <point x="734" y="1348"/>
      <point x="726" y="1242"/>
      <point x="726" y="1124" type="curve" smooth="yes"/>
      <point x="724" y="840" type="line" smooth="yes"/>
      <point x="724" y="824"/>
      <point x="722" y="808"/>
      <point x="722" y="792" type="curve" smooth="yes"/>
      <point x="718" y="434" type="line" smooth="no"/>
      <point x="744" y="420" type="line" smooth="no"/>
      <point x="868" y="430"/>
      <point x="936" y="430"/>
      <point x="1138" y="430" type="curve" smooth="yes"/>
      <point x="1212" y="430"/>
      <point x="1266" y="426"/>
      <point x="1266" y="392" type="curve" smooth="yes"/>
      <point x="1266" y="388"/>
      <point x="1260" y="390"/>
      <point x="1260" y="372" type="curve" smooth="yes"/>
      <point x="1260" y="352" type="line" smooth="yes"/>
      <point x="1260" y="320" type="line" smooth="yes"/>
      <point x="1260" y="294"/>
      <point x="1258" y="270"/>
      <point x="1266" y="244" type="curve" smooth="no"/>
      <point x="1266" y="128" type="line" smooth="yes"/>
      <point x="1266" y="88"/>
      <point x="1262" y="48"/>
      <point x="1264" y="8" type="curve" smooth="no"/>
      <point x="1254" y="-20"/>
      <point x="1042" y="-28"/>
      <point x="820" y="-28" type="curve" smooth="yes"/>
      <point x="522" y="-28" type="line" smooth="no"/>
      <point x="442" y="-30"/>
      <point x="364" y="-34"/>
      <point x="284" y="-34" type="curve" smooth="yes"/>
      <point x="230" y="-34"/>
      <point x="182" y="-32"/>
      <point x="128" y="-32" type="curve" smooth="no"/>
      <point x="106" y="0"/>
      <point x="104" y="42"/>
      <point x="104" y="84" type="curve" smooth="yes"/>
      <point x="104" y="368" type="line" smooth="yes"/>
      <point x="104" y="618"/>
      <point x="108" y="858"/>
      <point x="108" y="1108" type="curve" smooth="yes"/>
      <point x="108" y="1162"/>
      <point x="102" y="1250"/>
    </contour>
  </outline>
</glyph>
<glyph name="M" format="1">
  <advance width="2192"/>
  <unicode hex="004d"/>
  <outline>
    <contour>
      <point x="122" y="-4" type="curve" smooth="yes"/>
      <point x="122" y="2"/>
      <point x="122" y="8"/>
      <point x="128" y="24" type="curve" smooth="no"/>
      <point x="126" y="80"/>
      <point x="122" y="138"/>
      <point x="122" y="196" type="curve" smooth="yes"/>
      <point x="126" y="1282" type="line" smooth="yes"/>
      <point x="126" y="1352"/>
      <point x="124" y="1410"/>
      <point x="124" y="1480" type="curve" smooth="yes"/>
      <point x="124" y="1522"/>
      <point x="210" y="1514"/>
      <point x="246" y="1514" type="curve" smooth="yes"/>
      <point x="364" y="1514" type="line" smooth="yes"/>
      <point x="860" y="1514"/>
      <point x="746" y="1498"/>
      <point x="944" y="1498" type="curve" smooth="no"/>
      <point x="968" y="1364"/>
      <point x="994" y="1232"/>
      <point x="1020" y="1100" type="curve" smooth="yes"/>
      <point x="1096" y="702" type="line" smooth="no"/>
      <point x="1218" y="1320" type="line" smooth="no"/>
      <point x="1218" y="1336"/>
      <point x="1246" y="1508"/>
      <point x="1268" y="1508" type="curve" smooth="yes"/>
      <point x="1270" y="1508"/>
      <point x="1270" y="1506"/>
      <point x="1276" y="1506" type="curve" smooth="yes"/>
      <point x="1490" y="1506"/>
      <point x="1694" y="1512"/>
      <point x="1908" y="1512" type="curve" smooth="yes"/>
      <point x="2056" y="1512" type="line" smooth="no"/>
      <point x="2074" y="1510"/>
      <point x="2084" y="1498"/>
      <point x="2084" y="1456" type="curve" smooth="yes"/>
      <point x="2092" y="1106"/>
      <point x="2102" y="740"/>
      <point x="2108" y="374" type="curve" smooth="no"/>
      <point x="2108" y="248"/>
      <point x="2106" y="124"/>
      <point x="2104" y="4" type="curve" smooth="no"/>
      <point x="2098" y="-22"/>
      <point x="2076" y="-28"/>
      <point x="2044" y="-28" type="curve" smooth="no"/>
      <point x="2000" y="-32" type="line" smooth="no"/>
      <point x="1872" y="-32" type="line" smooth="no"/>
      <point x="1824" y="-30"/>
      <point x="1776" y="-34"/>
      <point x="1730" y="-34" type="curve" smooth="yes"/>
      <point x="1588" y="-34" type="line" smooth="no"/>
      <point x="1546" y="-2"/>
      <point x="1540" y="130"/>
      <point x="1540" y="248" type="curve" smooth="yes"/>
      <point x="1540" y="410"/>
      <point x="1542" y="516"/>
      <point x="1542" y="632" type="curve" smooth="yes"/>
      <point x="1542" y="702" type="line" smooth="yes"/>
      <point x="1542" y="728"/>
      <point x="1538" y="752"/>
      <point x="1540" y="776" type="curve" smooth="no"/>
      <point x="1470" y="520"/>
      <point x="1424" y="256"/>
      <point x="1362" y="0" type="curve" smooth="no"/>
      <point x="1354" y="-22"/>
      <point x="1310" y="-30"/>
      <point x="1270" y="-30" type="curve" smooth="yes"/>
      <point x="1228" y="-30" type="line" smooth="yes"/>
      <point x="1186" y="-30"/>
      <point x="1144" y="-28"/>
      <point x="1104" y="-28" type="curve" smooth="yes"/>
      <point x="916" y="-28" type="line" smooth="yes"/>
      <point x="884" y="-28"/>
      <point x="850" y="-24"/>
      <point x="840" y="6" type="curve" smooth="no"/>
      <point x="744" y="424" type="line" smooth="no"/>
      <point x="720" y="540" type="line" smooth="no"/>
      <point x="648" y="844" type="line" smooth="no"/>
      <point x="642" y="684"/>
      <point x="636" y="524"/>
      <point x="636" y="356" type="curve" smooth="yes"/>
      <point x="636" y="180" type="line" smooth="yes"/>
      <point x="636" y="122"/>
      <point x="636" y="62"/>
      <point x="638" y="2" type="curve" smooth="no"/>
      <point x="634" y="-12"/>
      <point x="626" y="-20"/>
      <point x="616" y="-20" type="curve" smooth="yes"/>
      <point x="522" y="-20" type="line" smooth="yes"/>
      <point x="404" y="-20"/>
      <point x="294" y="-22"/>
      <point x="176" y="-22" type="curve" smooth="yes"/>
      <point x="150" y="-22"/>
      <point x="122" y="-20"/>
    </contour>
  </outline>
</glyph>
<glyph name="N" format="1">
  <advance width="1726"/>
  <unicode hex="004e"/>
  <outline>
    <contour>
      <point x="80" y="32" type="curve" smooth="yes"/>
      <point x="80" y="104" type="line" smooth="no"/>
      <point x="84" y="448" type="line" smooth="no"/>
      <point x="82" y="766"/>
      <point x="88" y="1076"/>
      <point x="96" y="1394" type="curve" smooth="yes"/>
      <point x="98" y="1476" type="line" smooth="yes"/>
      <point x="98" y="1486"/>
      <point x="100" y="1494"/>
      <point x="104" y="1496" type="curve" smooth="yes"/>
      <point x="124" y="1502" type="line" smooth="no"/>
      <point x="456" y="1508" type="line" smooth="yes"/>
      <point x="568" y="1510"/>
      <point x="680" y="1512"/>
      <point x="792" y="1512" type="curve" smooth="yes"/>
      <point x="814" y="1512"/>
      <point x="914" y="1198"/>
      <point x="968" y="1066" type="curve" smooth="no"/>
      <point x="1108" y="700" type="line" smooth="no"/>
      <point x="1108" y="1088" type="line" smooth="yes"/>
      <point x="1108" y="1216"/>
      <point x="1114" y="1346"/>
      <point x="1112" y="1480" type="curve" smooth="yes"/>
      <point x="1112" y="1504"/>
      <point x="1186" y="1508"/>
      <point x="1272" y="1508" type="curve" smooth="yes"/>
      <point x="1362" y="1508"/>
      <point x="1466" y="1504"/>
      <point x="1516" y="1504" type="curve" smooth="yes"/>
      <point x="1592" y="1504" type="line" smooth="yes"/>
      <point x="1602" y="1504"/>
      <point x="1608" y="1500"/>
      <point x="1608" y="1498" type="curve" smooth="yes"/>
      <point x="1614" y="1220"/>
      <point x="1616" y="966"/>
      <point x="1616" y="702" type="curve" smooth="no"/>
      <point x="1618" y="648"/>
      <point x="1614" y="594"/>
      <point x="1614" y="540" type="curve" smooth="yes"/>
      <point x="1614" y="460" type="line" smooth="no"/>
      <point x="1614" y="300" type="line" smooth="no"/>
      <point x="1616" y="252"/>
      <point x="1616" y="204"/>
      <point x="1616" y="154" type="curve" smooth="yes"/>
      <point x="1616" y="8" type="line" smooth="no"/>
      <point x="1610" y="-14"/>
      <point x="1580" y="-18"/>
      <point x="1550" y="-18" type="curve" smooth="yes"/>
      <point x="1524" y="-18" type="line" smooth="yes"/>
      <point x="1420" y="-18"/>
      <point x="1322" y="-22"/>
      <point x="1218" y="-22" type="curve" smooth="yes"/>
      <point x="1070" y="-22" type="line" smooth="yes"/>
      <point x="1020" y="-22"/>
      <point x="972" y="-18"/>
      <point x="924" y="-20" type="curve" smooth="no"/>
      <point x="912" y="-16"/>
      <point x="890" y="38"/>
      <point x="866" y="104" type="curve" smooth="yes"/>
      <point x="820" y="230" type="line" smooth="no"/>
      <point x="622" y="760" type="line" smooth="no"/>
      <point x="622" y="642"/>
      <point x="620" y="526"/>
      <point x="620" y="408" type="curve" smooth="yes"/>
      <point x="620" y="320"/>
      <point x="624" y="232"/>
      <point x="624" y="144" type="curve" smooth="yes"/>
      <point x="624" y="18" type="line" smooth="yes"/>
      <point x="624" y="-4"/>
      <point x="614" y="-32"/>
      <point x="584" y="-32" type="curve" smooth="yes"/>
      <point x="534" y="-32"/>
      <point x="488" y="-28"/>
      <point x="442" y="-28" type="curve" smooth="yes"/>
      <point x="324" y="-28" type="line" smooth="no"/>
      <point x="124" y="-28" type="line" smooth="no"/>
      <point x="96" y="-4" type="line" smooth="yes"/>
      <point x="86" y="6"/>
      <point x="80" y="18"/>
    </contour>
    <contour>
      <point x="1608" y="1498" type="line" smooth="no"/>
      <point x="1610" y="1500" type="line" smooth="no"/>
      <point x="1610" y="1496" type="line" smooth="no"/>
    </contour>
  </outline>
</glyph>
<glyph name="P" format="1">
  <advance width="1526"/>
  <unicode hex="0050"/>
  <outline>
    <contour>
      <point x="104" y="136" type="curve" smooth="yes"/>
      <point x="104" y="568" type="line" smooth="yes"/>
      <point x="104" y="698"/>
      <point x="108" y="826"/>
      <point x="108" y="960" type="curve" smooth="yes"/>
      <point x="108" y="1468" type="line" smooth="yes"/>
      <point x="108" y="1494"/>
      <point x="170" y="1490"/>
      <point x="212" y="1492" type="curve" smooth="yes"/>
      <point x="332" y="1496" type="line" smooth="yes"/>
      <point x="354" y="1498"/>
      <point x="374" y="1500"/>
      <point x="394" y="1500" type="curve" smooth="yes"/>
      <point x="534" y="1500" type="line" smooth="no"/>
      <point x="532" y="1504" type="line" smooth="no"/>
      <point x="532" y="1512"/>
      <point x="576" y="1512"/>
      <point x="608" y="1512" type="curve" smooth="yes"/>
      <point x="736" y="1512"/>
      <point x="854" y="1510"/>
      <point x="976" y="1500" type="curve" smooth="yes"/>
      <point x="992" y="1500"/>
      <point x="1008" y="1504"/>
      <point x="1024" y="1504" type="curve" smooth="yes"/>
      <point x="1288" y="1504"/>
      <point x="1520" y="1326"/>
      <point x="1520" y="1000" type="curve" smooth="yes"/>
      <point x="1520" y="578"/>
      <point x="1172" y="492"/>
      <point x="932" y="476" type="curve" smooth="no"/>
      <point x="740" y="468" type="line" smooth="no"/>
      <point x="734" y="350"/>
      <point x="732" y="242"/>
      <point x="732" y="124" type="curve" smooth="yes"/>
      <point x="732" y="12" type="line" smooth="no"/>
      <point x="730" y="-10"/>
      <point x="722" y="-24"/>
      <point x="698" y="-24" type="curve" smooth="yes"/>
      <point x="130" y="-34" type="line" smooth="no"/>
      <point x="108" y="24"/>
      <point x="104" y="78"/>
    </contour>
    <contour>
      <point x="668" y="836" type="curve" smooth="no"/>
      <point x="700" y="792" type="line" smooth="no"/>
      <point x="830" y="792"/>
      <point x="972" y="840"/>
      <point x="972" y="1000" type="curve" smooth="yes"/>
      <point x="972" y="1168"/>
      <point x="820" y="1172"/>
      <point x="702" y="1172" type="curve" smooth="no"/>
      <point x="672" y="1158"/>
      <point x="668" y="926"/>
    </contour>
  </outline>
</glyph>
<glyph name="R" format="1">
  <advance width="1560"/>
  <unicode hex="0052"/>
  <outline>
    <contour>
      <point x="92" y="-16" type="curve" smooth="no"/>
      <point x="94" y="208"/>
      <point x="92" y="430"/>
      <point x="96" y="660" type="curve" smooth="yes"/>
      <point x="98" y="818" type="line" smooth="yes"/>
      <point x="98" y="860"/>
      <point x="100" y="902"/>
      <point x="100" y="944" type="curve" smooth="yes"/>
      <point x="96" y="1164" type="line" smooth="yes"/>
      <point x="94" y="1268"/>
      <point x="102" y="1372"/>
      <point x="100" y="1476" type="curve" smooth="yes"/>
      <point x="100" y="1500"/>
      <point x="134" y="1504"/>
      <point x="176" y="1504" type="curve" smooth="yes"/>
      <point x="300" y="1504" type="line" smooth="yes"/>
      <point x="338" y="1504"/>
      <point x="378" y="1504"/>
      <point x="420" y="1502" type="curve" smooth="no"/>
      <point x="556" y="1504" type="line" smooth="yes"/>
      <point x="660" y="1506"/>
      <point x="764" y="1508"/>
      <point x="868" y="1508" type="curve" smooth="yes"/>
      <point x="928" y="1508"/>
      <point x="990" y="1504"/>
      <point x="1048" y="1504" type="curve" smooth="yes"/>
      <point x="1352" y="1496"/>
      <point x="1512" y="1354"/>
      <point x="1512" y="1108" type="curve" smooth="yes"/>
      <point x="1512" y="934"/>
      <point x="1420" y="824"/>
      <point x="1268" y="754" type="curve" smooth="no"/>
      <point x="1516" y="676"/>
      <point x="1498" y="388"/>
      <point x="1522" y="192" type="curve" smooth="no"/>
      <point x="1540" y="104" type="line" smooth="yes"/>
      <point x="1546" y="74"/>
      <point x="1552" y="46"/>
      <point x="1560" y="16" type="curve" smooth="no"/>
      <point x="1560" y="2"/>
      <point x="1558" y="-4"/>
      <point x="1552" y="-4" type="curve" smooth="no"/>
      <point x="1544" y="-12" type="line" smooth="no"/>
      <point x="1422" y="-20"/>
      <point x="1298" y="-22"/>
      <point x="1176" y="-22" type="curve" smooth="yes"/>
      <point x="1142" y="-22"/>
      <point x="1108" y="-22"/>
      <point x="1078" y="-20" type="curve" smooth="yes"/>
      <point x="978" y="-16" type="line" smooth="no"/>
      <point x="930" y="0"/>
      <point x="912" y="238"/>
      <point x="896" y="330" type="curve" smooth="no"/>
      <point x="890" y="466"/>
      <point x="858" y="492"/>
      <point x="762" y="492" type="curve" smooth="yes"/>
      <point x="718" y="492" type="line" smooth="no"/>
      <point x="718" y="306" type="line" smooth="yes"/>
      <point x="718" y="266"/>
      <point x="720" y="226"/>
      <point x="720" y="186" type="curve" smooth="yes"/>
      <point x="720" y="4" type="line" smooth="no"/>
      <point x="714" y="-40"/>
      <point x="530" y="-28"/>
      <point x="452" y="-28" type="curve" smooth="yes"/>
      <point x="308" y="-28" type="line" smooth="yes"/>
      <point x="246" y="-28"/>
      <point x="186" y="-28"/>
      <point x="124" y="-30" type="curve" smooth="no"/>
      <point x="114" y="-26"/>
      <point x="102" y="-22"/>
    </contour>
    <contour>
      <point x="712" y="1080" type="curve" smooth="yes"/>
      <point x="712" y="1004"/>
      <point x="710" y="892"/>
      <point x="754" y="848" type="curve" smooth="no"/>
      <point x="856" y="848"/>
      <point x="982" y="886"/>
      <point x="982" y="1040" type="curve" smooth="yes"/>
      <point x="982" y="1170"/>
      <point x="828" y="1172"/>
      <point x="760" y="1172" type="curve" smooth="yes"/>
      <point x="736" y="1172" type="line" smooth="no"/>
      <point x="714" y="1162"/>
      <point x="712" y="1130"/>
    </contour>
  </outline>
</glyph>
<glyph name="T" format="1">
  <advance width="1318"/>
  <unicode hex="0054"/>
  <outline>
    <contour>
      <point x="-16" y="1198" type="curve" smooth="yes"/>
      <point x="-16" y="1232"/>
      <point x="-12" y="1272"/>
      <point x="-12" y="1300" type="curve" smooth="yes"/>
      <point x="-12" y="1316"/>
      <point x="-16" y="1350"/>
      <point x="-16" y="1390" type="curve" smooth="yes"/>
      <point x="-16" y="1444"/>
      <point x="-14" y="1496"/>
      <point x="4" y="1496" type="curve" smooth="yes"/>
      <point x="6" y="1496"/>
      <point x="12" y="1496"/>
      <point x="18" y="1494" type="curve" smooth="no"/>
      <point x="434" y="1494"/>
      <point x="842" y="1504"/>
      <point x="1252" y="1504" type="curve" smooth="yes"/>
      <point x="1324" y="1504"/>
      <point x="1330" y="1492"/>
      <point x="1330" y="1460" type="curve" smooth="yes"/>
      <point x="1330" y="1432" type="line" smooth="yes"/>
      <point x="1330" y="1328"/>
      <point x="1332" y="1230"/>
      <point x="1332" y="1124" type="curve" smooth="yes"/>
      <point x="1332" y="1096"/>
      <point x="1328" y="1072"/>
      <point x="1304" y="1072" type="curve" smooth="yes"/>
      <point x="1192" y="1072"/>
      <point x="1084" y="1076"/>
      <point x="972" y="1076" type="curve" smooth="no"/>
      <point x="970" y="998"/>
      <point x="970" y="922"/>
      <point x="970" y="844" type="curve" smooth="yes"/>
      <point x="970" y="614" type="line" smooth="yes"/>
      <point x="970" y="582"/>
      <point x="972" y="552"/>
      <point x="972" y="522" type="curve" smooth="yes"/>
      <point x="974" y="4" type="line" smooth="no"/>
      <point x="970" y="-14"/>
      <point x="958" y="-26"/>
      <point x="936" y="-28" type="curve" smooth="no"/>
      <point x="866" y="-28"/>
      <point x="802" y="-26"/>
      <point x="732" y="-26" type="curve" smooth="no"/>
      <point x="732" y="-26"/>
      <point x="730" y="-26"/>
      <point x="728" y="-28" type="curve" smooth="no"/>
      <point x="642" y="-28"/>
      <point x="566" y="-26"/>
      <point x="486" y="-26" type="curve" smooth="yes"/>
      <point x="426" y="-26" type="line" smooth="no"/>
      <point x="406" y="-28"/>
      <point x="386" y="-28"/>
      <point x="368" y="-28" type="curve" smooth="no"/>
      <point x="338" y="8" type="line" smooth="no"/>
      <point x="328" y="20" type="line" smooth="no"/>
      <point x="328" y="324"/>
      <point x="348" y="620"/>
      <point x="348" y="924" type="curve" smooth="no"/>
      <point x="346" y="974"/>
      <point x="354" y="1064"/>
      <point x="298" y="1064" type="curve" smooth="yes"/>
      <point x="282" y="1064"/>
      <point x="264" y="1060"/>
      <point x="250" y="1060" type="curve" smooth="yes"/>
      <point x="12" y="1064" type="line" smooth="no"/>
      <point x="-10" y="1070"/>
      <point x="-16" y="1136"/>
    </contour>
  </outline>
</glyph>
<glyph name="V" format="1">
  <advance width="1554"/>
  <unicode hex="0056"/>
  <outline>
    <contour>
      <point x="-32" y="1476" type="curve" smooth="no"/>
      <point x="-32" y="1498"/>
      <point x="-20" y="1504"/>
      <point x="-2" y="1504" type="curve" smooth="yes"/>
      <point x="190" y="1504"/>
      <point x="374" y="1508"/>
      <point x="560" y="1508" type="curve" smooth="yes"/>
      <point x="576" y="1508"/>
      <point x="592" y="1502"/>
      <point x="608" y="1480" type="curve" smooth="no"/>
      <point x="780" y="484" type="line" smooth="no"/>
      <point x="788" y="444" type="line" smooth="no"/>
      <point x="796" y="484" type="line" smooth="no"/>
      <point x="824" y="652"/>
      <point x="856" y="820"/>
      <point x="890" y="986" type="curve" smooth="yes"/>
      <point x="990" y="1486" type="line" smooth="no"/>
      <point x="996" y="1504"/>
      <point x="1220" y="1510"/>
      <point x="1400" y="1510" type="curve" smooth="yes"/>
      <point x="1504" y="1510" type="line" smooth="yes"/>
      <point x="1530" y="1510"/>
      <point x="1560" y="1508"/>
      <point x="1560" y="1506" type="curve" smooth="yes"/>
      <point x="1560" y="1504" type="line" smooth="no"/>
      <point x="1576" y="1498"/>
      <point x="1582" y="1486"/>
      <point x="1584" y="1476" type="curve" smooth="no"/>
      <point x="1380" y="740" type="line" smooth="yes"/>
      <point x="1372" y="716"/>
      <point x="1366" y="692"/>
      <point x="1360" y="666" type="curve" smooth="yes"/>
      <point x="1316" y="490" type="line" smooth="no"/>
      <point x="1250" y="228" type="line" smooth="yes"/>
      <point x="1216" y="94"/>
      <point x="1166" y="-20"/>
      <point x="1142" y="-28" type="curve" smooth="no"/>
      <point x="1070" y="-28"/>
      <point x="1000" y="-22"/>
      <point x="928" y="-22" type="curve" smooth="yes"/>
      <point x="856" y="-22" type="line" smooth="no"/>
      <point x="700" y="-36"/>
      <point x="556" y="-26"/>
      <point x="404" y="-32" type="curve" smooth="no"/>
      <point x="350" y="0"/>
      <point x="320" y="194"/>
      <point x="300" y="282" type="curve" smooth="no"/>
      <point x="132" y="878" type="line" smooth="yes"/>
      <point x="76" y="1076"/>
      <point x="16" y="1274"/>
    </contour>
  </outline>
</glyph>
<glyph name="W" format="1">
  <advance width="2130"/>
  <unicode hex="0057"/>
  <outline>
    <contour>
      <point x="-44" y="1476" type="line" smooth="no"/>
      <point x="-44" y="1494"/>
      <point x="-38" y="1506"/>
      <point x="-16" y="1514" type="curve" smooth="no"/>
      <point x="8" y="1512"/>
      <point x="34" y="1512"/>
      <point x="60" y="1512" type="curve" smooth="yes"/>
      <point x="140" y="1514" type="line" smooth="yes"/>
      <point x="186" y="1514"/>
      <point x="232" y="1516"/>
      <point x="274" y="1516" type="curve" smooth="no"/>
      <point x="308" y="1518"/>
      <point x="344" y="1514"/>
      <point x="378" y="1514" type="curve" smooth="yes"/>
      <point x="436" y="1514" type="line" smooth="no"/>
      <point x="446" y="1512"/>
      <point x="456" y="1512"/>
      <point x="466" y="1512" type="curve" smooth="yes"/>
      <point x="496" y="1512" type="line" smooth="no"/>
      <point x="518" y="1506"/>
      <point x="548" y="1358"/>
      <point x="568" y="1194" type="curve" smooth="yes"/>
      <point x="598" y="942" type="line" smooth="no"/>
      <point x="620" y="750" type="line" smooth="no"/>
      <point x="628" y="708" type="line" smooth="no"/>
      <point x="706" y="1222" type="line" smooth="no"/>
      <point x="704" y="1220" type="line" smooth="no"/>
      <point x="704" y="1246"/>
      <point x="738" y="1492"/>
      <point x="768" y="1508" type="curve" smooth="no"/>
      <point x="790" y="1506"/>
      <point x="810" y="1506"/>
      <point x="830" y="1506" type="curve" smooth="yes"/>
      <point x="892" y="1506" type="line" smooth="yes"/>
      <point x="1052" y="1506"/>
      <point x="1202" y="1508"/>
      <point x="1356" y="1508" type="curve" smooth="yes"/>
      <point x="1372" y="1508"/>
      <point x="1380" y="1498"/>
      <point x="1382" y="1492" type="curve" smooth="yes"/>
      <point x="1500" y="710" type="line" smooth="no"/>
      <point x="1506" y="664" type="line" smooth="no"/>
      <point x="1518" y="808"/>
      <point x="1534" y="948"/>
      <point x="1554" y="1082" type="curve" smooth="yes"/>
      <point x="1614" y="1488" type="line" smooth="no"/>
      <point x="1620" y="1510"/>
      <point x="1652" y="1512"/>
      <point x="1684" y="1512" type="curve" smooth="yes"/>
      <point x="1732" y="1512" type="line" smooth="no"/>
      <point x="1754" y="1514"/>
      <point x="1778" y="1510"/>
      <point x="1806" y="1510" type="curve" smooth="yes"/>
      <point x="1894" y="1510" type="line" smooth="yes"/>
      <point x="1956" y="1510"/>
      <point x="2010" y="1508"/>
      <point x="2026" y="1508" type="curve" smooth="yes"/>
      <point x="2090" y="1500" type="line" smooth="no"/>
      <point x="2144" y="1492" type="line" smooth="no"/>
      <point x="2158" y="1492"/>
      <point x="2166" y="1478"/>
      <point x="2168" y="1448" type="curve" smooth="no"/>
      <point x="2120" y="1224"/>
      <point x="2062" y="990"/>
      <point x="2012" y="756" type="curve" smooth="yes"/>
      <point x="2004" y="720" type="line" smooth="yes"/>
      <point x="1998" y="694"/>
      <point x="1992" y="666"/>
      <point x="1984" y="640" type="curve" smooth="no"/>
      <point x="1880" y="164" type="line" smooth="yes"/>
      <point x="1870" y="118"/>
      <point x="1850" y="-20"/>
      <point x="1832" y="-20" type="curve" smooth="yes"/>
      <point x="1830" y="-20"/>
      <point x="1826" y="-20"/>
      <point x="1820" y="-18" type="curve" smooth="no"/>
      <point x="1760" y="-22"/>
      <point x="1700" y="-22"/>
      <point x="1638" y="-22" type="curve" smooth="yes"/>
      <point x="1556" y="-22"/>
      <point x="1472" y="-20"/>
      <point x="1388" y="-20" type="curve" smooth="yes"/>
      <point x="1328" y="-20"/>
      <point x="1268" y="-22"/>
      <point x="1208" y="-24" type="curve" smooth="no"/>
      <point x="1194" y="-22"/>
      <point x="1188" y="-18"/>
      <point x="1188" y="-14" type="curve" smooth="yes"/>
      <point x="1188" y="-12" type="line" smooth="no"/>
      <point x="1180" y="56"/>
      <point x="1170" y="122"/>
      <point x="1160" y="188" type="curve" smooth="yes"/>
      <point x="1100" y="580" type="line" smooth="yes"/>
      <point x="1090" y="646"/>
      <point x="1080" y="712"/>
      <point x="1072" y="780" type="curve" smooth="no"/>
      <point x="1030" y="554"/>
      <point x="996" y="328"/>
      <point x="976" y="98" type="curve" smooth="yes"/>
      <point x="970" y="38"/>
      <point x="954" y="-32"/>
      <point x="914" y="-32" type="curve" smooth="yes"/>
      <point x="828" y="-32"/>
      <point x="746" y="-28"/>
      <point x="660" y="-28" type="curve" smooth="yes"/>
      <point x="538" y="-28"/>
      <point x="426" y="-30"/>
      <point x="304" y="-36" type="curve" smooth="no"/>
      <point x="254" y="-10"/>
      <point x="250" y="84"/>
      <point x="240" y="136" type="curve" smooth="yes"/>
      <point x="100" y="806" type="line" smooth="no"/>
      <point x="26" y="1140" type="line" smooth="no"/>
    </contour>
  </outline>
</glyph>
<glyph name="X" format="1">
  <advance width="1600"/>
  <unicode hex="0058"/>
  <outline>
    <contour>
      <point x="-36" y="0" type="curve" smooth="yes"/>
      <point x="-36" y="22"/>
      <point x="-22" y="50"/>
      <point x="0" y="84" type="curve" smooth="yes"/>
      <point x="68" y="188" type="line" smooth="no"/>
      <point x="428" y="752" type="line" smooth="no"/>
      <point x="182" y="1174" type="line" smooth="no"/>
      <point x="0" y="1476" type="line" smooth="no"/>
      <point x="0" y="1486" type="line" smooth="yes"/>
      <point x="0" y="1494"/>
      <point x="4" y="1500"/>
      <point x="12" y="1506" type="curve" smooth="no"/>
      <point x="140" y="1506"/>
      <point x="264" y="1500"/>
      <point x="392" y="1500" type="curve" smooth="no"/>
      <point x="422" y="1502"/>
      <point x="450" y="1498"/>
      <point x="480" y="1498" type="curve" smooth="yes"/>
      <point x="550" y="1498" type="line" smooth="no"/>
      <point x="572" y="1500"/>
      <point x="596" y="1500"/>
      <point x="620" y="1500" type="curve" smooth="no"/>
      <point x="638" y="1496"/>
      <point x="680" y="1422"/>
      <point x="714" y="1344" type="curve" smooth="yes"/>
      <point x="780" y="1188" type="line" smooth="no"/>
      <point x="800" y="1136" type="line" smooth="no"/>
      <point x="816" y="1106" type="line" smooth="no"/>
      <point x="850" y="1182" type="line" smooth="no"/>
      <point x="922" y="1336" type="line" smooth="no"/>
      <point x="960" y="1416" type="line" smooth="yes"/>
      <point x="982" y="1464"/>
      <point x="1002" y="1500"/>
      <point x="1012" y="1500" type="curve" smooth="yes"/>
      <point x="1014" y="1500"/>
      <point x="1018" y="1498"/>
      <point x="1024" y="1496" type="curve" smooth="no"/>
      <point x="1214" y="1502"/>
      <point x="1400" y="1512"/>
      <point x="1592" y="1512" type="curve" smooth="no"/>
      <point x="1610" y="1508"/>
      <point x="1620" y="1494"/>
      <point x="1620" y="1468" type="curve" smooth="yes"/>
      <point x="1620" y="1456" type="line" smooth="no"/>
      <point x="1330" y="998" type="line" smooth="no"/>
      <point x="1170" y="740" type="line" smooth="no"/>
      <point x="1300" y="540" type="line" smooth="no"/>
      <point x="1332" y="486" type="line" smooth="yes"/>
      <point x="1342" y="468"/>
      <point x="1354" y="450"/>
      <point x="1368" y="432" type="curve" smooth="yes"/>
      <point x="1534" y="176" type="line" smooth="no"/>
      <point x="1632" y="24" type="line" smooth="no"/>
      <point x="1638" y="4" type="line" smooth="no"/>
      <point x="1638" y="-20"/>
      <point x="1610" y="-32"/>
      <point x="1570" y="-32" type="curve" smooth="yes"/>
      <point x="1410" y="-32"/>
      <point x="1252" y="-36"/>
      <point x="1100" y="-36" type="curve" smooth="yes"/>
      <point x="1052" y="-36" type="line" smooth="yes"/>
      <point x="1020" y="-36"/>
      <point x="994" y="-32"/>
      <point x="972" y="-16" type="curve" smooth="no"/>
      <point x="800" y="348" type="line" smooth="no"/>
      <point x="786" y="376" type="line" smooth="no"/>
      <point x="718" y="232" type="line" smooth="no"/>
      <point x="634" y="64" type="line" smooth="yes"/>
      <point x="608" y="14"/>
      <point x="580" y="-22"/>
      <point x="562" y="-30" type="curve" smooth="no"/>
      <point x="450" y="-28"/>
      <point x="346" y="-26"/>
      <point x="234" y="-26" type="curve" smooth="yes"/>
      <point x="148" y="-26"/>
      <point x="74" y="-28"/>
      <point x="-12" y="-28" type="curve" smooth="no"/>
      <point x="-28" y="-22"/>
      <point x="-36" y="-14"/>
    </contour>
  </outline>
</glyph>
<glyph name="Y" format="1">
  <advance width="1524"/>
  <unicode hex="0059"/>
  <outline>
    <contour>
      <point x="-40" y="1480" type="curve" smooth="yes"/>
      <point x="-40" y="1498"/>
      <point x="-18" y="1506"/>
      <point x="8" y="1506" type="curve" smooth="yes"/>
      <point x="260" y="1506" type="line" smooth="yes"/>
      <point x="364" y="1506"/>
      <point x="470" y="1504"/>
      <point x="572" y="1504" type="curve" smooth="no"/>
      <point x="598" y="1500"/>
      <point x="646" y="1382"/>
      <point x="684" y="1254" type="curve" smooth="yes"/>
      <point x="758" y="1006" type="line" smooth="no"/>
      <point x="782" y="924" type="line" smooth="no"/>
      <point x="816" y="1016"/>
      <point x="848" y="1110"/>
      <point x="878" y="1204" type="curve" smooth="yes"/>
      <point x="970" y="1488" type="line" smooth="yes"/>
      <point x="978" y="1508"/>
      <point x="1060" y="1510"/>
      <point x="1128" y="1510" type="curve" smooth="yes"/>
      <point x="1148" y="1510" type="line" smooth="no"/>
      <point x="1174" y="1508"/>
      <point x="1194" y="1508"/>
      <point x="1208" y="1508" type="curve" smooth="yes"/>
      <point x="1332" y="1508" type="line" smooth="no"/>
      <point x="1534" y="1508" type="line" smooth="no"/>
      <point x="1552" y="1506"/>
      <point x="1560" y="1496"/>
      <point x="1568" y="1462" type="curve" smooth="no"/>
      <point x="1536" y="1398" type="line" smooth="no"/>
      <point x="1324" y="996" type="line" smooth="no"/>
      <point x="1188" y="732" type="line" smooth="no"/>
      <point x="1074" y="500" type="line" smooth="no"/>
      <point x="1072" y="474"/>
      <point x="1072" y="448"/>
      <point x="1072" y="422" type="curve" smooth="yes"/>
      <point x="1072" y="240" type="line" smooth="no"/>
      <point x="1072" y="0" type="line" smooth="no"/>
      <point x="1066" y="-22"/>
      <point x="1058" y="-32"/>
      <point x="1032" y="-32" type="curve" smooth="yes"/>
      <point x="842" y="-32"/>
      <point x="664" y="-36"/>
      <point x="468" y="-36" type="curve" smooth="no"/>
      <point x="438" y="-6"/>
      <point x="432" y="24"/>
      <point x="432" y="48" type="curve" smooth="no"/>
      <point x="442" y="96"/>
      <point x="436" y="168"/>
      <point x="436" y="224" type="curve" smooth="yes"/>
      <point x="436" y="296" type="line" smooth="yes"/>
      <point x="436" y="468"/>
      <point x="400" y="604"/>
      <point x="336" y="726" type="curve" smooth="no"/>
      <point x="168" y="1064" type="line" smooth="no"/>
      <point x="110" y="1180" type="line" smooth="yes"/>
      <point x="96" y="1204"/>
      <point x="86" y="1232"/>
      <point x="72" y="1258" type="curve" smooth="yes"/>
      <point x="4" y="1372" type="line" smooth="yes"/>
      <point x="-22" y="1414"/>
      <point x="-40" y="1454"/>
    </contour>
  </outline>
</glyph>
<glyph name="Z" format="1">
  <advance width="1394"/>
  <unicode hex="005a"/>
  <outline>
    <contour>
      <point x="14" y="16" type="curve" smooth="no"/>
      <point x="14" y="48" type="line" smooth="yes"/>
      <point x="14" y="138"/>
      <point x="18" y="368"/>
      <point x="24" y="368" type="curve" smooth="no"/>
      <point x="26" y="366"/>
      <point x="120" y="490"/>
      <point x="316" y="730" type="curve" smooth="yes"/>
      <point x="608" y="1086" type="line" smooth="no"/>
      <point x="426" y="1086"/>
      <point x="254" y="1080"/>
      <point x="72" y="1080" type="curve" smooth="no"/>
      <point x="50" y="1086"/>
      <point x="48" y="1104"/>
      <point x="48" y="1128" type="curve" smooth="yes"/>
      <point x="48" y="1164" type="line" smooth="yes"/>
      <point x="48" y="1248" type="line" smooth="yes"/>
      <point x="48" y="1276"/>
      <point x="40" y="1356"/>
      <point x="40" y="1416" type="curve" smooth="yes"/>
      <point x="40" y="1472"/>
      <point x="44" y="1496"/>
      <point x="60" y="1496" type="curve" smooth="yes"/>
      <point x="66" y="1496"/>
      <point x="70" y="1494"/>
      <point x="76" y="1492" type="curve" smooth="yes"/>
      <point x="404" y="1490"/>
      <point x="726" y="1500"/>
      <point x="1052" y="1504" type="curve" smooth="yes"/>
      <point x="1264" y="1506" type="line" smooth="yes"/>
      <point x="1336" y="1506"/>
      <point x="1348" y="1506"/>
      <point x="1348" y="1428" type="curve" smooth="yes"/>
      <point x="1348" y="1404"/>
      <point x="1344" y="1378"/>
      <point x="1344" y="1368" type="curve" smooth="no"/>
      <point x="1346" y="1362" type="line" smooth="no"/>
      <point x="1346" y="1260"/>
      <point x="1344" y="1194"/>
      <point x="1342" y="1154" type="curve" smooth="yes"/>
      <point x="1334" y="1026"/>
      <point x="1146" y="862"/>
      <point x="1050" y="748" type="curve" smooth="yes"/>
      <point x="760" y="400" type="line" smooth="no"/>
      <point x="770" y="400" type="line" smooth="yes"/>
      <point x="798" y="400"/>
      <point x="890" y="404"/>
      <point x="1000" y="404" type="curve" smooth="no"/>
      <point x="1116" y="408" type="line" smooth="no"/>
      <point x="1336" y="408" type="line" smooth="yes"/>
      <point x="1368" y="408"/>
      <point x="1368" y="302"/>
      <point x="1368" y="216" type="curve" smooth="yes"/>
      <point x="1368" y="124" type="line" smooth="yes"/>
      <point x="1368" y="104"/>
      <point x="1372" y="74"/>
      <point x="1372" y="48" type="curve" smooth="yes"/>
      <point x="1372" y="-16"/>
      <point x="1350" y="-24"/>
      <point x="1296" y="-24" type="curve" smooth="yes"/>
      <point x="1272" y="-24" type="line" smooth="yes"/>
      <point x="880" y="-24"/>
      <point x="494" y="-36"/>
      <point x="104" y="-36" type="curve" smooth="yes"/>
      <point x="58" y="-36"/>
      <point x="48" y="-28"/>
    </contour>
  </outline>
</glyph>
<glyph name="backslash" format="1">
  <advance width="808"/>
  <unicode hex="005c"/>
  <outline>
    <contour>
      <point x="-36" y="1524" type="curve" smooth="yes"/>
      <point x="-36" y="1534"/>
      <point x="-30" y="1542"/>
      <point x="-18" y="1548" type="curve" smooth="no"/>
      <point x="50" y="1544"/>
      <point x="118" y="1542"/>
      <point x="188" y="1542" type="curve" smooth="yes"/>
      <point x="214" y="1542"/>
      <point x="242" y="1544"/>
      <point x="268" y="1544" type="curve" smooth="yes"/>
      <point x="278" y="1544"/>
      <point x="284" y="1538"/>
      <point x="286" y="1504" type="curve" smooth="no"/>
      <point x="852" y="-22" type="line" smooth="no"/>
      <point x="852" y="-34" type="line" smooth="yes"/>
      <point x="852" y="-56"/>
      <point x="838" y="-68"/>
      <point x="816" y="-70" type="curve" smooth="no"/>
      <point x="776" y="-70" type="line" smooth="yes"/>
      <point x="750" y="-70"/>
      <point x="720" y="-72"/>
      <point x="694" y="-72" type="curve" smooth="yes"/>
      <point x="660" y="-72"/>
      <point x="622" y="-70"/>
      <point x="584" y="-70" type="curve" smooth="yes"/>
      <point x="552" y="-70"/>
      <point x="522" y="-70"/>
      <point x="496" y="-76" type="curve" smooth="no"/>
      <point x="-32" y="1512" type="line" smooth="yes"/>
      <point x="-34" y="1516"/>
      <point x="-36" y="1520"/>
    </contour>
  </outline>
</glyph>
<glyph name="asciicircum" format="1">
  <advance width="1274"/>
  <unicode hex="005e"/>
  <outline>
    <contour>
      <point x="140" y="758" type="curve" smooth="yes"/>
      <point x="140" y="762" type="line" smooth="yes"/>
      <point x="496" y="1504" type="line" smooth="yes"/>
      <point x="498" y="1510"/>
      <point x="504" y="1514"/>
      <point x="510" y="1516" type="curve" smooth="no"/>
      <point x="700" y="1516" type="line" smooth="no"/>
      <point x="730" y="1516" type="line" smooth="yes"/>
      <point x="740" y="1516"/>
      <point x="748" y="1516"/>
      <point x="758" y="1518" type="curve" smooth="no"/>
      <point x="774" y="1518"/>
      <point x="776" y="1510"/>
      <point x="782" y="1488" type="curve" smooth="no"/>
      <point x="1146" y="776" type="line" smooth="no"/>
      <point x="1146" y="734"/>
      <point x="1086" y="728"/>
      <point x="980" y="728" type="curve" smooth="yes"/>
      <point x="860" y="728" type="line" smooth="yes"/>
      <point x="844" y="728"/>
      <point x="834" y="746"/>
      <point x="824" y="754" type="curve" smooth="no"/>
      <point x="636" y="1144" type="line" smooth="no"/>
      <point x="452" y="760" type="line" smooth="no"/>
      <point x="444" y="750"/>
      <point x="436" y="742"/>
      <point x="428" y="740" type="curve" smooth="no"/>
      <point x="424" y="742" type="line" smooth="no"/>
      <point x="336" y="742"/>
      <point x="250" y="740"/>
      <point x="164" y="740" type="curve" smooth="no"/>
      <point x="148" y="742"/>
      <point x="140" y="752"/>
    </contour>
  </outline>
</glyph>
<glyph name="a" format="1">
  <advance width="1482"/>
  <unicode hex="0061"/>
  <outline>
    <contour>
      <point x="-48" y="72" type="line" smooth="no"/>
      <point x="62" y="404" type="line" smooth="no"/>
      <point x="280" y="1058" type="line" smooth="no"/>
      <point x="280" y="1056" type="line" smooth="no"/>
      <point x="322" y="1180" type="line" smooth="no"/>
      <point x="380" y="1360" type="line" smooth="no"/>
      <point x="386" y="1370"/>
      <point x="386" y="1374"/>
      <point x="392" y="1380" type="curve" smooth="yes"/>
      <point x="400" y="1388" type="line" smooth="no"/>
      <point x="418" y="1388"/>
      <point x="436" y="1388"/>
      <point x="454" y="1386" type="curve" smooth="no"/>
      <point x="654" y="1386" type="line" smooth="no"/>
      <point x="658" y="1384"/>
      <point x="662" y="1384"/>
      <point x="668" y="1384" type="curve" smooth="yes"/>
      <point x="780" y="1384" type="line" smooth="no"/>
      <point x="940" y="1384" type="line" smooth="yes"/>
      <point x="1018" y="1384"/>
      <point x="1080" y="1380"/>
      <point x="1092" y="1360" type="curve" smooth="no"/>
      <point x="1096" y="1334" type="line" smooth="yes"/>
      <point x="1098" y="1322"/>
      <point x="1104" y="1306"/>
      <point x="1114" y="1288" type="curve" smooth="no"/>
      <point x="1198" y="1032" type="line" smooth="no"/>
      <point x="1256" y="856" type="line" smooth="no"/>
      <point x="1264" y="844" type="line" smooth="no"/>
      <point x="1266" y="828"/>
      <point x="1270" y="812"/>
      <point x="1276" y="796" type="curve" smooth="yes"/>
      <point x="1312" y="696" type="line" smooth="no"/>
      <point x="1334" y="632" type="line" smooth="yes"/>
      <point x="1334" y="626"/>
      <point x="1340" y="624"/>
      <point x="1340" y="614" type="curve" smooth="no"/>
      <point x="1368" y="512" type="line" smooth="yes"/>
      <point x="1370" y="506"/>
      <point x="1376" y="494"/>
      <point x="1376" y="488" type="curve" smooth="yes"/>
      <point x="1424" y="336" type="line" smooth="no"/>
      <point x="1478" y="178" type="line" smooth="no"/>
      <point x="1476" y="180" type="line" smooth="no"/>
      <point x="1484" y="160" type="line" smooth="no"/>
      <point x="1490" y="134"/>
      <point x="1502" y="110"/>
      <point x="1508" y="88" type="curve" smooth="no"/>
      <point x="1508" y="50"/>
      <point x="1494" y="44"/>
      <point x="1452" y="44" type="curve" smooth="yes"/>
      <point x="1312" y="44" type="line" smooth="no"/>
      <point x="1188" y="44" type="line" smooth="no"/>
      <point x="988" y="44" type="line" smooth="no"/>
      <point x="958" y="48"/>
      <point x="934" y="50"/>
      <point x="930" y="72" type="curve" smooth="yes"/>
      <point x="892" y="224" type="line" smooth="yes"/>
      <point x="886" y="250"/>
      <point x="886" y="248"/>
      <point x="860" y="248" type="curve" smooth="yes"/>
      <point x="552" y="248" type="line" smooth="no"/>
      <point x="536" y="194"/>
      <point x="524" y="126"/>
      <point x="508" y="68" type="curve" smooth="no"/>
      <point x="492" y="44"/>
      <point x="448" y="40"/>
      <point x="400" y="40" type="curve" smooth="yes"/>
      <point x="322" y="40" type="line" smooth="no"/>
      <point x="280" y="38"/>
      <point x="238" y="38"/>
      <point x="200" y="38" type="curve" smooth="yes"/>
      <point x="32" y="38" type="line" smooth="yes"/>
      <point x="16" y="38"/>
      <point x="2" y="36"/>
      <point x="-20" y="36" type="curve" smooth="no"/>
      <point x="-26" y="42"/>
      <point x="-26" y="46"/>
      <point x="-32" y="52" type="curve" smooth="no"/>
      <point x="-32" y="48" type="line" smooth="no"/>
      <point x="-36" y="52" type="line" smooth="no"/>
    </contour>
    <contour>
      <point x="600" y="604" type="line" smooth="no"/>
      <point x="600" y="600" type="line" smooth="no"/>
    </contour>
    <contour>
      <point x="600" y="604" type="curve" smooth="yes"/>
      <point x="604" y="582" type="line" smooth="no"/>
      <point x="620" y="582"/>
      <point x="632" y="584"/>
      <point x="648" y="584" type="curve" smooth="yes"/>
      <point x="804" y="580" type="line" smooth="no"/>
      <point x="808" y="580" type="line" smooth="yes"/>
      <point x="830" y="580"/>
      <point x="848" y="578"/>
      <point x="848" y="600" type="curve" smooth="yes"/>
      <point x="848" y="622"/>
      <point x="838" y="648"/>
      <point x="830" y="678" type="curve" smooth="no"/>
      <point x="830" y="676" type="line" smooth="no"/>
      <point x="824" y="700" type="line" smooth="yes"/>
      <point x="822" y="708"/>
      <point x="820" y="716"/>
      <point x="820" y="724" type="curve" smooth="yes"/>
      <point x="784" y="892" type="line" smooth="no"/>
      <point x="768" y="966" type="line" smooth="no"/>
      <point x="762" y="976"/>
      <point x="762" y="992"/>
      <point x="756" y="1010" type="curve" smooth="no"/>
      <point x="746" y="1058" type="line" smooth="no"/>
      <point x="740" y="1074"/>
      <point x="742" y="1082"/>
      <point x="728" y="1088" type="curve" smooth="no"/>
      <point x="728" y="1086" type="line" smooth="no"/>
      <point x="710" y="1082"/>
      <point x="690" y="1004"/>
      <point x="680" y="950" type="curve" smooth="no"/>
      <point x="680" y="952" type="line" smooth="no"/>
      <point x="672" y="904" type="line" smooth="yes"/>
      <point x="668" y="892"/>
      <point x="664" y="888"/>
      <point x="664" y="884" type="curve" smooth="yes"/>
      <point x="634" y="752" type="line" smooth="no"/>
      <point x="610" y="648" type="line" smooth="no"/>
      <point x="610" y="630"/>
      <point x="600" y="614"/>
    </contour>
  </outline>
</glyph>
<glyph name="b" format="1">
  <advance width="1408"/>
  <unicode hex="0062"/>
  <outline>
    <contour>
      <point x="82" y="1334" type="line" smooth="no"/>
      <point x="82" y="1356"/>
      <point x="90" y="1368"/>
      <point x="100" y="1368" type="curve" smooth="no"/>
      <point x="104" y="1370" type="line" smooth="no"/>
      <point x="106" y="1368"/>
      <point x="110" y="1368"/>
      <point x="112" y="1368" type="curve" smooth="yes"/>
      <point x="214" y="1376"/>
      <point x="318" y="1382"/>
      <point x="424" y="1388" type="curve" smooth="no"/>
      <point x="848" y="1388" type="line" smooth="yes"/>
      <point x="976" y="1388"/>
      <point x="1104" y="1366"/>
      <point x="1206" y="1292" type="curve" smooth="no"/>
      <point x="1204" y="1292" type="line" smooth="no"/>
      <point x="1286" y="1238"/>
      <point x="1324" y="1130"/>
      <point x="1324" y="1030" type="curve" smooth="yes"/>
      <point x="1324" y="902"/>
      <point x="1264" y="804"/>
      <point x="1152" y="754" type="curve" smooth="no"/>
      <point x="1142" y="748" type="line" smooth="no"/>
      <point x="1144" y="748" type="line" smooth="no"/>
      <point x="1138" y="748" type="line" smooth="yes"/>
      <point x="1144" y="748"/>
      <point x="1146" y="744"/>
      <point x="1154" y="742" type="curve" smooth="yes"/>
      <point x="1288" y="688"/>
      <point x="1360" y="586"/>
      <point x="1360" y="436" type="curve" smooth="no"/>
      <point x="1354" y="272"/>
      <point x="1260" y="146"/>
      <point x="1116" y="94" type="curve" smooth="yes"/>
      <point x="1032" y="64" type="line" smooth="no"/>
      <point x="962" y="46"/>
      <point x="894" y="40"/>
      <point x="824" y="40" type="curve" smooth="yes"/>
      <point x="760" y="40"/>
      <point x="698" y="46"/>
      <point x="640" y="44" type="curve" smooth="no"/>
      <point x="576" y="48" type="line" smooth="no"/>
      <point x="574" y="46"/>
      <point x="570" y="44"/>
      <point x="568" y="44" type="curve" smooth="yes"/>
      <point x="496" y="44" type="line" smooth="no"/>
      <point x="398" y="44" type="line" smooth="yes"/>
      <point x="384" y="44"/>
      <point x="370" y="44"/>
      <point x="356" y="42" type="curve" smooth="yes"/>
      <point x="112" y="36" type="line" smooth="no"/>
      <point x="108" y="50" type="line" smooth="no"/>
      <point x="108" y="48" type="line" smooth="no"/>
      <point x="106" y="54"/>
      <point x="104" y="58"/>
      <point x="104" y="60" type="curve" smooth="yes"/>
      <point x="92" y="86" type="line" smooth="no"/>
      <point x="92" y="120"/>
      <point x="88" y="156"/>
      <point x="88" y="194" type="curve" smooth="yes"/>
      <point x="84" y="636" type="line" smooth="no"/>
      <point x="86" y="772"/>
      <point x="86" y="900"/>
      <point x="92" y="1028" type="curve" smooth="no"/>
      <point x="92" y="1082" type="line" smooth="yes"/>
      <point x="92" y="1096"/>
      <point x="88" y="1116"/>
      <point x="88" y="1132" type="curve" smooth="yes"/>
      <point x="88" y="1276" type="line" smooth="no"/>
      <point x="88" y="1332" type="line" smooth="no"/>
      <point x="84" y="1334" type="line" smooth="no"/>
    </contour>
    <contour>
      <point x="600" y="580" type="line" smooth="no"/>
      <point x="608" y="468" type="line" smooth="no"/>
      <point x="608" y="368" type="line" smooth="yes"/>
      <point x="608" y="362"/>
      <point x="612" y="356"/>
      <point x="622" y="354" type="curve" smooth="no"/>
      <point x="700" y="354" type="line" smooth="no"/>
      <point x="774" y="360"/>
      <point x="844" y="384"/>
      <point x="844" y="478" type="curve" smooth="yes"/>
      <point x="844" y="620"/>
      <point x="710" y="620"/>
      <point x="624" y="620" type="curve" smooth="no"/>
      <point x="624" y="618"/>
      <point x="622" y="614"/>
      <point x="618" y="612" type="curve" smooth="no"/>
      <point x="600" y="588" type="line" smooth="no"/>
    </contour>
    <contour>
      <point x="604" y="1060" type="curve" smooth="yes"/>
      <point x="610" y="1026"/>
      <point x="612" y="994"/>
      <point x="612" y="956" type="curve" smooth="yes"/>
      <point x="612" y="936" type="line" smooth="yes"/>
      <point x="612" y="930"/>
      <point x="610" y="922"/>
      <point x="610" y="916" type="curve" smooth="yes"/>
      <point x="610" y="906"/>
      <point x="612" y="892"/>
      <point x="612" y="876" type="curve" smooth="yes"/>
      <point x="612" y="844" type="line" smooth="yes"/>
      <point x="612" y="838"/>
      <point x="614" y="832"/>
      <point x="620" y="830" type="curve" smooth="no"/>
      <point x="692" y="830"/>
      <point x="826" y="830"/>
      <point x="826" y="968" type="curve" smooth="yes"/>
      <point x="826" y="1064"/>
      <point x="726" y="1086"/>
      <point x="642" y="1086" type="curve" smooth="yes"/>
      <point x="630" y="1086" type="line" smooth="no"/>
      <point x="626" y="1084"/>
      <point x="622" y="1084"/>
      <point x="620" y="1084" type="curve" smooth="no"/>
      <point x="620" y="1086" type="line" smooth="no"/>
      <point x="604" y="1080"/>
      <point x="604" y="1070"/>
    </contour>
  </outline>
</glyph>
<glyph name="d" format="1">
  <advance width="1456"/>
  <unicode hex="0064"/>
  <outline>
    <contour>
      <point x="84" y="1344" type="curve" smooth="yes"/>
      <point x="84" y="1366"/>
      <point x="90" y="1370"/>
      <point x="112" y="1370" type="curve" smooth="no"/>
      <point x="112" y="1372" type="line" smooth="no"/>
      <point x="118" y="1372"/>
      <point x="118" y="1370"/>
      <point x="124" y="1370" type="curve" smooth="yes"/>
      <point x="134" y="1370"/>
      <point x="146" y="1372"/>
      <point x="156" y="1374" type="curve" smooth="yes"/>
      <point x="236" y="1384"/>
      <point x="308" y="1388"/>
      <point x="386" y="1388" type="curve" smooth="yes"/>
      <point x="506" y="1388" type="line" smooth="no"/>
      <point x="642" y="1388" type="line" smooth="yes"/>
      <point x="850" y="1388"/>
      <point x="1132" y="1354"/>
      <point x="1254" y="1184" type="curve" smooth="no"/>
      <point x="1298" y="1130"/>
      <point x="1412" y="986"/>
      <point x="1412" y="720" type="curve" smooth="yes"/>
      <point x="1412" y="248"/>
      <point x="1064" y="56"/>
      <point x="788" y="40" type="curve" smooth="no"/>
      <point x="780" y="44" type="line" smooth="no"/>
      <point x="744" y="42" type="line" smooth="yes"/>
      <point x="722" y="42"/>
      <point x="684" y="40"/>
      <point x="658" y="40" type="curve" smooth="yes"/>
      <point x="638" y="40"/>
      <point x="618" y="40"/>
      <point x="596" y="44" type="curve" smooth="no"/>
      <point x="526" y="44" type="line" smooth="no"/>
      <point x="368" y="44" type="line" smooth="no"/>
      <point x="120" y="38" type="line" smooth="no"/>
      <point x="100" y="80"/>
      <point x="100" y="96"/>
      <point x="100" y="122" type="curve" smooth="yes"/>
      <point x="100" y="252" type="line" smooth="yes"/>
      <point x="100" y="374"/>
      <point x="100" y="490"/>
      <point x="102" y="624" type="curve" smooth="yes"/>
      <point x="104" y="788" type="line" smooth="no"/>
      <point x="102" y="842"/>
      <point x="102" y="890"/>
      <point x="100" y="948" type="curve" smooth="yes"/>
      <point x="96" y="1104" type="line" smooth="no"/>
      <point x="90" y="1168"/>
      <point x="88" y="1242"/>
      <point x="88" y="1300" type="curve" smooth="yes"/>
      <point x="88" y="1336" type="line" smooth="no"/>
      <point x="86" y="1338"/>
      <point x="84" y="1342"/>
    </contour>
    <contour>
      <point x="604" y="1044" type="line" smooth="no"/>
      <point x="604" y="1026"/>
      <point x="608" y="1008"/>
      <point x="608" y="992" type="curve" smooth="yes"/>
      <point x="608" y="936" type="line" smooth="yes"/>
      <point x="608" y="914"/>
      <point x="606" y="890"/>
      <point x="606" y="868" type="curve" smooth="yes"/>
      <point x="608" y="652" type="line" smooth="no"/>
      <point x="608" y="520" type="line" smooth="no"/>
      <point x="608" y="472" type="line" smooth="yes"/>
      <point x="608" y="410"/>
      <point x="614" y="362"/>
      <point x="624" y="356" type="curve" smooth="no"/>
      <point x="654" y="356" type="line" smooth="yes"/>
      <point x="686" y="356"/>
      <point x="712" y="358"/>
      <point x="744" y="366" type="curve" smooth="no"/>
      <point x="742" y="366" type="line" smooth="no"/>
      <point x="872" y="414"/>
      <point x="880" y="620"/>
      <point x="880" y="724" type="curve" smooth="yes"/>
      <point x="880" y="796" type="line" smooth="no"/>
      <point x="870" y="848"/>
      <point x="880" y="896"/>
      <point x="852" y="968" type="curve" smooth="no"/>
      <point x="854" y="968" type="line" smooth="no"/>
      <point x="800" y="1076"/>
      <point x="722" y="1086"/>
      <point x="636" y="1086" type="curve" smooth="yes"/>
      <point x="624" y="1086" type="line" smooth="no"/>
      <point x="618" y="1064" type="line" smooth="no"/>
    </contour>
  </outline>
</glyph>
<glyph name="e" format="1">
  <advance width="1166"/>
  <unicode hex="0065"/>
  <outline>
    <contour>
      <point x="82" y="1032" type="curve" smooth="yes"/>
      <point x="82" y="1050"/>
      <point x="84" y="1068"/>
      <point x="84" y="1086" type="curve" smooth="yes"/>
      <point x="84" y="1126"/>
      <point x="82" y="1168"/>
      <point x="82" y="1218" type="curve" smooth="yes"/>
      <point x="82" y="1292" type="line" smooth="yes"/>
      <point x="82" y="1348"/>
      <point x="80" y="1376"/>
      <point x="118" y="1376" type="curve" smooth="yes"/>
      <point x="142" y="1376" type="line" smooth="yes"/>
      <point x="152" y="1376"/>
      <point x="158" y="1376"/>
      <point x="164" y="1374" type="curve" smooth="no"/>
      <point x="216" y="1374" type="line" smooth="yes"/>
      <point x="418" y="1374"/>
      <point x="624" y="1382"/>
      <point x="828" y="1382" type="curve" smooth="yes"/>
      <point x="880" y="1382" type="line" smooth="yes"/>
      <point x="912" y="1382"/>
      <point x="942" y="1384"/>
      <point x="968" y="1384" type="curve" smooth="yes"/>
      <point x="1094" y="1384" type="line" smooth="no"/>
      <point x="1112" y="1382"/>
      <point x="1120" y="1372"/>
      <point x="1120" y="1358" type="curve" smooth="yes"/>
      <point x="1120" y="1204" type="line" smooth="no"/>
      <point x="1120" y="1024" type="line" smooth="no"/>
      <point x="1118" y="1008"/>
      <point x="1110" y="1004"/>
      <point x="1092" y="990" type="curve" smooth="no"/>
      <point x="1074" y="990"/>
      <point x="1056" y="992"/>
      <point x="1040" y="992" type="curve" smooth="yes"/>
      <point x="856" y="994" type="line" smooth="no"/>
      <point x="774" y="998"/>
      <point x="708" y="1000"/>
      <point x="632" y="1000" type="curve" smooth="no"/>
      <point x="630" y="994"/>
      <point x="628" y="990"/>
      <point x="628" y="986" type="curve" smooth="yes"/>
      <point x="628" y="960" type="line" smooth="no"/>
      <point x="628" y="924" type="line" smooth="no"/>
      <point x="628" y="920" type="line" smooth="yes"/>
      <point x="628" y="886" type="line" smooth="yes"/>
      <point x="628" y="882"/>
      <point x="628" y="880"/>
      <point x="626" y="878" type="curve" smooth="no"/>
      <point x="626" y="870" type="line" smooth="no"/>
      <point x="634" y="870"/>
      <point x="638" y="868"/>
      <point x="646" y="868" type="curve" smooth="yes"/>
      <point x="672" y="868" type="line" smooth="yes"/>
      <point x="790" y="868"/>
      <point x="906" y="876"/>
      <point x="1032" y="876" type="curve" smooth="yes"/>
      <point x="1072" y="876"/>
      <point x="1080" y="858"/>
      <point x="1080" y="834" type="curve" smooth="yes"/>
      <point x="1080" y="824"/>
      <point x="1076" y="810"/>
      <point x="1076" y="800" type="curve" smooth="yes"/>
      <point x="1076" y="762" type="line" smooth="yes"/>
      <point x="1076" y="752"/>
      <point x="1078" y="740"/>
      <point x="1078" y="724" type="curve" smooth="yes"/>
      <point x="1078" y="696" type="line" smooth="yes"/>
      <point x="1078" y="654"/>
      <point x="1082" y="648"/>
      <point x="1082" y="614" type="curve" smooth="yes"/>
      <point x="1082" y="588" type="line" smooth="no"/>
      <point x="1076" y="574"/>
      <point x="1074" y="568"/>
      <point x="1064" y="568" type="curve" smooth="yes"/>
      <point x="1054" y="570" type="line" smooth="no"/>
      <point x="974" y="570"/>
      <point x="894" y="560"/>
      <point x="792" y="560" type="curve" smooth="yes"/>
      <point x="660" y="560" type="line" smooth="yes"/>
      <point x="652" y="560"/>
      <point x="642" y="560"/>
      <point x="632" y="562" type="curve" smooth="no"/>
      <point x="632" y="432" type="line" smooth="no"/>
      <point x="648" y="432"/>
      <point x="664" y="430"/>
      <point x="680" y="430" type="curve" smooth="yes"/>
      <point x="768" y="430"/>
      <point x="860" y="436"/>
      <point x="940" y="436" type="curve" smooth="no"/>
      <point x="1068" y="440" type="line" smooth="yes"/>
      <point x="1096" y="440"/>
      <point x="1130" y="438"/>
      <point x="1140" y="412" type="curve" smooth="no"/>
      <point x="1140" y="342" type="line" smooth="yes"/>
      <point x="1140" y="326"/>
      <point x="1142" y="314"/>
      <point x="1142" y="304" type="curve" smooth="yes"/>
      <point x="1142" y="144" type="line" smooth="no"/>
      <point x="1144" y="140"/>
      <point x="1144" y="136"/>
      <point x="1144" y="130" type="curve" smooth="yes"/>
      <point x="1144" y="92" type="line" smooth="yes"/>
      <point x="1144" y="66"/>
      <point x="1136" y="44"/>
      <point x="1104" y="42" type="curve" smooth="no"/>
      <point x="1090" y="42" type="line" smooth="no"/>
      <point x="1080" y="44"/>
      <point x="1068" y="44"/>
      <point x="1058" y="44" type="curve" smooth="yes"/>
      <point x="1000" y="44" type="line" smooth="yes"/>
      <point x="984" y="44"/>
      <point x="972" y="46"/>
      <point x="956" y="46" type="curve" smooth="yes"/>
      <point x="896" y="46" type="line" smooth="yes"/>
      <point x="888" y="46"/>
      <point x="878" y="48"/>
      <point x="870" y="48" type="curve" smooth="yes"/>
      <point x="532" y="48" type="line" smooth="no"/>
      <point x="420" y="48" type="line" smooth="yes"/>
      <point x="382" y="48"/>
      <point x="346" y="42"/>
      <point x="312" y="44" type="curve" smooth="no"/>
      <point x="114" y="40" type="line" smooth="no"/>
      <point x="84" y="74" type="line" smooth="no"/>
      <point x="88" y="594" type="line" smooth="yes"/>
      <point x="90" y="614"/>
      <point x="90" y="632"/>
      <point x="90" y="650" type="curve" smooth="yes"/>
      <point x="90" y="672" type="line" smooth="yes"/>
      <point x="90" y="684" type="line" smooth="no"/>
      <point x="88" y="690"/>
      <point x="88" y="694"/>
      <point x="88" y="700" type="curve" smooth="yes"/>
      <point x="88" y="722"/>
      <point x="90" y="746"/>
      <point x="92" y="772" type="curve" smooth="no"/>
      <point x="92" y="904" type="line" smooth="yes"/>
      <point x="92" y="936"/>
      <point x="88" y="972"/>
      <point x="88" y="1006" type="curve" smooth="no"/>
      <point x="84" y="1012" type="line" smooth="no"/>
      <point x="84" y="1010" type="line" smooth="no"/>
      <point x="82" y="1014"/>
      <point x="80" y="1020"/>
      <point x="80" y="1024" type="curve" smooth="yes"/>
      <point x="80" y="1028"/>
      <point x="82" y="1030"/>
    </contour>
  </outline>
</glyph>
<glyph name="f" format="1">
  <advance width="1126"/>
  <unicode hex="0066"/>
  <outline>
    <contour>
      <point x="84" y="1052" type="line" smooth="no"/>
      <point x="84" y="1074"/>
      <point x="88" y="1096"/>
      <point x="88" y="1112" type="curve" smooth="yes"/>
      <point x="88" y="1252" type="line" smooth="no"/>
      <point x="88" y="1352" type="line" smooth="yes"/>
      <point x="88" y="1386"/>
      <point x="116" y="1384"/>
      <point x="148" y="1384" type="curve" smooth="yes"/>
      <point x="210" y="1384" type="line" smooth="no"/>
      <point x="308" y="1384" type="line" smooth="yes"/>
      <point x="350" y="1384"/>
      <point x="406" y="1388"/>
      <point x="464" y="1388" type="curve" smooth="yes"/>
      <point x="676" y="1388" type="line" smooth="no"/>
      <point x="770" y="1388" type="line" smooth="no"/>
      <point x="834" y="1386"/>
      <point x="894" y="1384"/>
      <point x="964" y="1384" type="curve" smooth="yes"/>
      <point x="1092" y="1382" type="line" smooth="yes"/>
      <point x="1124" y="1382"/>
      <point x="1118" y="1356"/>
      <point x="1118" y="1344" type="curve" smooth="yes"/>
      <point x="1120" y="1204" type="line" smooth="yes"/>
      <point x="1120" y="1188"/>
      <point x="1118" y="1176"/>
      <point x="1118" y="1162" type="curve" smooth="yes"/>
      <point x="1118" y="1124" type="line" smooth="yes"/>
      <point x="1118" y="1098"/>
      <point x="1120" y="1076"/>
      <point x="1120" y="1050" type="curve" smooth="yes"/>
      <point x="1120" y="1028"/>
      <point x="1116" y="1006"/>
      <point x="1102" y="1004" type="curve" smooth="yes"/>
      <point x="1098" y="1004"/>
      <point x="1094" y="1006"/>
      <point x="1092" y="1008" type="curve" smooth="no"/>
      <point x="1066" y="1006"/>
      <point x="1032" y="1004"/>
      <point x="1000" y="1004" type="curve" smooth="no"/>
      <point x="956" y="1000" type="line" smooth="no"/>
      <point x="778" y="1000" type="line" smooth="no"/>
      <point x="650" y="992" type="line" smooth="no"/>
      <point x="650" y="968" type="line" smooth="yes"/>
      <point x="650" y="946"/>
      <point x="652" y="930"/>
      <point x="654" y="904" type="curve" smooth="no"/>
      <point x="748" y="912" type="line" smooth="yes"/>
      <point x="782" y="914"/>
      <point x="818" y="916"/>
      <point x="856" y="916" type="curve" smooth="yes"/>
      <point x="938" y="916" type="line" smooth="yes"/>
      <point x="952" y="916"/>
      <point x="966" y="916"/>
      <point x="980" y="918" type="curve" smooth="no"/>
      <point x="1036" y="918"/>
      <point x="1088" y="902"/>
      <point x="1092" y="886" type="curve" smooth="no"/>
      <point x="1092" y="828" type="line" smooth="yes"/>
      <point x="1092" y="790"/>
      <point x="1088" y="750"/>
      <point x="1088" y="710" type="curve" smooth="yes"/>
      <point x="1088" y="620" type="line" smooth="no"/>
      <point x="1090" y="612"/>
      <point x="1090" y="602"/>
      <point x="1090" y="592" type="curve" smooth="yes"/>
      <point x="1090" y="552" type="line" smooth="no"/>
      <point x="1086" y="522"/>
      <point x="1056" y="520"/>
      <point x="1028" y="520" type="curve" smooth="yes"/>
      <point x="1004" y="520" type="line" smooth="yes"/>
      <point x="964" y="520" type="line" smooth="yes"/>
      <point x="896" y="520"/>
      <point x="838" y="516"/>
      <point x="768" y="516" type="curve" smooth="no"/>
      <point x="680" y="512" type="line" smooth="no"/>
      <point x="656" y="512" type="line" smooth="no"/>
      <point x="662" y="168" type="line" smooth="yes"/>
      <point x="662" y="152"/>
      <point x="660" y="138"/>
      <point x="660" y="124" type="curve" smooth="yes"/>
      <point x="660" y="114"/>
      <point x="662" y="102"/>
      <point x="664" y="92" type="curve" smooth="no"/>
      <point x="664" y="74" type="line" smooth="no"/>
      <point x="662" y="60"/>
      <point x="656" y="52"/>
      <point x="648" y="48" type="curve" smooth="yes"/>
      <point x="620" y="40" type="line" smooth="no"/>
      <point x="536" y="40" type="line" smooth="yes"/>
      <point x="526" y="40"/>
      <point x="510" y="38"/>
      <point x="500" y="38" type="curve" smooth="yes"/>
      <point x="494" y="38"/>
      <point x="490" y="40"/>
      <point x="482" y="40" type="curve" smooth="yes"/>
      <point x="114" y="40" type="line" smooth="no"/>
      <point x="88" y="84" type="line" smooth="no"/>
      <point x="88" y="328" type="line" smooth="no"/>
      <point x="94" y="758" type="line" smooth="yes"/>
      <point x="94" y="826"/>
      <point x="96" y="886"/>
      <point x="96" y="936" type="curve" smooth="yes"/>
      <point x="96" y="962"/>
      <point x="92" y="990"/>
      <point x="92" y="1014" type="curve" smooth="no"/>
    </contour>
  </outline>
</glyph>
<glyph name="g" format="1">
  <advance width="1502"/>
  <unicode hex="0067"/>
  <outline>
    <contour>
      <point x="40" y="716" type="curve" smooth="yes"/>
      <point x="40" y="870"/>
      <point x="78" y="1018"/>
      <point x="166" y="1140" type="curve" smooth="no"/>
      <point x="194" y="1174" type="line" smooth="no"/>
      <point x="204" y="1188" type="line" smooth="no"/>
      <point x="204" y="1186" type="line" smooth="no"/>
      <point x="354" y="1378"/>
      <point x="600" y="1416"/>
      <point x="788" y="1416" type="curve" smooth="yes"/>
      <point x="918" y="1416"/>
      <point x="1208" y="1378"/>
      <point x="1322" y="1218" type="curve" smooth="yes"/>
      <point x="1332" y="1204" type="line" smooth="yes"/>
      <point x="1374" y="1148"/>
      <point x="1388" y="1066"/>
      <point x="1398" y="980" type="curve" smooth="no"/>
      <point x="1400" y="972" type="line" smooth="no"/>
      <point x="1400" y="942"/>
      <point x="1354" y="938"/>
      <point x="1336" y="938" type="curve" smooth="yes"/>
      <point x="1254" y="938" type="line" smooth="yes"/>
      <point x="1190" y="938"/>
      <point x="1096" y="944"/>
      <point x="1002" y="944" type="curve" smooth="yes"/>
      <point x="892" y="944" type="line" smooth="no"/>
      <point x="880" y="948"/>
      <point x="876" y="954"/>
      <point x="872" y="966" type="curve" smooth="yes"/>
      <point x="864" y="984" type="line" smooth="yes"/>
      <point x="862" y="990"/>
      <point x="858" y="998"/>
      <point x="852" y="1006" type="curve" smooth="no"/>
      <point x="852" y="1004" type="line" smooth="no"/>
      <point x="842" y="1026"/>
      <point x="820" y="1044"/>
      <point x="772" y="1044" type="curve" smooth="yes"/>
      <point x="628" y="1044"/>
      <point x="614" y="892"/>
      <point x="614" y="776" type="curve" smooth="yes"/>
      <point x="614" y="750"/>
      <point x="616" y="722"/>
      <point x="616" y="704" type="curve" smooth="yes"/>
      <point x="616" y="674" type="line" smooth="no"/>
      <point x="616" y="628" type="line" smooth="yes"/>
      <point x="616" y="528"/>
      <point x="628" y="396"/>
      <point x="792" y="396" type="curve" smooth="yes"/>
      <point x="850" y="396"/>
      <point x="896" y="398"/>
      <point x="946" y="414" type="curve" smooth="no"/>
      <point x="946" y="458" type="line" smooth="yes"/>
      <point x="946" y="474"/>
      <point x="944" y="484"/>
      <point x="944" y="500" type="curve" smooth="yes"/>
      <point x="944" y="506"/>
      <point x="946" y="514"/>
      <point x="946" y="524" type="curve" smooth="no"/>
      <point x="908" y="524" type="line" smooth="yes"/>
      <point x="894" y="524"/>
      <point x="882" y="522"/>
      <point x="872" y="522" type="curve" smooth="yes"/>
      <point x="788" y="522" type="line" smooth="no"/>
      <point x="754" y="560" type="line" smooth="no"/>
      <point x="752" y="570"/>
      <point x="752" y="580"/>
      <point x="752" y="590" type="curve" smooth="yes"/>
      <point x="752" y="652" type="line" smooth="yes"/>
      <point x="752" y="678"/>
      <point x="754" y="700"/>
      <point x="754" y="730" type="curve" smooth="yes"/>
      <point x="754" y="758" type="line" smooth="yes"/>
      <point x="754" y="764"/>
      <point x="756" y="770"/>
      <point x="756" y="780" type="curve" smooth="no"/>
      <point x="754" y="788" type="line" smooth="no"/>
      <point x="754" y="812"/>
      <point x="764" y="824"/>
      <point x="790" y="840" type="curve" smooth="no"/>
      <point x="820" y="840" type="line" smooth="no"/>
      <point x="884" y="840" type="line" smooth="yes"/>
      <point x="894" y="840"/>
      <point x="904" y="838"/>
      <point x="914" y="836" type="curve" smooth="yes"/>
      <point x="1004" y="834" type="line" smooth="yes"/>
      <point x="1054" y="832"/>
      <point x="1110" y="832"/>
      <point x="1152" y="832" type="curve" smooth="yes"/>
      <point x="1248" y="832" type="line" smooth="yes"/>
      <point x="1326" y="832"/>
      <point x="1406" y="826"/>
      <point x="1428" y="804" type="curve" smooth="no"/>
      <point x="1428" y="612"/>
      <point x="1420" y="412"/>
      <point x="1420" y="220" type="curve" smooth="no"/>
      <point x="1422" y="132" type="line" smooth="no"/>
      <point x="1406" y="60"/>
      <point x="1020" y="24"/>
      <point x="914" y="16" type="curve" smooth="yes"/>
      <point x="888" y="14"/>
      <point x="860" y="12"/>
      <point x="830" y="12" type="curve" smooth="yes"/>
      <point x="664" y="12"/>
      <point x="448" y="20"/>
      <point x="268" y="162" type="curve" smooth="no"/>
      <point x="226" y="198" type="line" smooth="yes"/>
      <point x="212" y="208"/>
      <point x="202" y="220"/>
      <point x="192" y="234" type="curve" smooth="yes"/>
      <point x="160" y="276" type="line" smooth="no"/>
      <point x="80" y="402"/>
      <point x="40" y="540"/>
    </contour>
  </outline>
</glyph>
<glyph name="h" format="1">
  <advance width="1484"/>
  <unicode hex="0068"/>
  <outline>
    <contour>
      <point x="80" y="92" type="curve" smooth="yes"/>
      <point x="80" y="112" type="line" smooth="yes"/>
      <point x="80" y="118"/>
      <point x="80" y="124"/>
      <point x="82" y="132" type="curve" smooth="no"/>
      <point x="82" y="248" type="line" smooth="yes"/>
      <point x="82" y="290"/>
      <point x="84" y="334"/>
      <point x="84" y="376" type="curve" smooth="yes"/>
      <point x="84" y="564" type="line" smooth="no"/>
      <point x="84" y="744" type="line" smooth="no"/>
      <point x="84" y="808" type="line" smooth="no"/>
      <point x="86" y="840" type="line" smooth="no"/>
      <point x="86" y="984"/>
      <point x="96" y="1174"/>
      <point x="96" y="1312" type="curve" smooth="yes"/>
      <point x="96" y="1352" type="line" smooth="yes"/>
      <point x="96" y="1362"/>
      <point x="102" y="1370"/>
      <point x="112" y="1378" type="curve" smooth="no"/>
      <point x="228" y="1380" type="line" smooth="no"/>
      <point x="320" y="1380" type="line" smooth="yes"/>
      <point x="346" y="1380"/>
      <point x="370" y="1382"/>
      <point x="396" y="1382" type="curve" smooth="yes"/>
      <point x="428" y="1382" type="line" smooth="yes"/>
      <point x="434" y="1382"/>
      <point x="440" y="1384"/>
      <point x="448" y="1384" type="curve" smooth="yes"/>
      <point x="532" y="1382" type="line" smooth="yes"/>
      <point x="582" y="1380"/>
      <point x="638" y="1378"/>
      <point x="648" y="1362" type="curve" smooth="no"/>
      <point x="648" y="1346" type="line" smooth="no"/>
      <point x="646" y="1298"/>
      <point x="650" y="1242"/>
      <point x="650" y="1184" type="curve" smooth="yes"/>
      <point x="648" y="1080" type="line" smooth="no"/>
      <point x="648" y="948" type="line" smooth="no"/>
      <point x="788" y="944" type="line" smooth="yes"/>
      <point x="798" y="944"/>
      <point x="802" y="942"/>
      <point x="808" y="942" type="curve" smooth="yes"/>
      <point x="820" y="942"/>
      <point x="824" y="954"/>
      <point x="824" y="968" type="curve" smooth="yes"/>
      <point x="824" y="978"/>
      <point x="822" y="988"/>
      <point x="822" y="996" type="curve" smooth="yes"/>
      <point x="822" y="1094" type="line" smooth="yes"/>
      <point x="822" y="1110"/>
      <point x="824" y="1120"/>
      <point x="824" y="1136" type="curve" smooth="yes"/>
      <point x="824" y="1292" type="line" smooth="no"/>
      <point x="824" y="1332" type="line" smooth="yes"/>
      <point x="824" y="1338"/>
      <point x="822" y="1344"/>
      <point x="820" y="1350" type="curve" smooth="no"/>
      <point x="820" y="1366"/>
      <point x="826" y="1370"/>
      <point x="832" y="1380" type="curve" smooth="no"/>
      <point x="840" y="1388" type="line" smooth="no"/>
      <point x="936" y="1388" type="line" smooth="no"/>
      <point x="1192" y="1388" type="line" smooth="yes"/>
      <point x="1242" y="1388"/>
      <point x="1286" y="1384"/>
      <point x="1334" y="1384" type="curve" smooth="yes"/>
      <point x="1364" y="1384"/>
      <point x="1380" y="1380"/>
      <point x="1380" y="1334" type="curve" smooth="yes"/>
      <point x="1380" y="1120" type="line" smooth="yes"/>
      <point x="1380" y="1094"/>
      <point x="1376" y="1070"/>
      <point x="1376" y="1044" type="curve" smooth="yes"/>
      <point x="1376" y="1034"/>
      <point x="1378" y="1018"/>
      <point x="1378" y="1008" type="curve" smooth="yes"/>
      <point x="1378" y="960" type="line" smooth="yes"/>
      <point x="1378" y="926"/>
      <point x="1384" y="904"/>
      <point x="1384" y="858" type="curve" smooth="yes"/>
      <point x="1384" y="736" type="line" smooth="no"/>
      <point x="1384" y="704" type="line" smooth="yes"/>
      <point x="1384" y="688"/>
      <point x="1386" y="672"/>
      <point x="1386" y="656" type="curve" smooth="yes"/>
      <point x="1386" y="642" type="line" smooth="yes"/>
      <point x="1386" y="638"/>
      <point x="1386" y="634"/>
      <point x="1384" y="628" type="curve" smooth="yes"/>
      <point x="1380" y="610" type="line" smooth="no"/>
      <point x="1380" y="612" type="line" smooth="no"/>
      <point x="1380" y="562" type="line" smooth="no"/>
      <point x="1380" y="448" type="line" smooth="yes"/>
      <point x="1380" y="424" type="line" smooth="yes"/>
      <point x="1380" y="414"/>
      <point x="1380" y="406"/>
      <point x="1384" y="396" type="curve" smooth="no"/>
      <point x="1384" y="392" type="line" smooth="no"/>
      <point x="1388" y="392" type="line" smooth="no"/>
      <point x="1388" y="332" type="line" smooth="yes"/>
      <point x="1388" y="290"/>
      <point x="1392" y="250"/>
      <point x="1392" y="208" type="curve" smooth="yes"/>
      <point x="1392" y="136" type="line" smooth="no"/>
      <point x="1392" y="104" type="line" smooth="yes"/>
      <point x="1392" y="70"/>
      <point x="1378" y="40"/>
      <point x="1350" y="40" type="curve" smooth="yes"/>
      <point x="1288" y="40"/>
      <point x="1234" y="32"/>
      <point x="1180" y="36" type="curve" smooth="no"/>
      <point x="1068" y="36" type="line" smooth="yes"/>
      <point x="974" y="36" type="line" smooth="yes"/>
      <point x="928" y="36"/>
      <point x="884" y="36"/>
      <point x="840" y="40" type="curve" smooth="no"/>
      <point x="824" y="58" type="line" smooth="yes"/>
      <point x="818" y="64"/>
      <point x="814" y="70"/>
      <point x="808" y="80" type="curve" smooth="no"/>
      <point x="808" y="400" type="line" smooth="yes"/>
      <point x="808" y="426"/>
      <point x="810" y="454"/>
      <point x="810" y="484" type="curve" smooth="yes"/>
      <point x="810" y="514"/>
      <point x="808" y="512"/>
      <point x="776" y="512" type="curve" smooth="yes"/>
      <point x="708" y="512" type="line" smooth="yes"/>
      <point x="690" y="512"/>
      <point x="672" y="510"/>
      <point x="656" y="508" type="curve" smooth="no"/>
      <point x="656" y="476" type="line" smooth="yes"/>
      <point x="656" y="426"/>
      <point x="654" y="386"/>
      <point x="654" y="324" type="curve" smooth="yes"/>
      <point x="654" y="274" type="line" smooth="no"/>
      <point x="652" y="260"/>
      <point x="652" y="248"/>
      <point x="652" y="234" type="curve" smooth="yes"/>
      <point x="652" y="148" type="line" smooth="no"/>
      <point x="652" y="76" type="line" smooth="no"/>
      <point x="646" y="50"/>
      <point x="628" y="48"/>
      <point x="602" y="48" type="curve" smooth="yes"/>
      <point x="556" y="48" type="line" smooth="yes"/>
      <point x="460" y="48"/>
      <point x="358" y="44"/>
      <point x="256" y="44" type="curve" smooth="yes"/>
      <point x="140" y="44" type="line" smooth="no"/>
      <point x="124" y="44" type="line" smooth="yes"/>
      <point x="104" y="44"/>
      <point x="80" y="52"/>
    </contour>
  </outline>
</glyph>
<glyph name="i" format="1">
  <advance width="744"/>
  <unicode hex="0069"/>
  <outline>
    <contour>
      <point x="72" y="56" type="curve" smooth="no"/>
      <point x="72" y="208" type="line" smooth="yes"/>
      <point x="72" y="230"/>
      <point x="76" y="258"/>
      <point x="76" y="284" type="curve" smooth="yes"/>
      <point x="76" y="420" type="line" smooth="no"/>
      <point x="76" y="426" type="line" smooth="yes"/>
      <point x="76" y="522"/>
      <point x="76" y="610"/>
      <point x="82" y="700" type="curve" smooth="no"/>
      <point x="84" y="848" type="line" smooth="yes"/>
      <point x="84" y="920"/>
      <point x="88" y="980"/>
      <point x="88" y="1044" type="curve" smooth="yes"/>
      <point x="88" y="1352" type="line" smooth="no"/>
      <point x="90" y="1366"/>
      <point x="96" y="1378"/>
      <point x="106" y="1388" type="curve" smooth="no"/>
      <point x="144" y="1386"/>
      <point x="180" y="1384"/>
      <point x="222" y="1384" type="curve" smooth="no"/>
      <point x="260" y="1380" type="line" smooth="yes"/>
      <point x="294" y="1376"/>
      <point x="328" y="1376"/>
      <point x="362" y="1376" type="curve" smooth="yes"/>
      <point x="432" y="1376" type="line" smooth="yes"/>
      <point x="600" y="1376" type="line" smooth="no"/>
      <point x="626" y="1376" type="line" smooth="no"/>
      <point x="640" y="1374"/>
      <point x="644" y="1370"/>
      <point x="644" y="1344" type="curve" smooth="yes"/>
      <point x="644" y="1078" type="line" smooth="no"/>
      <point x="644" y="1022" type="line" smooth="no"/>
      <point x="644" y="800" type="line" smooth="yes"/>
      <point x="644" y="724"/>
      <point x="646" y="620"/>
      <point x="646" y="550" type="curve" smooth="yes"/>
      <point x="646" y="494" type="line" smooth="no"/>
      <point x="648" y="480"/>
      <point x="648" y="468"/>
      <point x="648" y="456" type="curve" smooth="yes"/>
      <point x="648" y="380" type="line" smooth="no"/>
      <point x="648" y="224" type="line" smooth="no"/>
      <point x="652" y="122" type="line" smooth="yes"/>
      <point x="652" y="104"/>
      <point x="652" y="88"/>
      <point x="654" y="74" type="curve" smooth="no"/>
      <point x="648" y="48"/>
      <point x="634" y="44"/>
      <point x="620" y="44" type="curve" smooth="yes"/>
      <point x="592" y="44" type="line" smooth="no"/>
      <point x="526" y="42"/>
      <point x="472" y="38"/>
      <point x="392" y="38" type="curve" smooth="yes"/>
      <point x="112" y="38" type="line" smooth="no"/>
      <point x="100" y="44" type="line" smooth="no"/>
      <point x="94" y="50"/>
      <point x="88" y="54"/>
    </contour>
  </outline>
</glyph>
<glyph name="j" format="1">
  <advance width="1228"/>
  <unicode hex="006a"/>
  <outline>
    <contour>
      <point x="-24" y="444" type="curve" smooth="yes"/>
      <point x="-24" y="480" type="line" smooth="yes"/>
      <point x="-24" y="506"/>
      <point x="-22" y="524"/>
      <point x="4" y="524" type="curve" smooth="yes"/>
      <point x="24" y="524" type="line" smooth="no"/>
      <point x="76" y="524" type="line" smooth="yes"/>
      <point x="186" y="524"/>
      <point x="296" y="528"/>
      <point x="406" y="528" type="curve" smooth="yes"/>
      <point x="510" y="528"/>
      <point x="432" y="412"/>
      <point x="512" y="412" type="curve" smooth="yes"/>
      <point x="574" y="412"/>
      <point x="558" y="490"/>
      <point x="566" y="532" type="curve" smooth="no"/>
      <point x="568" y="598" type="line" smooth="no"/>
      <point x="568" y="780"/>
      <point x="570" y="958"/>
      <point x="570" y="1144" type="curve" smooth="yes"/>
      <point x="570" y="1208" type="line" smooth="yes"/>
      <point x="570" y="1230"/>
      <point x="568" y="1246"/>
      <point x="568" y="1268" type="curve" smooth="yes"/>
      <point x="568" y="1328" type="line" smooth="yes"/>
      <point x="568" y="1358"/>
      <point x="572" y="1376"/>
      <point x="600" y="1388" type="curve" smooth="no"/>
      <point x="644" y="1388" type="line" smooth="yes"/>
      <point x="660" y="1388"/>
      <point x="672" y="1386"/>
      <point x="688" y="1386" type="curve" smooth="yes"/>
      <point x="730" y="1386" type="line" smooth="yes"/>
      <point x="764" y="1386"/>
      <point x="794" y="1384"/>
      <point x="832" y="1384" type="curve" smooth="yes"/>
      <point x="940" y="1384" type="line" smooth="no"/>
      <point x="1008" y="1384" type="line" smooth="yes"/>
      <point x="1026" y="1384"/>
      <point x="1048" y="1386"/>
      <point x="1070" y="1386" type="curve" smooth="yes"/>
      <point x="1104" y="1386"/>
      <point x="1134" y="1380"/>
      <point x="1140" y="1356" type="curve" smooth="no"/>
      <point x="1138" y="1334"/>
      <point x="1136" y="1318"/>
      <point x="1136" y="1304" type="curve" smooth="yes"/>
      <point x="1136" y="1228" type="line" smooth="no"/>
      <point x="1136" y="1008" type="line" smooth="no"/>
      <point x="1136" y="560" type="line" smooth="no"/>
      <point x="1128" y="480" type="line" smooth="no"/>
      <point x="1128" y="364"/>
      <point x="1096" y="292"/>
      <point x="1032" y="196" type="curve" smooth="no"/>
      <point x="916" y="70"/>
      <point x="694" y="20"/>
      <point x="580" y="20" type="curve" smooth="yes"/>
      <point x="548" y="20" type="line" smooth="yes"/>
      <point x="532" y="20"/>
      <point x="516" y="18"/>
      <point x="500" y="18" type="curve" smooth="yes"/>
      <point x="296" y="18"/>
      <point x="172" y="76"/>
      <point x="86" y="168" type="curve" smooth="no"/>
      <point x="86" y="166" type="line" smooth="no"/>
      <point x="12" y="246"/>
      <point x="-24" y="332"/>
    </contour>
    <contour>
      <point x="568" y="530" type="line" smooth="no"/>
      <point x="578" y="530" type="line" smooth="no"/>
      <point x="578" y="536"/>
      <point x="578" y="536"/>
      <point x="572" y="536" type="curve" smooth="no"/>
    </contour>
  </outline>
</glyph>
<glyph name="k" format="1">
  <advance width="1470"/>
  <unicode hex="006b"/>
  <outline>
    <contour>
      <point x="84" y="78" type="line" smooth="no"/>
      <point x="84" y="100" type="line" smooth="yes"/>
      <point x="84" y="132"/>
      <point x="86" y="164"/>
      <point x="86" y="196" type="curve" smooth="yes"/>
      <point x="86" y="268" type="line" smooth="yes"/>
      <point x="86" y="294"/>
      <point x="88" y="318"/>
      <point x="88" y="344" type="curve" smooth="yes"/>
      <point x="88" y="788" type="line" smooth="no"/>
      <point x="88" y="876" type="line" smooth="yes"/>
      <point x="88" y="962"/>
      <point x="90" y="1048"/>
      <point x="90" y="1144" type="curve" smooth="yes"/>
      <point x="90" y="1200"/>
      <point x="84" y="1250"/>
      <point x="84" y="1314" type="curve" smooth="yes"/>
      <point x="84" y="1346"/>
      <point x="92" y="1376"/>
      <point x="108" y="1392" type="curve" smooth="no"/>
      <point x="280" y="1392" type="line" smooth="yes"/>
      <point x="334" y="1392"/>
      <point x="384" y="1388"/>
      <point x="438" y="1388" type="curve" smooth="yes"/>
      <point x="468" y="1388" type="line" smooth="yes"/>
      <point x="530" y="1388" type="line" smooth="yes"/>
      <point x="564" y="1388"/>
      <point x="636" y="1400"/>
      <point x="646" y="1350" type="curve" smooth="no"/>
      <point x="646" y="1292" type="line" smooth="no"/>
      <point x="644" y="1262"/>
      <point x="644" y="1230"/>
      <point x="644" y="1198" type="curve" smooth="yes"/>
      <point x="644" y="1136" type="line" smooth="no"/>
      <point x="644" y="970" type="line" smooth="yes"/>
      <point x="644" y="954"/>
      <point x="642" y="940"/>
      <point x="642" y="924" type="curve" smooth="yes"/>
      <point x="642" y="906" type="line" smooth="no"/>
      <point x="658" y="938" type="line" smooth="no"/>
      <point x="824" y="1276" type="line" smooth="no"/>
      <point x="868" y="1370" type="line" smooth="no"/>
      <point x="880" y="1384" type="line" smooth="no"/>
      <point x="968" y="1384" type="line" smooth="yes"/>
      <point x="1008" y="1384"/>
      <point x="1050" y="1380"/>
      <point x="1088" y="1380" type="curve" smooth="yes"/>
      <point x="1164" y="1380" type="line" smooth="yes"/>
      <point x="1180" y="1380"/>
      <point x="1196" y="1382"/>
      <point x="1210" y="1382" type="curve" smooth="yes"/>
      <point x="1268" y="1382" type="line" smooth="no"/>
      <point x="1268" y="1382"/>
      <point x="1272" y="1382"/>
      <point x="1282" y="1384" type="curve" smooth="no"/>
      <point x="1326" y="1384"/>
      <point x="1444" y="1384"/>
      <point x="1444" y="1360" type="curve" smooth="yes"/>
      <point x="1444" y="1358"/>
      <point x="1438" y="1338"/>
      <point x="1426" y="1322" type="curve" smooth="yes"/>
      <point x="1396" y="1276" type="line" smooth="no"/>
      <point x="1160" y="872" type="line" smooth="yes"/>
      <point x="1136" y="832"/>
      <point x="1116" y="796"/>
      <point x="1094" y="764" type="curve" smooth="no"/>
      <point x="1102" y="744" type="line" smooth="no"/>
      <point x="1108" y="738"/>
      <point x="1112" y="734"/>
      <point x="1114" y="728" type="curve" smooth="yes"/>
      <point x="1140" y="688" type="line" smooth="no"/>
      <point x="1232" y="528" type="line" smooth="no"/>
      <point x="1290" y="428" type="line" smooth="yes"/>
      <point x="1308" y="396"/>
      <point x="1328" y="366"/>
      <point x="1350" y="336" type="curve" smooth="no"/>
      <point x="1394" y="266" type="line" smooth="no"/>
      <point x="1466" y="144" type="line" smooth="yes"/>
      <point x="1472" y="136"/>
      <point x="1476" y="126"/>
      <point x="1482" y="114" type="curve" smooth="yes"/>
      <point x="1496" y="88" type="line" smooth="no"/>
      <point x="1496" y="70"/>
      <point x="1488" y="56"/>
      <point x="1472" y="44" type="curve" smooth="no"/>
      <point x="1378" y="50"/>
      <point x="1288" y="50"/>
      <point x="1192" y="50" type="curve" smooth="yes"/>
      <point x="1142" y="50"/>
      <point x="1088" y="48"/>
      <point x="1038" y="48" type="curve" smooth="yes"/>
      <point x="902" y="48" type="line" smooth="no"/>
      <point x="888" y="76" type="line" smooth="no"/>
      <point x="844" y="150"/>
      <point x="798" y="226"/>
      <point x="756" y="306" type="curve" smooth="yes"/>
      <point x="644" y="520" type="line" smooth="no"/>
      <point x="644" y="232" type="line" smooth="no"/>
      <point x="646" y="178" type="line" smooth="yes"/>
      <point x="648" y="160"/>
      <point x="648" y="142"/>
      <point x="648" y="124" type="curve" smooth="yes"/>
      <point x="648" y="76" type="line" smooth="no"/>
      <point x="636" y="42"/>
      <point x="584" y="36"/>
      <point x="534" y="36" type="curve" smooth="yes"/>
      <point x="508" y="36"/>
      <point x="484" y="38"/>
      <point x="466" y="38" type="curve" smooth="yes"/>
      <point x="454" y="38" type="line" smooth="no"/>
      <point x="424" y="36"/>
      <point x="396" y="36"/>
      <point x="372" y="36" type="curve" smooth="yes"/>
      <point x="248" y="36" type="line" smooth="yes"/>
      <point x="234" y="36"/>
      <point x="220" y="36"/>
      <point x="204" y="38" type="curve" smooth="yes"/>
      <point x="194" y="38"/>
      <point x="178" y="36"/>
      <point x="172" y="36" type="curve" smooth="yes"/>
      <point x="112" y="36" type="line" smooth="no"/>
      <point x="106" y="46"/>
      <point x="98" y="58"/>
      <point x="88" y="70" type="curve" smooth="no"/>
    </contour>
  </outline>
</glyph>
<glyph name="l" format="1">
  <advance width="1126"/>
  <unicode hex="006c"/>
  <outline>
    <contour>
      <point x="82" y="68" type="curve" smooth="no"/>
      <point x="82" y="304" type="line" smooth="no"/>
      <point x="84" y="336"/>
      <point x="82" y="362"/>
      <point x="84" y="388" type="curve" smooth="yes"/>
      <point x="88" y="452" type="line" smooth="yes"/>
      <point x="88" y="466"/>
      <point x="86" y="482"/>
      <point x="86" y="500" type="curve" smooth="yes"/>
      <point x="86" y="672"/>
      <point x="96" y="848"/>
      <point x="96" y="1028" type="curve" smooth="yes"/>
      <point x="96" y="1074"/>
      <point x="88" y="1146"/>
      <point x="88" y="1216" type="curve" smooth="yes"/>
      <point x="88" y="1296"/>
      <point x="98" y="1366"/>
      <point x="122" y="1388" type="curve" smooth="no"/>
      <point x="226" y="1386"/>
      <point x="326" y="1384"/>
      <point x="432" y="1384" type="curve" smooth="yes"/>
      <point x="528" y="1384" type="line" smooth="yes"/>
      <point x="544" y="1384"/>
      <point x="562" y="1384"/>
      <point x="580" y="1382" type="curve" smooth="no"/>
      <point x="582" y="1384"/>
      <point x="586" y="1384"/>
      <point x="590" y="1384" type="curve" smooth="yes"/>
      <point x="604" y="1384" type="line" smooth="yes"/>
      <point x="610" y="1384"/>
      <point x="616" y="1380"/>
      <point x="632" y="1380" type="curve" smooth="yes"/>
      <point x="638" y="1380" type="line" smooth="no"/>
      <point x="654" y="1378"/>
      <point x="660" y="1370"/>
      <point x="674" y="1338" type="curve" smooth="no"/>
      <point x="674" y="1324" type="line" smooth="yes"/>
      <point x="674" y="1302"/>
      <point x="672" y="1282"/>
      <point x="672" y="1260" type="curve" smooth="yes"/>
      <point x="672" y="1216" type="line" smooth="no"/>
      <point x="670" y="1204"/>
      <point x="668" y="1192"/>
      <point x="668" y="1178" type="curve" smooth="yes"/>
      <point x="668" y="1092" type="line" smooth="yes"/>
      <point x="668" y="1078"/>
      <point x="664" y="1052"/>
      <point x="664" y="1036" type="curve" smooth="no"/>
      <point x="662" y="1040" type="line" smooth="no"/>
      <point x="658" y="1042"/>
      <point x="656" y="1042"/>
      <point x="656" y="1044" type="curve" smooth="yes"/>
      <point x="656" y="1024" type="line" smooth="yes"/>
      <point x="656" y="966"/>
      <point x="652" y="906"/>
      <point x="652" y="848" type="curve" smooth="yes"/>
      <point x="652" y="762" type="line" smooth="no"/>
      <point x="650" y="720"/>
      <point x="648" y="676"/>
      <point x="648" y="634" type="curve" smooth="yes"/>
      <point x="648" y="576" type="line" smooth="yes"/>
      <point x="648" y="524" type="line" smooth="yes"/>
      <point x="648" y="496"/>
      <point x="648" y="470"/>
      <point x="644" y="448" type="curve" smooth="no"/>
      <point x="790" y="448" type="line" smooth="no"/>
      <point x="1072" y="448" type="line" smooth="yes"/>
      <point x="1096" y="448"/>
      <point x="1120" y="448"/>
      <point x="1120" y="414" type="curve" smooth="yes"/>
      <point x="1120" y="182" type="line" smooth="yes"/>
      <point x="1120" y="148"/>
      <point x="1120" y="114"/>
      <point x="1122" y="80" type="curve" smooth="no"/>
      <point x="1116" y="48"/>
      <point x="1072" y="44"/>
      <point x="1024" y="44" type="curve" smooth="yes"/>
      <point x="956" y="44" type="line" smooth="yes"/>
      <point x="868" y="44"/>
      <point x="782" y="40"/>
      <point x="694" y="40" type="curve" smooth="yes"/>
      <point x="412" y="40" type="line" smooth="yes"/>
      <point x="390" y="40"/>
      <point x="366" y="38"/>
      <point x="348" y="38" type="curve" smooth="yes"/>
      <point x="342" y="38" type="line" smooth="yes"/>
      <point x="332" y="38"/>
      <point x="314" y="36"/>
      <point x="304" y="36" type="curve" smooth="yes"/>
      <point x="106" y="36" type="line" smooth="no"/>
      <point x="100" y="44" type="line" smooth="yes"/>
      <point x="98" y="46"/>
      <point x="92" y="52"/>
    </contour>
  </outline>
</glyph>
<glyph name="m" format="1">
  <advance width="1972"/>
  <unicode hex="006d"/>
  <outline>
    <contour>
      <point x="104" y="1172" type="curve" smooth="yes"/>
      <point x="104" y="1350" type="line" smooth="yes"/>
      <point x="104" y="1366"/>
      <point x="106" y="1372"/>
      <point x="128" y="1388" type="curve" smooth="no"/>
      <point x="220" y="1388" type="line" smooth="yes"/>
      <point x="242" y="1388"/>
      <point x="270" y="1388"/>
      <point x="292" y="1390" type="curve" smooth="no"/>
      <point x="472" y="1390"/>
      <point x="624" y="1372"/>
      <point x="718" y="1372" type="curve" smooth="no"/>
      <point x="820" y="1368" type="line" smooth="no"/>
      <point x="826" y="1370"/>
      <point x="830" y="1370"/>
      <point x="832" y="1372" type="curve" smooth="yes"/>
      <point x="850" y="1376" type="line" smooth="yes"/>
      <point x="856" y="1376"/>
      <point x="864" y="1372"/>
      <point x="864" y="1370" type="curve" smooth="yes"/>
      <point x="908" y="1144" type="line" smooth="no"/>
      <point x="944" y="938" type="line" smooth="yes"/>
      <point x="946" y="916"/>
      <point x="950" y="896"/>
      <point x="954" y="874" type="curve" smooth="yes"/>
      <point x="976" y="738" type="line" smooth="no"/>
      <point x="984" y="710" type="line" smooth="no"/>
      <point x="990" y="726"/>
      <point x="990" y="750"/>
      <point x="996" y="772" type="curve" smooth="yes"/>
      <point x="1048" y="1032" type="line" smooth="yes"/>
      <point x="1060" y="1092"/>
      <point x="1070" y="1154"/>
      <point x="1088" y="1216" type="curve" smooth="no"/>
      <point x="1116" y="1360" type="line" smooth="yes"/>
      <point x="1118" y="1370"/>
      <point x="1128" y="1380"/>
      <point x="1138" y="1380" type="curve" smooth="yes"/>
      <point x="1440" y="1384" type="line" smooth="yes"/>
      <point x="1490" y="1384"/>
      <point x="1552" y="1388"/>
      <point x="1602" y="1388" type="curve" smooth="yes"/>
      <point x="1780" y="1388" type="line" smooth="yes"/>
      <point x="1786" y="1388"/>
      <point x="1790" y="1388"/>
      <point x="1796" y="1386" type="curve" smooth="no"/>
      <point x="1840" y="1386" type="line" smooth="yes"/>
      <point x="1864" y="1386"/>
      <point x="1868" y="1322"/>
      <point x="1868" y="1262" type="curve" smooth="yes"/>
      <point x="1868" y="1204" type="line" smooth="yes"/>
      <point x="1868" y="986" type="line" smooth="no"/>
      <point x="1868" y="708" type="line" smooth="yes"/>
      <point x="1868" y="674"/>
      <point x="1866" y="638"/>
      <point x="1866" y="600" type="curve" smooth="no"/>
      <point x="1864" y="568"/>
      <point x="1868" y="534"/>
      <point x="1872" y="496" type="curve" smooth="yes"/>
      <point x="1878" y="436" type="line" smooth="no"/>
      <point x="1878" y="376" type="line" smooth="yes"/>
      <point x="1878" y="274"/>
      <point x="1876" y="174"/>
      <point x="1876" y="84" type="curve" smooth="no"/>
      <point x="1870" y="38"/>
      <point x="1824" y="40"/>
      <point x="1792" y="40" type="curve" smooth="yes"/>
      <point x="1780" y="40" type="line" smooth="yes"/>
      <point x="1654" y="40"/>
      <point x="1536" y="36"/>
      <point x="1408" y="36" type="curve" smooth="no"/>
      <point x="1366" y="62"/>
      <point x="1358" y="164"/>
      <point x="1358" y="266" type="curve" smooth="yes"/>
      <point x="1358" y="362"/>
      <point x="1362" y="434"/>
      <point x="1362" y="516" type="curve" smooth="yes"/>
      <point x="1362" y="604" type="line" smooth="yes"/>
      <point x="1362" y="618"/>
      <point x="1360" y="634"/>
      <point x="1360" y="650" type="curve" smooth="yes"/>
      <point x="1360" y="686"/>
      <point x="1362" y="722"/>
      <point x="1364" y="760" type="curve" smooth="no"/>
      <point x="1346" y="684" type="line" smooth="yes"/>
      <point x="1318" y="566"/>
      <point x="1284" y="442"/>
      <point x="1256" y="324" type="curve" smooth="yes"/>
      <point x="1196" y="68" type="line" smooth="no"/>
      <point x="1182" y="44"/>
      <point x="1138" y="40"/>
      <point x="1096" y="40" type="curve" smooth="yes"/>
      <point x="1016" y="40"/>
      <point x="960" y="44"/>
      <point x="890" y="44" type="curve" smooth="yes"/>
      <point x="872" y="44" type="line" smooth="yes"/>
      <point x="854" y="44"/>
      <point x="840" y="42"/>
      <point x="826" y="42" type="curve" smooth="yes"/>
      <point x="786" y="42"/>
      <point x="768" y="48"/>
      <point x="760" y="82" type="curve" smooth="yes"/>
      <point x="680" y="438" type="line" smooth="no"/>
      <point x="630" y="672" type="line" smooth="no"/>
      <point x="594" y="844" type="line" smooth="no"/>
      <point x="584" y="636"/>
      <point x="580" y="442"/>
      <point x="580" y="228" type="curve" smooth="yes"/>
      <point x="580" y="72" type="line" smooth="no"/>
      <point x="578" y="54"/>
      <point x="572" y="52"/>
      <point x="556" y="52" type="curve" smooth="yes"/>
      <point x="418" y="52" type="line" smooth="yes"/>
      <point x="362" y="52"/>
      <point x="312" y="48"/>
      <point x="270" y="48" type="curve" smooth="yes"/>
      <point x="256" y="48"/>
      <point x="244" y="50"/>
      <point x="228" y="50" type="curve" smooth="yes"/>
      <point x="164" y="50" type="line" smooth="yes"/>
      <point x="134" y="50"/>
      <point x="108" y="56"/>
      <point x="108" y="72" type="curve" smooth="yes"/>
      <point x="108" y="82"/>
      <point x="114" y="94"/>
      <point x="114" y="100" type="curve" smooth="yes"/>
      <point x="108" y="244"/>
      <point x="106" y="412"/>
      <point x="106" y="574" type="curve" smooth="yes"/>
      <point x="106" y="734"/>
      <point x="108" y="878"/>
      <point x="108" y="996" type="curve" smooth="yes"/>
      <point x="108" y="1054"/>
      <point x="104" y="1114"/>
    </contour>
    <contour>
      <point x="842" y="1376" type="line" smooth="no"/>
      <point x="844" y="1376" type="line" smooth="no"/>
    </contour>
    <contour>
      <point x="1364" y="766" type="line" smooth="no"/>
      <point x="1364" y="768" type="line" smooth="no"/>
    </contour>
  </outline>
</glyph>
<glyph name="n" format="1">
  <advance width="1548"/>
  <unicode hex="006e"/>
  <outline>
    <contour>
      <point x="68" y="84" type="line" smooth="no"/>
      <point x="78" y="416"/>
      <point x="74" y="788"/>
      <point x="84" y="1128" type="curve" smooth="no"/>
      <point x="84" y="1198" type="line" smooth="no"/>
      <point x="84" y="1252" type="line" smooth="yes"/>
      <point x="84" y="1260"/>
      <point x="84" y="1266"/>
      <point x="86" y="1272" type="curve" smooth="no"/>
      <point x="86" y="1294"/>
      <point x="84" y="1322"/>
      <point x="84" y="1344" type="curve" smooth="no"/>
      <point x="88" y="1358"/>
      <point x="92" y="1380"/>
      <point x="108" y="1380" type="curve" smooth="no"/>
      <point x="116" y="1376" type="line" smooth="no"/>
      <point x="254" y="1376"/>
      <point x="396" y="1384"/>
      <point x="540" y="1384" type="curve" smooth="yes"/>
      <point x="632" y="1384" type="line" smooth="no"/>
      <point x="708" y="1384" type="line" smooth="no"/>
      <point x="724" y="1378"/>
      <point x="732" y="1376"/>
      <point x="732" y="1360" type="curve" smooth="no"/>
      <point x="804" y="1164" type="line" smooth="no"/>
      <point x="964" y="704" type="line" smooth="no"/>
      <point x="968" y="852" type="line" smooth="no"/>
      <point x="978" y="1028"/>
      <point x="984" y="1186"/>
      <point x="984" y="1352" type="curve" smooth="yes"/>
      <point x="984" y="1376"/>
      <point x="1028" y="1378"/>
      <point x="1074" y="1378" type="curve" smooth="yes"/>
      <point x="1090" y="1378"/>
      <point x="1100" y="1376"/>
      <point x="1116" y="1376" type="curve" smooth="yes"/>
      <point x="1348" y="1376" type="line" smooth="no"/>
      <point x="1416" y="1376" type="line" smooth="no"/>
      <point x="1432" y="1370" type="line" smooth="no"/>
      <point x="1434" y="1258"/>
      <point x="1438" y="1148"/>
      <point x="1438" y="1036" type="curve" smooth="no"/>
      <point x="1436" y="996"/>
      <point x="1436" y="958"/>
      <point x="1436" y="924" type="curve" smooth="yes"/>
      <point x="1436" y="818" type="line" smooth="yes"/>
      <point x="1436" y="682"/>
      <point x="1440" y="566"/>
      <point x="1440" y="446" type="curve" smooth="yes"/>
      <point x="1440" y="220" type="line" smooth="no"/>
      <point x="1440" y="170" type="line" smooth="yes"/>
      <point x="1440" y="164"/>
      <point x="1442" y="158"/>
      <point x="1444" y="152" type="curve" smooth="no"/>
      <point x="1444" y="82" type="line" smooth="no"/>
      <point x="1440" y="50"/>
      <point x="1406" y="52"/>
      <point x="1384" y="52" type="curve" smooth="yes"/>
      <point x="1348" y="52" type="line" smooth="no"/>
      <point x="1306" y="50"/>
      <point x="1270" y="48"/>
      <point x="1232" y="48" type="curve" smooth="yes"/>
      <point x="1100" y="48" type="line" smooth="no"/>
      <point x="824" y="48" type="line" smooth="no"/>
      <point x="814" y="50"/>
      <point x="794" y="86"/>
      <point x="778" y="132" type="curve" smooth="yes"/>
      <point x="728" y="272" type="line" smooth="no"/>
      <point x="646" y="500" type="line" smooth="yes"/>
      <point x="622" y="566"/>
      <point x="600" y="630"/>
      <point x="580" y="696" type="curve" smooth="no"/>
      <point x="576" y="702" type="line" smooth="no"/>
      <point x="576" y="696" type="line" smooth="no"/>
      <point x="570" y="562"/>
      <point x="574" y="432"/>
      <point x="568" y="304" type="curve" smooth="no"/>
      <point x="564" y="100" type="line" smooth="yes"/>
      <point x="564" y="64"/>
      <point x="566" y="46"/>
      <point x="524" y="36" type="curve" smooth="no"/>
      <point x="492" y="36"/>
      <point x="462" y="40"/>
      <point x="430" y="40" type="curve" smooth="yes"/>
      <point x="236" y="40" type="line" smooth="yes"/>
      <point x="218" y="40"/>
      <point x="200" y="40"/>
      <point x="184" y="38" type="curve" smooth="yes"/>
      <point x="112" y="36" type="line" smooth="no"/>
    </contour>
  </outline>
</glyph>
<glyph name="p" format="1">
  <advance width="1366"/>
  <unicode hex="0070"/>
  <outline>
    <contour>
      <point x="92" y="102" type="line" smooth="no"/>
      <point x="92" y="368" type="line" smooth="no"/>
      <point x="92" y="412" type="line" smooth="yes"/>
      <point x="92" y="428"/>
      <point x="94" y="442"/>
      <point x="96" y="456" type="curve" smooth="no"/>
      <point x="96" y="706" type="line" smooth="yes"/>
      <point x="96" y="914"/>
      <point x="98" y="1122"/>
      <point x="98" y="1340" type="curve" smooth="yes"/>
      <point x="98" y="1384"/>
      <point x="142" y="1362"/>
      <point x="192" y="1372" type="curve" smooth="no"/>
      <point x="296" y="1372" type="line" smooth="no"/>
      <point x="318" y="1374"/>
      <point x="338" y="1376"/>
      <point x="360" y="1376" type="curve" smooth="yes"/>
      <point x="392" y="1374" type="line" smooth="yes"/>
      <point x="414" y="1374"/>
      <point x="434" y="1374"/>
      <point x="456" y="1376" type="curve" smooth="no"/>
      <point x="456" y="1382" type="line" smooth="no"/>
      <point x="478" y="1388"/>
      <point x="502" y="1388"/>
      <point x="528" y="1388" type="curve" smooth="yes"/>
      <point x="632" y="1388"/>
      <point x="736" y="1376"/>
      <point x="840" y="1376" type="curve" smooth="yes"/>
      <point x="886" y="1376" type="line" smooth="no"/>
      <point x="908" y="1376" type="line" smooth="yes"/>
      <point x="1106" y="1376"/>
      <point x="1352" y="1244"/>
      <point x="1352" y="936" type="curve" smooth="yes"/>
      <point x="1352" y="774"/>
      <point x="1280" y="658"/>
      <point x="1152" y="554" type="curve" smooth="no"/>
      <point x="1056" y="504"/>
      <point x="960" y="486"/>
      <point x="856" y="480" type="curve" smooth="no"/>
      <point x="824" y="476" type="line" smooth="yes"/>
      <point x="804" y="472"/>
      <point x="774" y="472"/>
      <point x="744" y="472" type="curve" smooth="yes"/>
      <point x="684" y="472" type="line" smooth="yes"/>
      <point x="664" y="472" type="line" smooth="yes"/>
      <point x="662" y="472"/>
      <point x="658" y="472"/>
      <point x="654" y="470" type="curve" smooth="no"/>
      <point x="654" y="336"/>
      <point x="654" y="208"/>
      <point x="662" y="74" type="curve" smooth="no"/>
      <point x="656" y="48"/>
      <point x="638" y="40"/>
      <point x="584" y="40" type="curve" smooth="yes"/>
      <point x="112" y="40" type="line" smooth="no"/>
      <point x="108" y="50"/>
      <point x="104" y="62"/>
      <point x="102" y="72" type="curve" smooth="yes"/>
    </contour>
    <contour>
      <point x="604" y="804" type="curve" smooth="no"/>
      <point x="620" y="786" type="line" smooth="no"/>
      <point x="628" y="776" type="line" smooth="yes"/>
      <point x="630" y="774"/>
      <point x="630" y="774"/>
      <point x="630" y="772" type="curve" smooth="yes"/>
      <point x="630" y="770" type="line" smooth="no"/>
      <point x="628" y="770"/>
      <point x="628" y="772"/>
      <point x="628" y="774" type="curve" smooth="no"/>
      <point x="630" y="772"/>
      <point x="634" y="772"/>
      <point x="640" y="772" type="curve" smooth="yes"/>
      <point x="746" y="772"/>
      <point x="852" y="816"/>
      <point x="852" y="936" type="curve" smooth="yes"/>
      <point x="852" y="1068"/>
      <point x="744" y="1076"/>
      <point x="634" y="1076" type="curve" smooth="yes"/>
      <point x="626" y="1076" type="line" smooth="no"/>
      <point x="624" y="1074"/>
      <point x="622" y="1066"/>
      <point x="616" y="1060" type="curve" smooth="no"/>
      <point x="616" y="990" type="line" smooth="no"/>
      <point x="612" y="956" type="line" smooth="yes"/>
      <point x="606" y="908"/>
      <point x="604" y="852"/>
    </contour>
  </outline>
</glyph>
<glyph name="q" format="1">
  <advance width="1454"/>
  <unicode hex="0071"/>
  <outline>
    <contour>
      <point x="36" y="724" type="curve" smooth="yes"/>
      <point x="36" y="978"/>
      <point x="132" y="1148"/>
      <point x="270" y="1276" type="curve" smooth="no"/>
      <point x="328" y="1322" type="line" smooth="yes"/>
      <point x="350" y="1340"/>
      <point x="372" y="1352"/>
      <point x="396" y="1360" type="curve" smooth="yes"/>
      <point x="472" y="1384" type="line" smooth="no"/>
      <point x="470" y="1384" type="line" smooth="no"/>
      <point x="504" y="1396"/>
      <point x="628" y="1420"/>
      <point x="712" y="1420" type="curve" smooth="yes"/>
      <point x="752" y="1420" type="line" smooth="yes"/>
      <point x="1172" y="1420"/>
      <point x="1412" y="1132"/>
      <point x="1412" y="756" type="curve" smooth="no"/>
      <point x="1410" y="732" type="line" smooth="no"/>
      <point x="1404" y="612"/>
      <point x="1376" y="506"/>
      <point x="1310" y="420" type="curve" smooth="no"/>
      <point x="1370" y="420" type="line" smooth="no"/>
      <point x="1420" y="420" type="line" smooth="no"/>
      <point x="1456" y="386" type="line" smooth="no"/>
      <point x="1458" y="300" type="line" smooth="yes"/>
      <point x="1460" y="298"/>
      <point x="1460" y="294"/>
      <point x="1460" y="290" type="curve" smooth="yes"/>
      <point x="1462" y="68" type="line" smooth="no"/>
      <point x="1456" y="48"/>
      <point x="1444" y="36"/>
      <point x="1426" y="32" type="curve" smooth="no"/>
      <point x="1388" y="32"/>
      <point x="1292" y="44"/>
      <point x="1202" y="44" type="curve" smooth="yes"/>
      <point x="1020" y="44"/>
      <point x="868" y="8"/>
      <point x="688" y="8" type="curve" smooth="yes"/>
      <point x="582" y="8"/>
      <point x="486" y="26"/>
      <point x="404" y="64" type="curve" smooth="no"/>
      <point x="384" y="72" type="line" smooth="no"/>
      <point x="300" y="124" type="line" smooth="no"/>
      <point x="260" y="156" type="line" smooth="no"/>
      <point x="226" y="192" type="line" smooth="no"/>
      <point x="216" y="212" type="line" smooth="no"/>
      <point x="216" y="210" type="line" smooth="no"/>
      <point x="196" y="244" type="line" smooth="yes"/>
      <point x="188" y="258"/>
      <point x="178" y="272"/>
      <point x="168" y="282" type="curve" smooth="no"/>
      <point x="150" y="308" type="line" smooth="no"/>
      <point x="66" y="450"/>
      <point x="36" y="576"/>
    </contour>
    <contour>
      <point x="564" y="722" type="curve" smooth="yes"/>
      <point x="564" y="596"/>
      <point x="562" y="360"/>
      <point x="714" y="360" type="curve" smooth="yes"/>
      <point x="716" y="360" type="line" smooth="yes"/>
      <point x="858" y="360"/>
      <point x="876" y="536"/>
      <point x="876" y="652" type="curve" smooth="yes"/>
      <point x="876" y="724" type="line" smooth="yes"/>
      <point x="876" y="780" type="line" smooth="yes"/>
      <point x="876" y="900"/>
      <point x="860" y="1074"/>
      <point x="710" y="1074" type="curve" smooth="yes"/>
      <point x="584" y="1074"/>
      <point x="564" y="874"/>
    </contour>
  </outline>
</glyph>
<glyph name="r" format="1">
  <advance width="1402"/>
  <unicode hex="0072"/>
  <outline>
    <contour>
      <point x="80" y="1076" type="curve" smooth="yes"/>
      <point x="80" y="1124"/>
      <point x="84" y="1168"/>
      <point x="84" y="1214" type="curve" smooth="yes"/>
      <point x="84" y="1256"/>
      <point x="86" y="1358"/>
      <point x="96" y="1368" type="curve" smooth="no"/>
      <point x="96" y="1366" type="line" smooth="no"/>
      <point x="98" y="1372"/>
      <point x="106" y="1376"/>
      <point x="116" y="1376" type="curve" smooth="yes"/>
      <point x="278" y="1376" type="line" smooth="yes"/>
      <point x="452" y="1376"/>
      <point x="650" y="1384"/>
      <point x="836" y="1384" type="curve" smooth="yes"/>
      <point x="982" y="1384"/>
      <point x="1162" y="1378"/>
      <point x="1258" y="1272" type="curve" smooth="no"/>
      <point x="1318" y="1216"/>
      <point x="1352" y="1120"/>
      <point x="1352" y="1044" type="curve" smooth="yes"/>
      <point x="1352" y="906"/>
      <point x="1290" y="796"/>
      <point x="1152" y="732" type="curve" smooth="no"/>
      <point x="1144" y="728" type="line" smooth="no"/>
      <point x="1296" y="662"/>
      <point x="1310" y="528"/>
      <point x="1332" y="398" type="curve" smooth="no"/>
      <point x="1342" y="302"/>
      <point x="1362" y="218"/>
      <point x="1388" y="112" type="curve" smooth="yes"/>
      <point x="1390" y="106"/>
      <point x="1396" y="98"/>
      <point x="1396" y="88" type="curve" smooth="yes"/>
      <point x="1396" y="70"/>
      <point x="1392" y="52"/>
      <point x="1374" y="52" type="curve" smooth="yes"/>
      <point x="1254" y="52"/>
      <point x="1130" y="50"/>
      <point x="1012" y="50" type="curve" smooth="no"/>
      <point x="988" y="52"/>
      <point x="964" y="52"/>
      <point x="940" y="52" type="curve" smooth="yes"/>
      <point x="872" y="52" type="line" smooth="no"/>
      <point x="844" y="60"/>
      <point x="816" y="150"/>
      <point x="806" y="240" type="curve" smooth="yes"/>
      <point x="784" y="420" type="line" smooth="no"/>
      <point x="784" y="418" type="line" smooth="no"/>
      <point x="772" y="462"/>
      <point x="764" y="496"/>
      <point x="698" y="496" type="curve" smooth="yes"/>
      <point x="652" y="496" type="line" smooth="no"/>
      <point x="652" y="344" type="line" smooth="yes"/>
      <point x="652" y="306"/>
      <point x="656" y="274"/>
      <point x="656" y="236" type="curve" smooth="yes"/>
      <point x="656" y="114" type="line" smooth="no"/>
      <point x="656" y="96" type="line" smooth="yes"/>
      <point x="656" y="64"/>
      <point x="656" y="40"/>
      <point x="618" y="40" type="curve" smooth="yes"/>
      <point x="588" y="40" type="line" smooth="no"/>
      <point x="568" y="42"/>
      <point x="550" y="42"/>
      <point x="532" y="42" type="curve" smooth="yes"/>
      <point x="518" y="42" type="line" smooth="no"/>
      <point x="510" y="40"/>
      <point x="502" y="40"/>
      <point x="494" y="40" type="curve" smooth="yes"/>
      <point x="476" y="40"/>
      <point x="458" y="40"/>
      <point x="436" y="42" type="curve" smooth="yes"/>
      <point x="344" y="44" type="line" smooth="yes"/>
      <point x="312" y="44"/>
      <point x="276" y="40"/>
      <point x="242" y="40" type="curve" smooth="yes"/>
      <point x="120" y="40" type="line" smooth="no"/>
      <point x="88" y="56" type="line" smooth="no"/>
      <point x="88" y="200" type="line" smooth="yes"/>
      <point x="88" y="302"/>
      <point x="92" y="382"/>
      <point x="92" y="476" type="curve" smooth="yes"/>
      <point x="92" y="596" type="line" smooth="yes"/>
      <point x="92" y="612"/>
      <point x="94" y="626"/>
      <point x="94" y="642" type="curve" smooth="yes"/>
      <point x="94" y="658"/>
      <point x="92" y="680"/>
      <point x="92" y="696" type="curve" smooth="yes"/>
      <point x="92" y="736" type="line" smooth="yes"/>
      <point x="92" y="768"/>
      <point x="96" y="802"/>
      <point x="96" y="834" type="curve" smooth="yes"/>
      <point x="96" y="862" type="line" smooth="yes"/>
      <point x="96" y="884"/>
      <point x="92" y="906"/>
      <point x="92" y="928" type="curve" smooth="yes"/>
      <point x="92" y="948" type="line" smooth="no"/>
      <point x="92" y="960" type="line" smooth="no"/>
      <point x="84" y="960" type="line" smooth="no"/>
      <point x="82" y="992"/>
      <point x="80" y="1038"/>
    </contour>
    <contour>
      <point x="652" y="1022" type="line" smooth="yes"/>
      <point x="652" y="964"/>
      <point x="658" y="906"/>
      <point x="658" y="848" type="curve" smooth="no"/>
      <point x="668" y="836" type="line" smooth="no"/>
      <point x="670" y="830"/>
      <point x="674" y="826"/>
      <point x="680" y="824" type="curve" smooth="no"/>
      <point x="696" y="824" type="line" smooth="yes"/>
      <point x="766" y="824"/>
      <point x="872" y="850"/>
      <point x="872" y="972" type="curve" smooth="yes"/>
      <point x="872" y="1074"/>
      <point x="732" y="1076"/>
      <point x="672" y="1076" type="curve" smooth="yes"/>
      <point x="664" y="1076" type="line" smooth="no"/>
      <point x="656" y="1074"/>
      <point x="652" y="1068"/>
      <point x="652" y="1060" type="curve" smooth="yes"/>
    </contour>
  </outline>
</glyph>
<glyph name="s" format="1">
  <advance width="1314"/>
  <unicode hex="0073"/>
  <outline>
    <contour>
      <point x="28" y="452" type="curve" smooth="yes"/>
      <point x="28" y="468"/>
      <point x="36" y="476"/>
      <point x="50" y="476" type="curve" smooth="yes"/>
      <point x="62" y="476"/>
      <point x="74" y="474"/>
      <point x="86" y="474" type="curve" smooth="yes"/>
      <point x="96" y="474" type="line" smooth="yes"/>
      <point x="150" y="474" type="line" smooth="no"/>
      <point x="188" y="474" type="line" smooth="no"/>
      <point x="202" y="476"/>
      <point x="214" y="476"/>
      <point x="228" y="476" type="curve" smooth="yes"/>
      <point x="254" y="476" type="line" smooth="yes"/>
      <point x="258" y="476"/>
      <point x="262" y="476"/>
      <point x="268" y="474" type="curve" smooth="no"/>
      <point x="326" y="476"/>
      <point x="402" y="476"/>
      <point x="466" y="476" type="curve" smooth="yes"/>
      <point x="512" y="476" type="line" smooth="yes"/>
      <point x="586" y="476"/>
      <point x="534" y="358"/>
      <point x="664" y="358" type="curve" smooth="yes"/>
      <point x="670" y="358" type="line" smooth="yes"/>
      <point x="716" y="358"/>
      <point x="766" y="382"/>
      <point x="766" y="438" type="curve" smooth="yes"/>
      <point x="766" y="502"/>
      <point x="594" y="532"/>
      <point x="508" y="556" type="curve" smooth="yes"/>
      <point x="448" y="572" type="line" smooth="no"/>
      <point x="154" y="658"/>
      <point x="40" y="770"/>
      <point x="40" y="968" type="curve" smooth="yes"/>
      <point x="40" y="998"/>
      <point x="44" y="1026"/>
      <point x="50" y="1056" type="curve" smooth="no"/>
      <point x="50" y="1054" type="line" smooth="no"/>
      <point x="88" y="1332"/>
      <point x="410" y="1428"/>
      <point x="668" y="1428" type="curve" smooth="yes"/>
      <point x="788" y="1428"/>
      <point x="904" y="1410"/>
      <point x="1008" y="1368" type="curve" smooth="yes"/>
      <point x="1114" y="1326"/>
      <point x="1128" y="1288"/>
      <point x="1172" y="1244" type="curve" smooth="no"/>
      <point x="1182" y="1232" type="line" smooth="no"/>
      <point x="1238" y="1176"/>
      <point x="1246" y="1098"/>
      <point x="1256" y="1024" type="curve" smooth="no"/>
      <point x="1228" y="992" type="line" smooth="no"/>
      <point x="1220" y="984" type="line" smooth="no"/>
      <point x="1058" y="984" type="line" smooth="yes"/>
      <point x="1000" y="984"/>
      <point x="934" y="988"/>
      <point x="864" y="988" type="curve" smooth="yes"/>
      <point x="858" y="988" type="line" smooth="yes"/>
      <point x="816" y="988"/>
      <point x="804" y="984"/>
      <point x="784" y="1030" type="curve" smooth="yes"/>
      <point x="772" y="1058"/>
      <point x="746" y="1068"/>
      <point x="662" y="1068" type="curve" smooth="yes"/>
      <point x="648" y="1068"/>
      <point x="568" y="1062"/>
      <point x="568" y="1024" type="curve" smooth="yes"/>
      <point x="568" y="968"/>
      <point x="680" y="970"/>
      <point x="724" y="948" type="curve" smooth="no"/>
      <point x="744" y="940" type="line" smooth="no"/>
      <point x="752" y="940"/>
      <point x="758" y="936"/>
      <point x="764" y="936" type="curve" smooth="yes"/>
      <point x="870" y="910" type="line" smooth="no"/>
      <point x="1060" y="858"/>
      <point x="1286" y="760"/>
      <point x="1286" y="496" type="curve" smooth="yes"/>
      <point x="1286" y="432"/>
      <point x="1278" y="380"/>
      <point x="1262" y="332" type="curve" smooth="no"/>
      <point x="1262" y="334" type="line" smooth="no"/>
      <point x="1174" y="68"/>
      <point x="878" y="28"/>
      <point x="636" y="12" type="curve" smooth="no"/>
      <point x="516" y="18"/>
      <point x="316" y="32"/>
      <point x="214" y="112" type="curve" smooth="no"/>
      <point x="196" y="124" type="line" smooth="no"/>
      <point x="70" y="218"/>
      <point x="38" y="324"/>
    </contour>
  </outline>
</glyph>
<glyph name="t" format="1">
  <advance width="1168"/>
  <unicode hex="0074"/>
  <outline>
    <contour>
      <point x="-12" y="1012" type="curve" smooth="yes"/>
      <point x="-12" y="1352" type="line" smooth="yes"/>
      <point x="-12" y="1368"/>
      <point x="-8" y="1376"/>
      <point x="8" y="1376" type="curve" smooth="yes"/>
      <point x="10" y="1376"/>
      <point x="14" y="1374"/>
      <point x="20" y="1372" type="curve" smooth="no"/>
      <point x="264" y="1372" type="line" smooth="no"/>
      <point x="282" y="1374"/>
      <point x="304" y="1376"/>
      <point x="326" y="1376" type="curve" smooth="yes"/>
      <point x="336" y="1376" type="line" smooth="yes"/>
      <point x="586" y="1376" type="line" smooth="yes"/>
      <point x="712" y="1376"/>
      <point x="840" y="1376"/>
      <point x="966" y="1380" type="curve" smooth="no"/>
      <point x="1152" y="1380" type="line" smooth="no"/>
      <point x="1176" y="1376"/>
      <point x="1176" y="1350"/>
      <point x="1176" y="1332" type="curve" smooth="yes"/>
      <point x="1176" y="1012" type="line" smooth="no"/>
      <point x="1174" y="990"/>
      <point x="1158" y="988"/>
      <point x="1148" y="988" type="curve" smooth="yes"/>
      <point x="936" y="988" type="line" smooth="no"/>
      <point x="868" y="988" type="line" smooth="no"/>
      <point x="868" y="968"/>
      <point x="866" y="950"/>
      <point x="866" y="930" type="curve" smooth="yes"/>
      <point x="866" y="916" type="line" smooth="yes"/>
      <point x="866" y="858" type="line" smooth="no"/>
      <point x="866" y="836" type="line" smooth="yes"/>
      <point x="866" y="810"/>
      <point x="864" y="784"/>
      <point x="864" y="758" type="curve" smooth="yes"/>
      <point x="864" y="740" type="line" smooth="yes"/>
      <point x="864" y="520" type="line" smooth="yes"/>
      <point x="864" y="430"/>
      <point x="866" y="334"/>
      <point x="868" y="244" type="curve" smooth="yes"/>
      <point x="870" y="68" type="line" smooth="no"/>
      <point x="866" y="50"/>
      <point x="860" y="40"/>
      <point x="832" y="36" type="curve" smooth="no"/>
      <point x="768" y="36" type="line" smooth="yes"/>
      <point x="716" y="36"/>
      <point x="640" y="38"/>
      <point x="640" y="44" type="curve" smooth="no"/>
      <point x="624" y="44"/>
      <point x="608" y="42"/>
      <point x="592" y="42" type="curve" smooth="yes"/>
      <point x="512" y="42" type="line" smooth="yes"/>
      <point x="466" y="42"/>
      <point x="428" y="40"/>
      <point x="380" y="40" type="curve" smooth="no"/>
      <point x="324" y="36" type="line" smooth="no"/>
      <point x="292" y="68" type="line" smooth="yes"/>
      <point x="286" y="74"/>
      <point x="284" y="84"/>
      <point x="282" y="100" type="curve" smooth="no"/>
      <point x="282" y="116" type="line" smooth="yes"/>
      <point x="282" y="122"/>
      <point x="282" y="126"/>
      <point x="284" y="132" type="curve" smooth="yes"/>
      <point x="288" y="284" type="line" smooth="yes"/>
      <point x="292" y="466"/>
      <point x="300" y="640"/>
      <point x="300" y="832" type="curve" smooth="no"/>
      <point x="302" y="858" type="line" smooth="no"/>
      <point x="300" y="858" type="line" smooth="no"/>
      <point x="300" y="874"/>
      <point x="302" y="892"/>
      <point x="302" y="908" type="curve" smooth="yes"/>
      <point x="302" y="926"/>
      <point x="300" y="944"/>
      <point x="300" y="960" type="curve" smooth="yes"/>
      <point x="300" y="980" type="line" smooth="no"/>
      <point x="224" y="980" type="line" smooth="no"/>
      <point x="66" y="982" type="line" smooth="no"/>
      <point x="60" y="980"/>
      <point x="56" y="980"/>
      <point x="50" y="980" type="curve" smooth="yes"/>
      <point x="32" y="980" type="line" smooth="yes"/>
      <point x="10" y="980"/>
      <point x="-12" y="986"/>
    </contour>
  </outline>
</glyph>
<glyph name="u" format="1">
  <advance width="1450"/>
  <unicode hex="0075"/>
  <outline>
    <contour>
      <point x="80" y="502" type="curve" smooth="no"/>
      <point x="82" y="658"/>
      <point x="78" y="800"/>
      <point x="86" y="960" type="curve" smooth="no"/>
      <point x="86" y="988" type="line" smooth="yes"/>
      <point x="86" y="998"/>
      <point x="88" y="1010"/>
      <point x="88" y="1020" type="curve" smooth="yes"/>
      <point x="88" y="1050"/>
      <point x="84" y="1080"/>
      <point x="84" y="1110" type="curve" smooth="yes"/>
      <point x="84" y="1144" type="line" smooth="no"/>
      <point x="98" y="1142" type="line" smooth="no"/>
      <point x="98" y="1142"/>
      <point x="98" y="1146"/>
      <point x="96" y="1152" type="curve" smooth="yes"/>
      <point x="88" y="1166"/>
      <point x="80" y="1214"/>
      <point x="80" y="1256" type="curve" smooth="yes"/>
      <point x="80" y="1310"/>
      <point x="84" y="1360"/>
      <point x="100" y="1376" type="curve" smooth="no"/>
      <point x="128" y="1376" type="line" smooth="no"/>
      <point x="216" y="1380" type="line" smooth="yes"/>
      <point x="226" y="1380"/>
      <point x="238" y="1380"/>
      <point x="248" y="1382" type="curve" smooth="no"/>
      <point x="276" y="1382" type="line" smooth="yes"/>
      <point x="284" y="1382"/>
      <point x="296" y="1384"/>
      <point x="306" y="1384" type="curve" smooth="yes"/>
      <point x="480" y="1384" type="line" smooth="no"/>
      <point x="508" y="1384" type="line" smooth="yes"/>
      <point x="562" y="1384"/>
      <point x="644" y="1386"/>
      <point x="644" y="1364" type="curve" smooth="yes"/>
      <point x="648" y="1024" type="line" smooth="yes"/>
      <point x="648" y="880"/>
      <point x="644" y="740"/>
      <point x="644" y="612" type="curve" smooth="yes"/>
      <point x="644" y="564" type="line" smooth="no"/>
      <point x="644" y="544" type="line" smooth="yes"/>
      <point x="644" y="500"/>
      <point x="650" y="414"/>
      <point x="720" y="414" type="curve" smooth="yes"/>
      <point x="764" y="414"/>
      <point x="794" y="460"/>
      <point x="794" y="510" type="curve" smooth="yes"/>
      <point x="796" y="658" type="line" smooth="yes"/>
      <point x="798" y="804"/>
      <point x="800" y="948"/>
      <point x="800" y="1100" type="curve" smooth="yes"/>
      <point x="800" y="1188"/>
      <point x="800" y="1274"/>
      <point x="796" y="1352" type="curve" smooth="yes"/>
      <point x="796" y="1370"/>
      <point x="806" y="1384"/>
      <point x="824" y="1392" type="curve" smooth="no"/>
      <point x="912" y="1392" type="line" smooth="no"/>
      <point x="1336" y="1392" type="line" smooth="no"/>
      <point x="1344" y="1386"/>
      <point x="1350" y="1376"/>
      <point x="1356" y="1374" type="curve" smooth="yes"/>
      <point x="1380" y="1360" type="line" smooth="no"/>
      <point x="1376" y="1236" type="line" smooth="yes"/>
      <point x="1370" y="1066"/>
      <point x="1368" y="914"/>
      <point x="1364" y="748" type="curve" smooth="no"/>
      <point x="1364" y="686" type="line" smooth="yes"/>
      <point x="1364" y="664"/>
      <point x="1362" y="644"/>
      <point x="1362" y="626" type="curve" smooth="yes"/>
      <point x="1362" y="608"/>
      <point x="1362" y="592"/>
      <point x="1364" y="578" type="curve" smooth="yes"/>
      <point x="1372" y="532" type="line" smooth="no"/>
      <point x="1372" y="500" type="line" smooth="yes"/>
      <point x="1372" y="426"/>
      <point x="1358" y="348"/>
      <point x="1336" y="300" type="curve" smooth="no"/>
      <point x="1336" y="296" type="line" smooth="no"/>
      <point x="1246" y="88"/>
      <point x="1004" y="24"/>
      <point x="778" y="24" type="curve" smooth="yes"/>
      <point x="764" y="24"/>
      <point x="750" y="24"/>
      <point x="736" y="30" type="curve" smooth="no"/>
      <point x="712" y="28" type="line" smooth="no"/>
      <point x="712" y="20"/>
      <point x="692" y="20"/>
      <point x="682" y="20" type="curve" smooth="no"/>
      <point x="676" y="18" type="line" smooth="no"/>
      <point x="638" y="16"/>
      <point x="592" y="24"/>
      <point x="554" y="28" type="curve" smooth="yes"/>
      <point x="508" y="32" type="line" smooth="no"/>
      <point x="306" y="56"/>
      <point x="90" y="190"/>
    </contour>
  </outline>
</glyph>
